<?xml version="1.0" encoding="UTF-8" standalone="no"?>
<!DOCTYPE svg PUBLIC "-//W3C//DTD SVG 1.1//EN" "http://www.w3.org/Graphics/SVG/1.1/DTD/svg11.dtd">
<svg width="100%" height="100%" viewBox="0 0 200 200" version="1.1" xmlns="http://www.w3.org/2000/svg" xmlns:xlink="http://www.w3.org/1999/xlink" xml:space="preserve" xmlns:serif="http://www.serif.com/" style="fill-rule:evenodd;clip-rule:evenodd;stroke-linejoin:round;stroke-miterlimit:2;">
    <g id="SVG">
        <rect x="0" y="0" width="200" height="200" style="fill:white;"/>
        <rect x="13" y="13" width="6" height="6"/>
        <rect x="19" y="13" width="6" height="6"/>
        <rect x="25" y="13" width="6" height="6"/>
        <rect x="31" y="13" width="6" height="6"/>
        <rect x="37" y="13" width="6" height="6"/>
        <rect x="43" y="13" width="6" height="6"/>
        <rect x="49" y="13" width="6" height="6"/>
        <rect x="67" y="13" width="6" height="6"/>
        <rect x="85" y="13" width="6" height="6"/>
        <rect x="91" y="13" width="6" height="6"/>
        <rect x="97" y="13" width="6" height="6"/>
        <rect x="109" y="13" width="6" height="6"/>
        <rect x="115" y="13" width="6" height="6"/>
        <rect x="121" y="13" width="6" height="6"/>
        <rect x="127" y="13" width="6" height="6"/>
        <rect x="145" y="13" width="6" height="6"/>
        <rect x="151" y="13" width="6" height="6"/>
        <rect x="157" y="13" width="6" height="6"/>
        <rect x="163" y="13" width="6" height="6"/>
        <rect x="169" y="13" width="6" height="6"/>
        <rect x="175" y="13" width="6" height="6"/>
        <rect x="181" y="13" width="6" height="6"/>
        <rect x="13" y="19" width="6" height="6"/>
        <rect x="49" y="19" width="6" height="6"/>
        <rect x="73" y="19" width="6" height="6"/>
        <rect x="79" y="19" width="6" height="6"/>
        <rect x="85" y="19" width="6" height="6"/>
        <rect x="97" y="19" width="6" height="6"/>
        <rect x="103" y="19" width="6" height="6"/>
        <rect x="109" y="19" width="6" height="6"/>
        <rect x="121" y="19" width="6" height="6"/>
        <rect x="127" y="19" width="6" height="6"/>
        <rect x="145" y="19" width="6" height="6"/>
        <rect x="181" y="19" width="6" height="6"/>
        <rect x="13" y="25" width="6" height="6"/>
        <rect x="25" y="25" width="6" height="6"/>
        <rect x="31" y="25" width="6" height="6"/>
        <rect x="37" y="25" width="6" height="6"/>
        <rect x="49" y="25" width="6" height="6"/>
        <rect x="61" y="25" width="6" height="6"/>
        <rect x="67" y="25" width="6" height="6"/>
        <rect x="73" y="25" width="6" height="6"/>
        <rect x="85" y="25" width="6" height="6"/>
        <rect x="91" y="25" width="6" height="6"/>
        <rect x="97" y="25" width="6" height="6"/>
        <rect x="103" y="25" width="6" height="6"/>
        <rect x="127" y="25" width="6" height="6"/>
        <rect x="133" y="25" width="6" height="6"/>
        <rect x="145" y="25" width="6" height="6"/>
        <rect x="157" y="25" width="6" height="6"/>
        <rect x="163" y="25" width="6" height="6"/>
        <rect x="169" y="25" width="6" height="6"/>
        <rect x="181" y="25" width="6" height="6"/>
        <rect x="13" y="31" width="6" height="6"/>
        <rect x="25" y="31" width="6" height="6"/>
        <rect x="31" y="31" width="6" height="6"/>
        <rect x="37" y="31" width="6" height="6"/>
        <rect x="49" y="31" width="6" height="6"/>
        <rect x="67" y="31" width="6" height="6"/>
        <rect x="73" y="31" width="6" height="6"/>
        <rect x="79" y="31" width="6" height="6"/>
        <rect x="91" y="31" width="6" height="6"/>
        <rect x="97" y="31" width="6" height="6"/>
        <rect x="121" y="31" width="6" height="6"/>
        <rect x="127" y="31" width="6" height="6"/>
        <rect x="145" y="31" width="6" height="6"/>
        <rect x="157" y="31" width="6" height="6"/>
        <rect x="163" y="31" width="6" height="6"/>
        <rect x="169" y="31" width="6" height="6"/>
        <rect x="181" y="31" width="6" height="6"/>
        <rect x="13" y="37" width="6" height="6"/>
        <rect x="25" y="37" width="6" height="6"/>
        <rect x="31" y="37" width="6" height="6"/>
        <rect x="37" y="37" width="6" height="6"/>
        <rect x="49" y="37" width="6" height="6"/>
        <rect x="73" y="37" width="6" height="6"/>
        <rect x="97" y="37" width="6" height="6"/>
        <rect x="103" y="37" width="6" height="6"/>
        <rect x="109" y="37" width="6" height="6"/>
        <rect x="115" y="37" width="6" height="6"/>
        <rect x="121" y="37" width="6" height="6"/>
        <rect x="127" y="37" width="6" height="6"/>
        <rect x="145" y="37" width="6" height="6"/>
        <rect x="157" y="37" width="6" height="6"/>
        <rect x="163" y="37" width="6" height="6"/>
        <rect x="169" y="37" width="6" height="6"/>
        <rect x="181" y="37" width="6" height="6"/>
        <rect x="13" y="43" width="6" height="6"/>
        <rect x="49" y="43" width="6" height="6"/>
        <rect x="67" y="43" width="6" height="6"/>
        <rect x="91" y="43" width="6" height="6"/>
        <rect x="103" y="43" width="6" height="6"/>
        <rect x="109" y="43" width="6" height="6"/>
        <rect x="121" y="43" width="6" height="6"/>
        <rect x="127" y="43" width="6" height="6"/>
        <rect x="145" y="43" width="6" height="6"/>
        <rect x="181" y="43" width="6" height="6"/>
        <rect x="13" y="49" width="6" height="6"/>
        <rect x="19" y="49" width="6" height="6"/>
        <rect x="25" y="49" width="6" height="6"/>
        <rect x="31" y="49" width="6" height="6"/>
        <rect x="37" y="49" width="6" height="6"/>
        <rect x="43" y="49" width="6" height="6"/>
        <rect x="49" y="49" width="6" height="6"/>
        <rect x="61" y="49" width="6" height="6"/>
        <rect x="73" y="49" width="6" height="6"/>
        <rect x="85" y="49" width="6" height="6"/>
        <rect x="97" y="49" width="6" height="6"/>
        <rect x="109" y="49" width="6" height="6"/>
        <rect x="121" y="49" width="6" height="6"/>
        <rect x="133" y="49" width="6" height="6"/>
        <rect x="145" y="49" width="6" height="6"/>
        <rect x="151" y="49" width="6" height="6"/>
        <rect x="157" y="49" width="6" height="6"/>
        <rect x="163" y="49" width="6" height="6"/>
        <rect x="169" y="49" width="6" height="6"/>
        <rect x="175" y="49" width="6" height="6"/>
        <rect x="181" y="49" width="6" height="6"/>
        <rect x="61" y="55" width="6" height="6"/>
        <rect x="67" y="55" width="6" height="6"/>
        <rect x="73" y="55" width="6" height="6"/>
        <rect x="85" y="55" width="6" height="6"/>
        <rect x="91" y="55" width="6" height="6"/>
        <rect x="97" y="55" width="6" height="6"/>
        <rect x="103" y="55" width="6" height="6"/>
        <rect x="109" y="55" width="6" height="6"/>
        <rect x="115" y="55" width="6" height="6"/>
        <rect x="121" y="55" width="6" height="6"/>
        <rect x="13" y="61" width="6" height="6"/>
        <rect x="19" y="61" width="6" height="6"/>
        <rect x="25" y="61" width="6" height="6"/>
        <rect x="37" y="61" width="6" height="6"/>
        <rect x="43" y="61" width="6" height="6"/>
        <rect x="49" y="61" width="6" height="6"/>
        <rect x="55" y="61" width="6" height="6"/>
        <rect x="61" y="61" width="6" height="6"/>
        <rect x="73" y="61" width="6" height="6"/>
        <rect x="79" y="61" width="6" height="6"/>
        <rect x="97" y="61" width="6" height="6"/>
        <rect x="103" y="61" width="6" height="6"/>
        <rect x="109" y="61" width="6" height="6"/>
        <rect x="115" y="61" width="6" height="6"/>
        <rect x="139" y="61" width="6" height="6"/>
        <rect x="145" y="61" width="6" height="6"/>
        <rect x="169" y="61" width="6" height="6"/>
        <rect x="19" y="67" width="6" height="6"/>
        <rect x="31" y="67" width="6" height="6"/>
        <rect x="37" y="67" width="6" height="6"/>
        <rect x="61" y="67" width="6" height="6"/>
        <rect x="73" y="67" width="6" height="6"/>
        <rect x="79" y="67" width="6" height="6"/>
        <rect x="97" y="67" width="6" height="6"/>
        <rect x="109" y="67" width="6" height="6"/>
        <rect x="133" y="67" width="6" height="6"/>
        <rect x="139" y="67" width="6" height="6"/>
        <rect x="145" y="67" width="6" height="6"/>
        <rect x="163" y="67" width="6" height="6"/>
        <rect x="181" y="67" width="6" height="6"/>
        <rect x="31" y="73" width="6" height="6"/>
        <rect x="37" y="73" width="6" height="6"/>
        <rect x="49" y="73" width="6" height="6"/>
        <rect x="61" y="73" width="6" height="6"/>
        <rect x="67" y="73" width="6" height="6"/>
        <rect x="91" y="73" width="6" height="6"/>
        <rect x="115" y="73" width="6" height="6"/>
        <rect x="121" y="73" width="6" height="6"/>
        <rect x="157" y="73" width="6" height="6"/>
        <rect x="169" y="73" width="6" height="6"/>
        <rect x="175" y="73" width="6" height="6"/>
        <rect x="181" y="73" width="6" height="6"/>
        <rect x="25" y="79" width="6" height="6"/>
        <rect x="31" y="79" width="6" height="6"/>
        <rect x="37" y="79" width="6" height="6"/>
        <rect x="43" y="79" width="6" height="6"/>
        <rect x="79" y="79" width="6" height="6"/>
        <rect x="103" y="79" width="6" height="6"/>
        <rect x="115" y="79" width="6" height="6"/>
        <rect x="121" y="79" width="6" height="6"/>
        <rect x="127" y="79" width="6" height="6"/>
        <rect x="133" y="79" width="6" height="6"/>
        <rect x="151" y="79" width="6" height="6"/>
        <rect x="157" y="79" width="6" height="6"/>
        <rect x="175" y="79" width="6" height="6"/>
        <rect x="25" y="85" width="6" height="6"/>
        <rect x="31" y="85" width="6" height="6"/>
        <rect x="49" y="85" width="6" height="6"/>
        <rect x="85" y="85" width="6" height="6"/>
        <rect x="103" y="85" width="6" height="6"/>
        <rect x="109" y="85" width="6" height="6"/>
        <rect x="115" y="85" width="6" height="6"/>
        <rect x="121" y="85" width="6" height="6"/>
        <rect x="133" y="85" width="6" height="6"/>
        <rect x="139" y="85" width="6" height="6"/>
        <rect x="145" y="85" width="6" height="6"/>
        <rect x="163" y="85" width="6" height="6"/>
        <rect x="175" y="85" width="6" height="6"/>
        <rect x="181" y="85" width="6" height="6"/>
        <rect x="25" y="91" width="6" height="6"/>
        <rect x="37" y="91" width="6" height="6"/>
        <rect x="43" y="91" width="6" height="6"/>
        <rect x="55" y="91" width="6" height="6"/>
        <rect x="79" y="91" width="6" height="6"/>
        <rect x="85" y="91" width="6" height="6"/>
        <rect x="91" y="91" width="6" height="6"/>
        <rect x="109" y="91" width="6" height="6"/>
        <rect x="133" y="91" width="6" height="6"/>
        <rect x="139" y="91" width="6" height="6"/>
        <rect x="145" y="91" width="6" height="6"/>
        <rect x="163" y="91" width="6" height="6"/>
        <rect x="181" y="91" width="6" height="6"/>
        <rect x="31" y="97" width="6" height="6"/>
        <rect x="43" y="97" width="6" height="6"/>
        <rect x="49" y="97" width="6" height="6"/>
        <rect x="61" y="97" width="6" height="6"/>
        <rect x="73" y="97" width="6" height="6"/>
        <rect x="79" y="97" width="6" height="6"/>
        <rect x="85" y="97" width="6" height="6"/>
        <rect x="97" y="97" width="6" height="6"/>
        <rect x="115" y="97" width="6" height="6"/>
        <rect x="139" y="97" width="6" height="6"/>
        <rect x="157" y="97" width="6" height="6"/>
        <rect x="163" y="97" width="6" height="6"/>
        <rect x="175" y="97" width="6" height="6"/>
        <rect x="181" y="97" width="6" height="6"/>
        <rect x="19" y="103" width="6" height="6"/>
        <rect x="25" y="103" width="6" height="6"/>
        <rect x="43" y="103" width="6" height="6"/>
        <rect x="55" y="103" width="6" height="6"/>
        <rect x="85" y="103" width="6" height="6"/>
        <rect x="91" y="103" width="6" height="6"/>
        <rect x="97" y="103" width="6" height="6"/>
        <rect x="103" y="103" width="6" height="6"/>
        <rect x="115" y="103" width="6" height="6"/>
        <rect x="133" y="103" width="6" height="6"/>
        <rect x="139" y="103" width="6" height="6"/>
        <rect x="145" y="103" width="6" height="6"/>
        <rect x="163" y="103" width="6" height="6"/>
        <rect x="175" y="103" width="6" height="6"/>
        <rect x="19" y="109" width="6" height="6"/>
        <rect x="37" y="109" width="6" height="6"/>
        <rect x="49" y="109" width="6" height="6"/>
        <rect x="61" y="109" width="6" height="6"/>
        <rect x="79" y="109" width="6" height="6"/>
        <rect x="97" y="109" width="6" height="6"/>
        <rect x="109" y="109" width="6" height="6"/>
        <rect x="115" y="109" width="6" height="6"/>
        <rect x="133" y="109" width="6" height="6"/>
        <rect x="139" y="109" width="6" height="6"/>
        <rect x="145" y="109" width="6" height="6"/>
        <rect x="151" y="109" width="6" height="6"/>
        <rect x="163" y="109" width="6" height="6"/>
        <rect x="175" y="109" width="6" height="6"/>
        <rect x="181" y="109" width="6" height="6"/>
        <rect x="19" y="115" width="6" height="6"/>
        <rect x="25" y="115" width="6" height="6"/>
        <rect x="37" y="115" width="6" height="6"/>
        <rect x="55" y="115" width="6" height="6"/>
        <rect x="67" y="115" width="6" height="6"/>
        <rect x="79" y="115" width="6" height="6"/>
        <rect x="97" y="115" width="6" height="6"/>
        <rect x="109" y="115" width="6" height="6"/>
        <rect x="115" y="115" width="6" height="6"/>
        <rect x="133" y="115" width="6" height="6"/>
        <rect x="139" y="115" width="6" height="6"/>
        <rect x="145" y="115" width="6" height="6"/>
        <rect x="163" y="115" width="6" height="6"/>
        <rect x="169" y="115" width="6" height="6"/>
        <rect x="181" y="115" width="6" height="6"/>
        <rect x="13" y="121" width="6" height="6"/>
        <rect x="49" y="121" width="6" height="6"/>
        <rect x="55" y="121" width="6" height="6"/>
        <rect x="73" y="121" width="6" height="6"/>
        <rect x="91" y="121" width="6" height="6"/>
        <rect x="109" y="121" width="6" height="6"/>
        <rect x="115" y="121" width="6" height="6"/>
        <rect x="121" y="121" width="6" height="6"/>
        <rect x="133" y="121" width="6" height="6"/>
        <rect x="139" y="121" width="6" height="6"/>
        <rect x="145" y="121" width="6" height="6"/>
        <rect x="151" y="121" width="6" height="6"/>
        <rect x="175" y="121" width="6" height="6"/>
        <rect x="181" y="121" width="6" height="6"/>
        <rect x="19" y="127" width="6" height="6"/>
        <rect x="25" y="127" width="6" height="6"/>
        <rect x="31" y="127" width="6" height="6"/>
        <rect x="43" y="127" width="6" height="6"/>
        <rect x="79" y="127" width="6" height="6"/>
        <rect x="103" y="127" width="6" height="6"/>
        <rect x="109" y="127" width="6" height="6"/>
        <rect x="115" y="127" width="6" height="6"/>
        <rect x="121" y="127" width="6" height="6"/>
        <rect x="145" y="127" width="6" height="6"/>
        <rect x="157" y="127" width="6" height="6"/>
        <rect x="163" y="127" width="6" height="6"/>
        <rect x="175" y="127" width="6" height="6"/>
        <rect x="13" y="133" width="6" height="6"/>
        <rect x="31" y="133" width="6" height="6"/>
        <rect x="37" y="133" width="6" height="6"/>
        <rect x="49" y="133" width="6" height="6"/>
        <rect x="67" y="133" width="6" height="6"/>
        <rect x="85" y="133" width="6" height="6"/>
        <rect x="103" y="133" width="6" height="6"/>
        <rect x="109" y="133" width="6" height="6"/>
        <rect x="115" y="133" width="6" height="6"/>
        <rect x="133" y="133" width="6" height="6"/>
        <rect x="139" y="133" width="6" height="6"/>
        <rect x="145" y="133" width="6" height="6"/>
        <rect x="151" y="133" width="6" height="6"/>
        <rect x="157" y="133" width="6" height="6"/>
        <rect x="61" y="139" width="6" height="6"/>
        <rect x="79" y="139" width="6" height="6"/>
        <rect x="85" y="139" width="6" height="6"/>
        <rect x="91" y="139" width="6" height="6"/>
        <rect x="109" y="139" width="6" height="6"/>
        <rect x="133" y="139" width="6" height="6"/>
        <rect x="157" y="139" width="6" height="6"/>
        <rect x="169" y="139" width="6" height="6"/>
        <rect x="175" y="139" width="6" height="6"/>
        <rect x="181" y="139" width="6" height="6"/>
        <rect x="13" y="145" width="6" height="6"/>
        <rect x="19" y="145" width="6" height="6"/>
        <rect x="25" y="145" width="6" height="6"/>
        <rect x="31" y="145" width="6" height="6"/>
        <rect x="37" y="145" width="6" height="6"/>
        <rect x="43" y="145" width="6" height="6"/>
        <rect x="49" y="145" width="6" height="6"/>
        <rect x="61" y="145" width="6" height="6"/>
        <rect x="67" y="145" width="6" height="6"/>
        <rect x="73" y="145" width="6" height="6"/>
        <rect x="79" y="145" width="6" height="6"/>
        <rect x="85" y="145" width="6" height="6"/>
        <rect x="97" y="145" width="6" height="6"/>
        <rect x="115" y="145" width="6" height="6"/>
        <rect x="127" y="145" width="6" height="6"/>
        <rect x="133" y="145" width="6" height="6"/>
        <rect x="145" y="145" width="6" height="6"/>
        <rect x="157" y="145" width="6" height="6"/>
        <rect x="163" y="145" width="6" height="6"/>
        <rect x="175" y="145" width="6" height="6"/>
        <rect x="181" y="145" width="6" height="6"/>
        <rect x="13" y="151" width="6" height="6"/>
        <rect x="49" y="151" width="6" height="6"/>
        <rect x="61" y="151" width="6" height="6"/>
        <rect x="73" y="151" width="6" height="6"/>
        <rect x="85" y="151" width="6" height="6"/>
        <rect x="91" y="151" width="6" height="6"/>
        <rect x="97" y="151" width="6" height="6"/>
        <rect x="115" y="151" width="6" height="6"/>
        <rect x="121" y="151" width="6" height="6"/>
        <rect x="133" y="151" width="6" height="6"/>
        <rect x="157" y="151" width="6" height="6"/>
        <rect x="163" y="151" width="6" height="6"/>
        <rect x="175" y="151" width="6" height="6"/>
        <rect x="13" y="157" width="6" height="6"/>
        <rect x="25" y="157" width="6" height="6"/>
        <rect x="31" y="157" width="6" height="6"/>
        <rect x="37" y="157" width="6" height="6"/>
        <rect x="49" y="157" width="6" height="6"/>
        <rect x="61" y="157" width="6" height="6"/>
        <rect x="67" y="157" width="6" height="6"/>
        <rect x="73" y="157" width="6" height="6"/>
        <rect x="79" y="157" width="6" height="6"/>
        <rect x="97" y="157" width="6" height="6"/>
        <rect x="109" y="157" width="6" height="6"/>
        <rect x="115" y="157" width="6" height="6"/>
        <rect x="133" y="157" width="6" height="6"/>
        <rect x="139" y="157" width="6" height="6"/>
        <rect x="145" y="157" width="6" height="6"/>
        <rect x="151" y="157" width="6" height="6"/>
        <rect x="157" y="157" width="6" height="6"/>
        <rect x="175" y="157" width="6" height="6"/>
        <rect x="181" y="157" width="6" height="6"/>
        <rect x="13" y="163" width="6" height="6"/>
        <rect x="25" y="163" width="6" height="6"/>
        <rect x="31" y="163" width="6" height="6"/>
        <rect x="37" y="163" width="6" height="6"/>
        <rect x="49" y="163" width="6" height="6"/>
        <rect x="67" y="163" width="6" height="6"/>
        <rect x="79" y="163" width="6" height="6"/>
        <rect x="97" y="163" width="6" height="6"/>
        <rect x="109" y="163" width="6" height="6"/>
        <rect x="151" y="163" width="6" height="6"/>
        <rect x="157" y="163" width="6" height="6"/>
        <rect x="169" y="163" width="6" height="6"/>
        <rect x="175" y="163" width="6" height="6"/>
        <rect x="181" y="163" width="6" height="6"/>
        <rect x="13" y="169" width="6" height="6"/>
        <rect x="25" y="169" width="6" height="6"/>
        <rect x="31" y="169" width="6" height="6"/>
        <rect x="37" y="169" width="6" height="6"/>
        <rect x="49" y="169" width="6" height="6"/>
        <rect x="61" y="169" width="6" height="6"/>
        <rect x="67" y="169" width="6" height="6"/>
        <rect x="73" y="169" width="6" height="6"/>
        <rect x="91" y="169" width="6" height="6"/>
        <rect x="127" y="169" width="6" height="6"/>
        <rect x="133" y="169" width="6" height="6"/>
        <rect x="151" y="169" width="6" height="6"/>
        <rect x="157" y="169" width="6" height="6"/>
        <rect x="163" y="169" width="6" height="6"/>
        <rect x="181" y="169" width="6" height="6"/>
        <rect x="13" y="175" width="6" height="6"/>
        <rect x="49" y="175" width="6" height="6"/>
        <rect x="61" y="175" width="6" height="6"/>
        <rect x="79" y="175" width="6" height="6"/>
        <rect x="109" y="175" width="6" height="6"/>
        <rect x="115" y="175" width="6" height="6"/>
        <rect x="121" y="175" width="6" height="6"/>
        <rect x="133" y="175" width="6" height="6"/>
        <rect x="139" y="175" width="6" height="6"/>
        <rect x="151" y="175" width="6" height="6"/>
        <rect x="157" y="175" width="6" height="6"/>
        <rect x="175" y="175" width="6" height="6"/>
        <rect x="13" y="181" width="6" height="6"/>
        <rect x="19" y="181" width="6" height="6"/>
        <rect x="25" y="181" width="6" height="6"/>
        <rect x="31" y="181" width="6" height="6"/>
        <rect x="37" y="181" width="6" height="6"/>
        <rect x="43" y="181" width="6" height="6"/>
        <rect x="49" y="181" width="6" height="6"/>
        <rect x="61" y="181" width="6" height="6"/>
        <rect x="67" y="181" width="6" height="6"/>
        <rect x="85" y="181" width="6" height="6"/>
        <rect x="103" y="181" width="6" height="6"/>
        <rect x="109" y="181" width="6" height="6"/>
        <rect x="115" y="181" width="6" height="6"/>
        <rect x="121" y="181" width="6" height="6"/>
        <rect x="127" y="181" width="6" height="6"/>
        <rect x="133" y="181" width="6" height="6"/>
        <rect x="151" y="181" width="6" height="6"/>
        <rect x="175" y="181" width="6" height="6"/>
        <rect x="181" y="181" width="6" height="6"/>
    </g>
</svg>
