<?xml version="1.0" encoding="UTF-8" standalone="no"?>
<!DOCTYPE svg PUBLIC "-//W3C//DTD SVG 1.1//EN" "http://www.w3.org/Graphics/SVG/1.1/DTD/svg11.dtd">
<svg width="100%" height="100%" viewBox="0 0 1725 2623" version="1.1" xmlns="http://www.w3.org/2000/svg" xmlns:xlink="http://www.w3.org/1999/xlink" xml:space="preserve" xmlns:serif="http://www.serif.com/" style="fill-rule:evenodd;clip-rule:evenodd;stroke-linejoin:round;stroke-miterlimit:2;">
    <g transform="matrix(1,0,0,1,-1898.75,-39.2389)">
        <g transform="matrix(4.026,0,0,3.95936,1930.23,4.07755)">
            <g id="v2-Left-aligned-full-Nothingburger" serif:id="v2 Left aligned full Nothingburger">
                <g id="Front">
                    <g id="Front-Backpanel" serif:id="Front Backpanel" transform="matrix(0.234745,0,0,0.245322,-489.654,8.88057)">
                        <rect x="2052.6" y="0" width="1824.9" height="2700" style="fill:white;fill-opacity:0;"/>
                    </g>
                    <g transform="matrix(1.19315,0,0,1.19315,-89.7411,-379.032)">
                        <g id="Author">
                            <g transform="matrix(14.112,0,0,14.112,89.4898,864.126)">
                                <path d="M0.181,-0.443C0.198,-0.466 0.221,-0.485 0.25,-0.5C0.279,-0.514 0.309,-0.521 0.341,-0.521C0.4,-0.521 0.446,-0.497 0.479,-0.45C0.512,-0.402 0.529,-0.34 0.529,-0.262C0.529,-0.184 0.511,-0.118 0.476,-0.066C0.441,-0.013 0.394,0.013 0.335,0.013C0.303,0.013 0.274,0.005 0.246,-0.01C0.219,-0.026 0.197,-0.047 0.181,-0.073L0.181,-0L0.105,-0L0.105,-0.689L0.181,-0.689L0.181,-0.443ZM0.181,-0.367L0.181,-0.156C0.195,-0.127 0.215,-0.103 0.239,-0.084C0.264,-0.065 0.289,-0.055 0.315,-0.055C0.356,-0.055 0.389,-0.075 0.413,-0.114C0.437,-0.153 0.449,-0.201 0.449,-0.258C0.449,-0.316 0.438,-0.364 0.415,-0.4C0.391,-0.437 0.359,-0.455 0.318,-0.455C0.264,-0.455 0.219,-0.426 0.181,-0.367Z" style="fill-rule:nonzero;"/>
                            </g>
                            <g transform="matrix(14.112,0,0,14.112,97.6056,864.126)">
                                <path d="M0.52,-0.509L0.327,-0C0.299,0.075 0.271,0.127 0.244,0.157C0.216,0.186 0.185,0.201 0.15,0.201C0.119,0.201 0.088,0.195 0.057,0.184L0.07,0.123C0.095,0.131 0.117,0.135 0.136,0.135C0.164,0.135 0.186,0.124 0.204,0.103C0.221,0.082 0.239,0.047 0.257,-0.001L0.066,-0.509L0.149,-0.509L0.293,-0.103L0.437,-0.509L0.52,-0.509Z" style="fill-rule:nonzero;"/>
                            </g>
                            <g transform="matrix(14.112,0,0,14.112,113.837,864.126)">
                                <path d="M0.537,-0L0.461,-0L0.461,-0.334C0.461,-0.415 0.446,-0.455 0.416,-0.455C0.401,-0.455 0.384,-0.441 0.365,-0.413C0.347,-0.385 0.338,-0.37 0.338,-0.367L0.338,-0L0.262,-0L0.262,-0.334C0.262,-0.415 0.247,-0.455 0.217,-0.455C0.202,-0.455 0.185,-0.441 0.167,-0.413C0.148,-0.385 0.139,-0.37 0.139,-0.367L0.139,-0L0.063,-0L0.063,-0.509L0.136,-0.509L0.136,-0.432C0.151,-0.459 0.168,-0.481 0.187,-0.497C0.207,-0.513 0.227,-0.521 0.246,-0.521C0.267,-0.521 0.285,-0.513 0.301,-0.497C0.318,-0.481 0.329,-0.459 0.335,-0.432C0.349,-0.459 0.366,-0.481 0.386,-0.497C0.406,-0.513 0.426,-0.521 0.445,-0.521C0.506,-0.521 0.537,-0.466 0.537,-0.356L0.537,-0Z" style="fill-rule:nonzero;"/>
                            </g>
                            <g transform="matrix(14.112,0,0,14.112,121.953,864.126)">
                                <path d="M0.512,-0.252L0.163,-0.252C0.163,-0.194 0.18,-0.147 0.213,-0.109C0.247,-0.072 0.287,-0.053 0.336,-0.053C0.382,-0.053 0.43,-0.062 0.479,-0.078L0.492,-0.017C0.447,0.003 0.395,0.013 0.335,0.013C0.259,0.013 0.199,-0.011 0.152,-0.06C0.106,-0.108 0.083,-0.174 0.083,-0.256C0.083,-0.337 0.104,-0.401 0.145,-0.449C0.187,-0.497 0.24,-0.521 0.306,-0.521C0.365,-0.521 0.414,-0.499 0.453,-0.454C0.493,-0.41 0.512,-0.35 0.512,-0.276L0.512,-0.252ZM0.429,-0.314C0.429,-0.354 0.417,-0.387 0.392,-0.414C0.367,-0.441 0.34,-0.455 0.309,-0.455C0.27,-0.455 0.237,-0.442 0.211,-0.416C0.185,-0.39 0.171,-0.356 0.168,-0.314L0.429,-0.314Z" style="fill-rule:nonzero;"/>
                            </g>
                            <g transform="matrix(14.112,0,0,14.112,130.069,864.126)">
                                <path d="M0.497,-0L0.421,-0L0.421,-0.326C0.421,-0.371 0.414,-0.404 0.399,-0.425C0.385,-0.445 0.362,-0.455 0.331,-0.455C0.285,-0.455 0.235,-0.426 0.181,-0.368L0.181,-0L0.105,-0L0.105,-0.509L0.181,-0.509L0.181,-0.434C0.236,-0.492 0.293,-0.521 0.354,-0.521C0.449,-0.521 0.497,-0.463 0.497,-0.348L0.497,-0Z" style="fill-rule:nonzero;"/>
                            </g>
                            <g transform="matrix(14.112,0,0,14.112,138.184,864.126)">
                                <path d="M0.502,-0.023C0.451,0 0.401,0.012 0.351,0.012C0.26,0.012 0.215,-0.036 0.215,-0.132L0.215,-0.443L0.117,-0.443L0.117,-0.509L0.215,-0.509L0.215,-0.648L0.289,-0.648L0.289,-0.509L0.462,-0.509L0.462,-0.443L0.289,-0.443L0.289,-0.152C0.289,-0.121 0.296,-0.097 0.31,-0.08C0.323,-0.063 0.342,-0.054 0.365,-0.054C0.407,-0.054 0.448,-0.063 0.489,-0.082L0.502,-0.023Z" style="fill-rule:nonzero;"/>
                            </g>
                            <g transform="matrix(14.112,0,0,14.112,146.3,864.126)">
                                <path d="M0.3,-0.521C0.37,-0.521 0.425,-0.497 0.467,-0.448C0.508,-0.399 0.529,-0.335 0.529,-0.255C0.529,-0.174 0.508,-0.11 0.467,-0.061C0.425,-0.011 0.37,0.013 0.3,0.013C0.229,0.013 0.174,-0.011 0.133,-0.06C0.091,-0.109 0.071,-0.174 0.071,-0.255C0.071,-0.335 0.091,-0.399 0.133,-0.448C0.174,-0.497 0.23,-0.521 0.3,-0.521ZM0.3,-0.053C0.346,-0.053 0.382,-0.073 0.409,-0.112C0.436,-0.151 0.449,-0.198 0.449,-0.254C0.449,-0.313 0.436,-0.361 0.41,-0.398C0.383,-0.436 0.347,-0.455 0.3,-0.455C0.253,-0.455 0.216,-0.436 0.19,-0.399C0.164,-0.362 0.151,-0.313 0.151,-0.254C0.151,-0.197 0.164,-0.15 0.19,-0.111C0.217,-0.073 0.253,-0.053 0.3,-0.053Z" style="fill-rule:nonzero;"/>
                            </g>
                            <g transform="matrix(14.112,0,0,14.112,154.416,864.126)">
                                <path d="M0.505,-0.495L0.474,-0.422C0.441,-0.437 0.412,-0.444 0.387,-0.444C0.365,-0.444 0.343,-0.437 0.321,-0.425C0.3,-0.412 0.28,-0.393 0.262,-0.369C0.244,-0.345 0.235,-0.332 0.235,-0.329L0.235,-0L0.159,-0L0.159,-0.509L0.235,-0.509L0.235,-0.406C0.276,-0.483 0.328,-0.521 0.393,-0.521C0.431,-0.521 0.469,-0.512 0.505,-0.495Z" style="fill-rule:nonzero;"/>
                            </g>
                            <g transform="matrix(14.112,0,0,14.112,162.532,864.126)">
                                <path d="M0.297,-0.112C0.314,-0.112 0.329,-0.106 0.34,-0.094C0.352,-0.083 0.358,-0.068 0.358,-0.051C0.358,-0.033 0.352,-0.018 0.34,-0.006C0.328,0.007 0.314,0.013 0.297,0.013C0.28,0.013 0.266,0.007 0.254,-0.006C0.243,-0.018 0.237,-0.033 0.237,-0.051C0.237,-0.068 0.243,-0.083 0.254,-0.094C0.266,-0.106 0.28,-0.112 0.297,-0.112Z" style="fill-rule:nonzero;"/>
                            </g>
                            <g transform="matrix(14.112,0,0,14.112,170.648,864.126)">
                                <path d="M0.512,-0.252L0.163,-0.252C0.163,-0.194 0.18,-0.147 0.213,-0.109C0.247,-0.072 0.287,-0.053 0.336,-0.053C0.382,-0.053 0.43,-0.062 0.479,-0.078L0.492,-0.017C0.447,0.003 0.395,0.013 0.335,0.013C0.259,0.013 0.199,-0.011 0.152,-0.06C0.106,-0.108 0.083,-0.174 0.083,-0.256C0.083,-0.337 0.104,-0.401 0.145,-0.449C0.187,-0.497 0.24,-0.521 0.306,-0.521C0.365,-0.521 0.414,-0.499 0.453,-0.454C0.493,-0.41 0.512,-0.35 0.512,-0.276L0.512,-0.252ZM0.429,-0.314C0.429,-0.354 0.417,-0.387 0.392,-0.414C0.367,-0.441 0.34,-0.455 0.309,-0.455C0.27,-0.455 0.237,-0.442 0.211,-0.416C0.185,-0.39 0.171,-0.356 0.168,-0.314L0.429,-0.314Z" style="fill-rule:nonzero;"/>
                            </g>
                            <g transform="matrix(14.112,0,0,14.112,178.763,864.126)">
                                <path d="M0.502,-0.023C0.451,0 0.401,0.012 0.351,0.012C0.26,0.012 0.215,-0.036 0.215,-0.132L0.215,-0.443L0.117,-0.443L0.117,-0.509L0.215,-0.509L0.215,-0.648L0.289,-0.648L0.289,-0.509L0.462,-0.509L0.462,-0.443L0.289,-0.443L0.289,-0.152C0.289,-0.121 0.296,-0.097 0.31,-0.08C0.323,-0.063 0.342,-0.054 0.365,-0.054C0.407,-0.054 0.448,-0.063 0.489,-0.082L0.502,-0.023Z" style="fill-rule:nonzero;"/>
                            </g>
                            <g transform="matrix(14.112,0,0,14.112,186.879,864.126)">
                                <path d="M0.497,-0L0.421,-0L0.421,-0.326C0.421,-0.371 0.414,-0.404 0.399,-0.425C0.385,-0.445 0.362,-0.455 0.331,-0.455C0.285,-0.455 0.235,-0.426 0.181,-0.368L0.181,-0L0.105,-0L0.105,-0.689L0.181,-0.689L0.181,-0.434C0.236,-0.492 0.293,-0.521 0.354,-0.521C0.449,-0.521 0.497,-0.463 0.497,-0.348L0.497,-0Z" style="fill-rule:nonzero;"/>
                            </g>
                        </g>
                    </g>
                    <g id="Title" transform="matrix(0.892535,0,0,0.892535,3.27874,30.5476)">
                        <g id="Subtitle" transform="matrix(1,0,0,1,11.1317,16.9786)">
                            <g transform="matrix(0.24916,0,0,0.139109,-513.859,122.7)">
                                <rect x="2499.72" y="1234.23" width="767.883" height="15.489"/>
                            </g>
                            <g transform="matrix(0.278292,0,0,0.282976,-599.445,-313.347)">
                                <g id="Subtitle1" serif:id="Subtitle">
                                    <g transform="matrix(79.1667,0,0,79.1667,2120.82,1645.01)">
                                        <path d="M0.574,-0L0.49,-0L0.414,-0.241L0.188,-0.241L0.111,-0L0.028,-0L0.253,-0.689L0.349,-0.689L0.574,-0ZM0.391,-0.311L0.301,-0.596L0.211,-0.311L0.391,-0.311Z" style="fill-rule:nonzero;"/>
                                    </g>
                                    <g transform="matrix(79.1667,0,0,79.1667,2215.84,1645.01)">
                                        <path d="M0.502,-0.681L0.482,-0.619C0.446,-0.63 0.413,-0.635 0.385,-0.635C0.357,-0.635 0.339,-0.627 0.328,-0.612C0.318,-0.596 0.313,-0.565 0.313,-0.518L0.313,-0.509L0.484,-0.509L0.484,-0.443L0.313,-0.443L0.313,-0L0.237,-0L0.237,-0.443L0.109,-0.443L0.109,-0.509L0.237,-0.509L0.237,-0.526C0.237,-0.591 0.248,-0.636 0.27,-0.662C0.292,-0.688 0.33,-0.701 0.385,-0.701C0.42,-0.701 0.459,-0.694 0.502,-0.681Z" style="fill-rule:nonzero;"/>
                                    </g>
                                    <g transform="matrix(79.1667,0,0,79.1667,2263.34,1645.01)">
                                        <path d="M0.505,-0.495L0.474,-0.422C0.441,-0.437 0.412,-0.444 0.387,-0.444C0.365,-0.444 0.343,-0.437 0.321,-0.425C0.3,-0.412 0.28,-0.393 0.262,-0.369C0.244,-0.345 0.235,-0.332 0.235,-0.329L0.235,-0L0.159,-0L0.159,-0.509L0.235,-0.509L0.235,-0.406C0.276,-0.483 0.328,-0.521 0.393,-0.521C0.431,-0.521 0.469,-0.512 0.505,-0.495Z" style="fill-rule:nonzero;"/>
                                    </g>
                                    <g transform="matrix(79.1667,0,0,79.1667,2310.85,1645.01)">
                                        <path d="M0.51,-0L0.434,-0C0.428,-0.021 0.425,-0.048 0.425,-0.082C0.382,-0.019 0.323,0.013 0.248,0.013C0.21,0.013 0.177,-0 0.148,-0.027C0.119,-0.054 0.105,-0.089 0.105,-0.131C0.105,-0.156 0.11,-0.178 0.12,-0.197C0.13,-0.216 0.145,-0.233 0.165,-0.246C0.184,-0.259 0.208,-0.269 0.236,-0.277C0.264,-0.285 0.297,-0.29 0.335,-0.293L0.421,-0.3L0.421,-0.324C0.421,-0.411 0.38,-0.455 0.299,-0.455C0.28,-0.455 0.255,-0.451 0.226,-0.443C0.196,-0.434 0.171,-0.424 0.15,-0.413L0.13,-0.468C0.199,-0.503 0.264,-0.521 0.323,-0.521C0.439,-0.521 0.497,-0.46 0.497,-0.337L0.497,-0.118C0.497,-0.074 0.501,-0.035 0.51,-0ZM0.421,-0.151L0.421,-0.243C0.352,-0.237 0.305,-0.231 0.28,-0.226C0.254,-0.22 0.232,-0.21 0.213,-0.196C0.194,-0.181 0.185,-0.161 0.185,-0.136C0.185,-0.113 0.193,-0.095 0.209,-0.081C0.225,-0.067 0.245,-0.06 0.27,-0.06C0.297,-0.06 0.324,-0.068 0.351,-0.084C0.377,-0.1 0.401,-0.123 0.421,-0.151Z" style="fill-rule:nonzero;"/>
                                    </g>
                                    <g transform="matrix(79.1667,0,0,79.1667,2358.36,1645.01)">
                                        <path d="M0.537,-0L0.461,-0L0.461,-0.334C0.461,-0.415 0.446,-0.455 0.416,-0.455C0.401,-0.455 0.384,-0.441 0.365,-0.413C0.347,-0.385 0.338,-0.37 0.338,-0.367L0.338,-0L0.262,-0L0.262,-0.334C0.262,-0.415 0.247,-0.455 0.217,-0.455C0.202,-0.455 0.185,-0.441 0.167,-0.413C0.148,-0.385 0.139,-0.37 0.139,-0.367L0.139,-0L0.063,-0L0.063,-0.509L0.136,-0.509L0.136,-0.432C0.151,-0.459 0.168,-0.481 0.187,-0.497C0.207,-0.513 0.227,-0.521 0.246,-0.521C0.267,-0.521 0.285,-0.513 0.301,-0.497C0.318,-0.481 0.329,-0.459 0.335,-0.432C0.349,-0.459 0.366,-0.481 0.386,-0.497C0.406,-0.513 0.426,-0.521 0.445,-0.521C0.506,-0.521 0.537,-0.466 0.537,-0.356L0.537,-0Z" style="fill-rule:nonzero;"/>
                                    </g>
                                    <g transform="matrix(79.1667,0,0,79.1667,2405.87,1645.01)">
                                        <path d="M0.512,-0.252L0.163,-0.252C0.163,-0.194 0.18,-0.147 0.213,-0.109C0.247,-0.072 0.287,-0.053 0.336,-0.053C0.382,-0.053 0.43,-0.062 0.479,-0.078L0.492,-0.017C0.447,0.003 0.395,0.013 0.335,0.013C0.259,0.013 0.199,-0.011 0.152,-0.06C0.106,-0.108 0.083,-0.174 0.083,-0.256C0.083,-0.337 0.104,-0.401 0.145,-0.449C0.187,-0.497 0.24,-0.521 0.306,-0.521C0.365,-0.521 0.414,-0.499 0.453,-0.454C0.493,-0.41 0.512,-0.35 0.512,-0.276L0.512,-0.252ZM0.429,-0.314C0.429,-0.354 0.417,-0.387 0.392,-0.414C0.367,-0.441 0.34,-0.455 0.309,-0.455C0.27,-0.455 0.237,-0.442 0.211,-0.416C0.185,-0.39 0.171,-0.356 0.168,-0.314L0.429,-0.314Z" style="fill-rule:nonzero;"/>
                                    </g>
                                    <g transform="matrix(79.1667,0,0,79.1667,2453.38,1645.01)">
                                        <path d="M0.557,-0.509L0.484,-0L0.426,-0L0.306,-0.288L0.186,-0L0.128,-0L0.056,-0.509L0.132,-0.509C0.159,-0.271 0.173,-0.146 0.174,-0.135L0.267,-0.356L0.345,-0.356L0.438,-0.136L0.479,-0.509L0.557,-0.509Z" style="fill-rule:nonzero;"/>
                                    </g>
                                    <g transform="matrix(79.1667,0,0,79.1667,2500.88,1645.01)">
                                        <path d="M0.3,-0.521C0.37,-0.521 0.425,-0.497 0.467,-0.448C0.508,-0.399 0.529,-0.335 0.529,-0.255C0.529,-0.174 0.508,-0.11 0.467,-0.061C0.425,-0.011 0.37,0.013 0.3,0.013C0.229,0.013 0.174,-0.011 0.133,-0.06C0.091,-0.109 0.071,-0.174 0.071,-0.255C0.071,-0.335 0.091,-0.399 0.133,-0.448C0.174,-0.497 0.23,-0.521 0.3,-0.521ZM0.3,-0.053C0.346,-0.053 0.382,-0.073 0.409,-0.112C0.436,-0.151 0.449,-0.198 0.449,-0.254C0.449,-0.313 0.436,-0.361 0.41,-0.398C0.383,-0.436 0.347,-0.455 0.3,-0.455C0.253,-0.455 0.216,-0.436 0.19,-0.399C0.164,-0.362 0.151,-0.313 0.151,-0.254C0.151,-0.197 0.164,-0.15 0.19,-0.111C0.217,-0.073 0.253,-0.053 0.3,-0.053Z" style="fill-rule:nonzero;"/>
                                    </g>
                                    <g transform="matrix(79.1667,0,0,79.1667,2548.39,1645.01)">
                                        <path d="M0.505,-0.495L0.474,-0.422C0.441,-0.437 0.412,-0.444 0.387,-0.444C0.365,-0.444 0.343,-0.437 0.321,-0.425C0.3,-0.412 0.28,-0.393 0.262,-0.369C0.244,-0.345 0.235,-0.332 0.235,-0.329L0.235,-0L0.159,-0L0.159,-0.509L0.235,-0.509L0.235,-0.406C0.276,-0.483 0.328,-0.521 0.393,-0.521C0.431,-0.521 0.469,-0.512 0.505,-0.495Z" style="fill-rule:nonzero;"/>
                                    </g>
                                    <g transform="matrix(79.1667,0,0,79.1667,2595.9,1645.01)">
                                        <path d="M0.547,-0L0.447,-0L0.231,-0.253L0.181,-0.21L0.181,-0L0.105,-0L0.105,-0.689L0.181,-0.689L0.181,-0.294L0.42,-0.509L0.517,-0.509L0.285,-0.301L0.547,-0Z" style="fill-rule:nonzero;"/>
                                    </g>
                                    <g transform="matrix(79.1667,0,0,79.1667,2690.91,1645.01)">
                                        <path d="M0.502,-0.681L0.482,-0.619C0.446,-0.63 0.413,-0.635 0.385,-0.635C0.357,-0.635 0.339,-0.627 0.328,-0.612C0.318,-0.596 0.313,-0.565 0.313,-0.518L0.313,-0.509L0.484,-0.509L0.484,-0.443L0.313,-0.443L0.313,-0L0.237,-0L0.237,-0.443L0.109,-0.443L0.109,-0.509L0.237,-0.509L0.237,-0.526C0.237,-0.591 0.248,-0.636 0.27,-0.662C0.292,-0.688 0.33,-0.701 0.385,-0.701C0.42,-0.701 0.459,-0.694 0.502,-0.681Z" style="fill-rule:nonzero;"/>
                                    </g>
                                    <g transform="matrix(79.1667,0,0,79.1667,2738.42,1645.01)">
                                        <path d="M0.3,-0.521C0.37,-0.521 0.425,-0.497 0.467,-0.448C0.508,-0.399 0.529,-0.335 0.529,-0.255C0.529,-0.174 0.508,-0.11 0.467,-0.061C0.425,-0.011 0.37,0.013 0.3,0.013C0.229,0.013 0.174,-0.011 0.133,-0.06C0.091,-0.109 0.071,-0.174 0.071,-0.255C0.071,-0.335 0.091,-0.399 0.133,-0.448C0.174,-0.497 0.23,-0.521 0.3,-0.521ZM0.3,-0.053C0.346,-0.053 0.382,-0.073 0.409,-0.112C0.436,-0.151 0.449,-0.198 0.449,-0.254C0.449,-0.313 0.436,-0.361 0.41,-0.398C0.383,-0.436 0.347,-0.455 0.3,-0.455C0.253,-0.455 0.216,-0.436 0.19,-0.399C0.164,-0.362 0.151,-0.313 0.151,-0.254C0.151,-0.197 0.164,-0.15 0.19,-0.111C0.217,-0.073 0.253,-0.053 0.3,-0.053Z" style="fill-rule:nonzero;"/>
                                    </g>
                                    <g transform="matrix(79.1667,0,0,79.1667,2785.93,1645.01)">
                                        <path d="M0.505,-0.495L0.474,-0.422C0.441,-0.437 0.412,-0.444 0.387,-0.444C0.365,-0.444 0.343,-0.437 0.321,-0.425C0.3,-0.412 0.28,-0.393 0.262,-0.369C0.244,-0.345 0.235,-0.332 0.235,-0.329L0.235,-0L0.159,-0L0.159,-0.509L0.235,-0.509L0.235,-0.406C0.276,-0.483 0.328,-0.521 0.393,-0.521C0.431,-0.521 0.469,-0.512 0.505,-0.495Z" style="fill-rule:nonzero;"/>
                                    </g>
                                    <g transform="matrix(79.1667,0,0,79.1667,2880.95,1645.01)">
                                        <path d="M0.496,-0L0.42,-0L0.42,-0.075C0.365,-0.017 0.308,0.012 0.247,0.012C0.152,0.012 0.104,-0.046 0.104,-0.161L0.104,-0.509L0.18,-0.509L0.18,-0.183C0.18,-0.14 0.187,-0.108 0.201,-0.086C0.214,-0.065 0.237,-0.054 0.27,-0.054C0.317,-0.054 0.367,-0.083 0.42,-0.141L0.42,-0.509L0.496,-0.509L0.496,-0Z" style="fill-rule:nonzero;"/>
                                    </g>
                                    <g transform="matrix(79.1667,0,0,79.1667,2928.45,1645.01)">
                                        <path d="M0.497,-0L0.421,-0L0.421,-0.326C0.421,-0.371 0.414,-0.404 0.399,-0.425C0.385,-0.445 0.362,-0.455 0.331,-0.455C0.285,-0.455 0.235,-0.426 0.181,-0.368L0.181,-0L0.105,-0L0.105,-0.509L0.181,-0.509L0.181,-0.434C0.236,-0.492 0.293,-0.521 0.354,-0.521C0.449,-0.521 0.497,-0.463 0.497,-0.348L0.497,-0Z" style="fill-rule:nonzero;"/>
                                    </g>
                                    <g transform="matrix(79.1667,0,0,79.1667,2975.96,1645.01)">
                                        <path d="M0.495,-0L0.419,-0L0.419,-0.073C0.403,-0.048 0.381,-0.028 0.352,-0.011C0.323,0.005 0.292,0.013 0.26,0.013C0.201,0.013 0.155,-0.013 0.122,-0.065C0.088,-0.117 0.071,-0.182 0.071,-0.262C0.071,-0.337 0.088,-0.399 0.124,-0.448C0.159,-0.497 0.206,-0.521 0.264,-0.521C0.328,-0.521 0.38,-0.495 0.419,-0.443L0.419,-0.689L0.495,-0.689L0.495,-0ZM0.419,-0.156L0.419,-0.367C0.382,-0.426 0.339,-0.455 0.287,-0.455C0.245,-0.455 0.212,-0.436 0.188,-0.399C0.163,-0.362 0.151,-0.315 0.151,-0.258C0.151,-0.199 0.162,-0.151 0.185,-0.113C0.208,-0.074 0.24,-0.055 0.28,-0.055C0.299,-0.055 0.318,-0.06 0.338,-0.071C0.357,-0.081 0.376,-0.097 0.393,-0.118C0.41,-0.139 0.419,-0.151 0.419,-0.156Z" style="fill-rule:nonzero;"/>
                                    </g>
                                    <g transform="matrix(79.1667,0,0,79.1667,3023.47,1645.01)">
                                        <path d="M0.512,-0.252L0.163,-0.252C0.163,-0.194 0.18,-0.147 0.213,-0.109C0.247,-0.072 0.287,-0.053 0.336,-0.053C0.382,-0.053 0.43,-0.062 0.479,-0.078L0.492,-0.017C0.447,0.003 0.395,0.013 0.335,0.013C0.259,0.013 0.199,-0.011 0.152,-0.06C0.106,-0.108 0.083,-0.174 0.083,-0.256C0.083,-0.337 0.104,-0.401 0.145,-0.449C0.187,-0.497 0.24,-0.521 0.306,-0.521C0.365,-0.521 0.414,-0.499 0.453,-0.454C0.493,-0.41 0.512,-0.35 0.512,-0.276L0.512,-0.252ZM0.429,-0.314C0.429,-0.354 0.417,-0.387 0.392,-0.414C0.367,-0.441 0.34,-0.455 0.309,-0.455C0.27,-0.455 0.237,-0.442 0.211,-0.416C0.185,-0.39 0.171,-0.356 0.168,-0.314L0.429,-0.314Z" style="fill-rule:nonzero;"/>
                                    </g>
                                    <g transform="matrix(79.1667,0,0,79.1667,3070.98,1645.01)">
                                        <path d="M0.505,-0.495L0.474,-0.422C0.441,-0.437 0.412,-0.444 0.387,-0.444C0.365,-0.444 0.343,-0.437 0.321,-0.425C0.3,-0.412 0.28,-0.393 0.262,-0.369C0.244,-0.345 0.235,-0.332 0.235,-0.329L0.235,-0L0.159,-0L0.159,-0.509L0.235,-0.509L0.235,-0.406C0.276,-0.483 0.328,-0.521 0.393,-0.521C0.431,-0.521 0.469,-0.512 0.505,-0.495Z" style="fill-rule:nonzero;"/>
                                    </g>
                                    <g transform="matrix(79.1667,0,0,79.1667,3118.48,1645.01)">
                                        <path d="M0.444,-0.436C0.401,-0.45 0.361,-0.457 0.323,-0.457C0.282,-0.457 0.249,-0.45 0.225,-0.436C0.201,-0.422 0.189,-0.404 0.189,-0.381C0.189,-0.366 0.194,-0.353 0.206,-0.343C0.217,-0.332 0.239,-0.321 0.272,-0.312L0.345,-0.291C0.378,-0.282 0.406,-0.27 0.427,-0.257C0.448,-0.244 0.464,-0.228 0.474,-0.209C0.485,-0.191 0.49,-0.169 0.49,-0.144C0.49,-0.096 0.47,-0.057 0.429,-0.029C0.389,-0.001 0.337,0.013 0.274,0.013C0.211,0.013 0.16,0.004 0.119,-0.015L0.134,-0.081C0.176,-0.061 0.222,-0.051 0.271,-0.051C0.313,-0.051 0.348,-0.059 0.374,-0.074C0.401,-0.09 0.414,-0.111 0.414,-0.137C0.414,-0.155 0.407,-0.17 0.394,-0.184C0.381,-0.198 0.35,-0.213 0.301,-0.228C0.262,-0.24 0.233,-0.249 0.214,-0.255C0.196,-0.261 0.179,-0.27 0.163,-0.281C0.147,-0.293 0.135,-0.307 0.126,-0.323C0.118,-0.34 0.114,-0.358 0.114,-0.378C0.114,-0.422 0.133,-0.457 0.171,-0.482C0.21,-0.508 0.261,-0.521 0.324,-0.521C0.365,-0.521 0.411,-0.514 0.461,-0.5L0.444,-0.436Z" style="fill-rule:nonzero;"/>
                                    </g>
                                    <g transform="matrix(79.1667,0,0,79.1667,3165.99,1645.01)">
                                        <path d="M0.502,-0.023C0.451,0 0.401,0.012 0.351,0.012C0.26,0.012 0.215,-0.036 0.215,-0.132L0.215,-0.443L0.117,-0.443L0.117,-0.509L0.215,-0.509L0.215,-0.648L0.289,-0.648L0.289,-0.509L0.462,-0.509L0.462,-0.443L0.289,-0.443L0.289,-0.152C0.289,-0.121 0.296,-0.097 0.31,-0.08C0.323,-0.063 0.342,-0.054 0.365,-0.054C0.407,-0.054 0.448,-0.063 0.489,-0.082L0.502,-0.023Z" style="fill-rule:nonzero;"/>
                                    </g>
                                    <g transform="matrix(79.1667,0,0,79.1667,3213.5,1645.01)">
                                        <path d="M0.51,-0L0.434,-0C0.428,-0.021 0.425,-0.048 0.425,-0.082C0.382,-0.019 0.323,0.013 0.248,0.013C0.21,0.013 0.177,-0 0.148,-0.027C0.119,-0.054 0.105,-0.089 0.105,-0.131C0.105,-0.156 0.11,-0.178 0.12,-0.197C0.13,-0.216 0.145,-0.233 0.165,-0.246C0.184,-0.259 0.208,-0.269 0.236,-0.277C0.264,-0.285 0.297,-0.29 0.335,-0.293L0.421,-0.3L0.421,-0.324C0.421,-0.411 0.38,-0.455 0.299,-0.455C0.28,-0.455 0.255,-0.451 0.226,-0.443C0.196,-0.434 0.171,-0.424 0.15,-0.413L0.13,-0.468C0.199,-0.503 0.264,-0.521 0.323,-0.521C0.439,-0.521 0.497,-0.46 0.497,-0.337L0.497,-0.118C0.497,-0.074 0.501,-0.035 0.51,-0ZM0.421,-0.151L0.421,-0.243C0.352,-0.237 0.305,-0.231 0.28,-0.226C0.254,-0.22 0.232,-0.21 0.213,-0.196C0.194,-0.181 0.185,-0.161 0.185,-0.136C0.185,-0.113 0.193,-0.095 0.209,-0.081C0.225,-0.067 0.245,-0.06 0.27,-0.06C0.297,-0.06 0.324,-0.068 0.351,-0.084C0.377,-0.1 0.401,-0.123 0.421,-0.151Z" style="fill-rule:nonzero;"/>
                                    </g>
                                    <g transform="matrix(79.1667,0,0,79.1667,3261.01,1645.01)">
                                        <path d="M0.497,-0L0.421,-0L0.421,-0.326C0.421,-0.371 0.414,-0.404 0.399,-0.425C0.385,-0.445 0.362,-0.455 0.331,-0.455C0.285,-0.455 0.235,-0.426 0.181,-0.368L0.181,-0L0.105,-0L0.105,-0.509L0.181,-0.509L0.181,-0.434C0.236,-0.492 0.293,-0.521 0.354,-0.521C0.449,-0.521 0.497,-0.463 0.497,-0.348L0.497,-0Z" style="fill-rule:nonzero;"/>
                                    </g>
                                    <g transform="matrix(79.1667,0,0,79.1667,3308.51,1645.01)">
                                        <path d="M0.495,-0L0.419,-0L0.419,-0.073C0.403,-0.048 0.381,-0.028 0.352,-0.011C0.323,0.005 0.292,0.013 0.26,0.013C0.201,0.013 0.155,-0.013 0.122,-0.065C0.088,-0.117 0.071,-0.182 0.071,-0.262C0.071,-0.337 0.088,-0.399 0.124,-0.448C0.159,-0.497 0.206,-0.521 0.264,-0.521C0.328,-0.521 0.38,-0.495 0.419,-0.443L0.419,-0.689L0.495,-0.689L0.495,-0ZM0.419,-0.156L0.419,-0.367C0.382,-0.426 0.339,-0.455 0.287,-0.455C0.245,-0.455 0.212,-0.436 0.188,-0.399C0.163,-0.362 0.151,-0.315 0.151,-0.258C0.151,-0.199 0.162,-0.151 0.185,-0.113C0.208,-0.074 0.24,-0.055 0.28,-0.055C0.299,-0.055 0.318,-0.06 0.338,-0.071C0.357,-0.081 0.376,-0.097 0.393,-0.118C0.41,-0.139 0.419,-0.151 0.419,-0.156Z" style="fill-rule:nonzero;"/>
                                    </g>
                                    <g transform="matrix(79.1667,0,0,79.1667,3356.02,1645.01)">
                                        <path d="M0.333,-0.701C0.347,-0.701 0.36,-0.696 0.37,-0.686C0.38,-0.676 0.385,-0.663 0.385,-0.649C0.385,-0.634 0.38,-0.621 0.37,-0.611C0.36,-0.601 0.348,-0.596 0.333,-0.596C0.32,-0.596 0.308,-0.601 0.298,-0.612C0.287,-0.623 0.282,-0.635 0.282,-0.649C0.282,-0.663 0.287,-0.675 0.298,-0.686C0.308,-0.696 0.32,-0.701 0.333,-0.701ZM0.37,-0L0.294,-0L0.294,-0.443L0.144,-0.443L0.144,-0.509L0.37,-0.509L0.37,-0Z" style="fill-rule:nonzero;"/>
                                    </g>
                                    <g transform="matrix(79.1667,0,0,79.1667,3403.53,1645.01)">
                                        <path d="M0.497,-0L0.421,-0L0.421,-0.326C0.421,-0.371 0.414,-0.404 0.399,-0.425C0.385,-0.445 0.362,-0.455 0.331,-0.455C0.285,-0.455 0.235,-0.426 0.181,-0.368L0.181,-0L0.105,-0L0.105,-0.509L0.181,-0.509L0.181,-0.434C0.236,-0.492 0.293,-0.521 0.354,-0.521C0.449,-0.521 0.497,-0.463 0.497,-0.348L0.497,-0Z" style="fill-rule:nonzero;"/>
                                    </g>
                                    <g transform="matrix(79.1667,0,0,79.1667,3451.04,1645.01)">
                                        <path d="M0.246,-0.192C0.199,-0.169 0.175,-0.148 0.175,-0.131C0.175,-0.121 0.18,-0.113 0.191,-0.107C0.202,-0.1 0.217,-0.097 0.236,-0.097L0.407,-0.102C0.448,-0.102 0.48,-0.092 0.502,-0.072C0.525,-0.052 0.536,-0.024 0.536,0.012C0.536,0.07 0.51,0.116 0.459,0.15C0.408,0.184 0.347,0.201 0.279,0.201C0.222,0.201 0.176,0.189 0.141,0.166C0.105,0.142 0.087,0.112 0.087,0.074C0.087,0.034 0.115,-0.001 0.17,-0.029C0.124,-0.05 0.101,-0.077 0.101,-0.108C0.101,-0.144 0.131,-0.177 0.19,-0.208C0.163,-0.225 0.142,-0.246 0.127,-0.272C0.112,-0.299 0.105,-0.327 0.105,-0.356C0.105,-0.404 0.121,-0.443 0.154,-0.474C0.186,-0.505 0.227,-0.52 0.276,-0.52C0.311,-0.52 0.343,-0.513 0.371,-0.498L0.522,-0.521L0.522,-0.447L0.425,-0.447C0.439,-0.421 0.447,-0.391 0.447,-0.356C0.447,-0.31 0.431,-0.271 0.398,-0.239C0.366,-0.207 0.325,-0.191 0.276,-0.191C0.265,-0.191 0.256,-0.191 0.246,-0.192ZM0.276,-0.25C0.304,-0.25 0.327,-0.26 0.344,-0.279C0.362,-0.298 0.371,-0.324 0.371,-0.355C0.371,-0.388 0.362,-0.414 0.345,-0.432C0.328,-0.451 0.305,-0.46 0.276,-0.46C0.249,-0.46 0.226,-0.45 0.208,-0.431C0.189,-0.412 0.18,-0.386 0.18,-0.355C0.18,-0.324 0.189,-0.299 0.208,-0.28C0.226,-0.26 0.249,-0.25 0.276,-0.25ZM0.279,0.142C0.329,0.142 0.372,0.131 0.407,0.109C0.442,0.086 0.46,0.059 0.46,0.026C0.46,-0.008 0.435,-0.025 0.385,-0.025C0.368,-0.025 0.34,-0.024 0.299,-0.022C0.273,-0.021 0.253,-0.02 0.238,-0.02C0.231,-0.02 0.22,-0.014 0.205,-0.002C0.19,0.009 0.178,0.021 0.17,0.033C0.162,0.045 0.158,0.057 0.158,0.07C0.158,0.09 0.169,0.107 0.191,0.121C0.214,0.135 0.243,0.142 0.279,0.142Z" style="fill-rule:nonzero;"/>
                                    </g>
                                    <g transform="matrix(79.1667,0,0,79.1667,3546.05,1645.01)">
                                        <path d="M0.502,-0.023C0.451,0 0.401,0.012 0.351,0.012C0.26,0.012 0.215,-0.036 0.215,-0.132L0.215,-0.443L0.117,-0.443L0.117,-0.509L0.215,-0.509L0.215,-0.648L0.289,-0.648L0.289,-0.509L0.462,-0.509L0.462,-0.443L0.289,-0.443L0.289,-0.152C0.289,-0.121 0.296,-0.097 0.31,-0.08C0.323,-0.063 0.342,-0.054 0.365,-0.054C0.407,-0.054 0.448,-0.063 0.489,-0.082L0.502,-0.023Z" style="fill-rule:nonzero;"/>
                                    </g>
                                    <g transform="matrix(79.1667,0,0,79.1667,3593.56,1645.01)">
                                        <path d="M0.497,-0L0.421,-0L0.421,-0.326C0.421,-0.371 0.414,-0.404 0.399,-0.425C0.385,-0.445 0.362,-0.455 0.331,-0.455C0.285,-0.455 0.235,-0.426 0.181,-0.368L0.181,-0L0.105,-0L0.105,-0.689L0.181,-0.689L0.181,-0.434C0.236,-0.492 0.293,-0.521 0.354,-0.521C0.449,-0.521 0.497,-0.463 0.497,-0.348L0.497,-0Z" style="fill-rule:nonzero;"/>
                                    </g>
                                    <g transform="matrix(79.1667,0,0,79.1667,3641.07,1645.01)">
                                        <path d="M0.512,-0.252L0.163,-0.252C0.163,-0.194 0.18,-0.147 0.213,-0.109C0.247,-0.072 0.287,-0.053 0.336,-0.053C0.382,-0.053 0.43,-0.062 0.479,-0.078L0.492,-0.017C0.447,0.003 0.395,0.013 0.335,0.013C0.259,0.013 0.199,-0.011 0.152,-0.06C0.106,-0.108 0.083,-0.174 0.083,-0.256C0.083,-0.337 0.104,-0.401 0.145,-0.449C0.187,-0.497 0.24,-0.521 0.306,-0.521C0.365,-0.521 0.414,-0.499 0.453,-0.454C0.493,-0.41 0.512,-0.35 0.512,-0.276L0.512,-0.252ZM0.429,-0.314C0.429,-0.354 0.417,-0.387 0.392,-0.414C0.367,-0.441 0.34,-0.455 0.309,-0.455C0.27,-0.455 0.237,-0.442 0.211,-0.416C0.185,-0.39 0.171,-0.356 0.168,-0.314L0.429,-0.314Z" style="fill-rule:nonzero;"/>
                                    </g>
                                    <g transform="matrix(79.1667,0,0,79.1667,2120.82,1761.68)">
                                        <path d="M0.46,-0L0.252,-0L0.252,-0.623L0.119,-0.623L0.119,-0.689L0.328,-0.689L0.328,-0.066L0.46,-0.066L0.46,-0Z" style="fill-rule:nonzero;"/>
                                    </g>
                                    <g transform="matrix(79.1667,0,0,79.1667,2168.33,1761.68)">
                                        <path d="M0.333,-0.701C0.347,-0.701 0.36,-0.696 0.37,-0.686C0.38,-0.676 0.385,-0.663 0.385,-0.649C0.385,-0.634 0.38,-0.621 0.37,-0.611C0.36,-0.601 0.348,-0.596 0.333,-0.596C0.32,-0.596 0.308,-0.601 0.298,-0.612C0.287,-0.623 0.282,-0.635 0.282,-0.649C0.282,-0.663 0.287,-0.675 0.298,-0.686C0.308,-0.696 0.32,-0.701 0.333,-0.701ZM0.37,-0L0.294,-0L0.294,-0.443L0.144,-0.443L0.144,-0.509L0.37,-0.509L0.37,-0Z" style="fill-rule:nonzero;"/>
                                    </g>
                                    <g transform="matrix(79.1667,0,0,79.1667,2215.84,1761.68)">
                                        <path d="M0.537,-0L0.461,-0L0.461,-0.334C0.461,-0.415 0.446,-0.455 0.416,-0.455C0.401,-0.455 0.384,-0.441 0.365,-0.413C0.347,-0.385 0.338,-0.37 0.338,-0.367L0.338,-0L0.262,-0L0.262,-0.334C0.262,-0.415 0.247,-0.455 0.217,-0.455C0.202,-0.455 0.185,-0.441 0.167,-0.413C0.148,-0.385 0.139,-0.37 0.139,-0.367L0.139,-0L0.063,-0L0.063,-0.509L0.136,-0.509L0.136,-0.432C0.151,-0.459 0.168,-0.481 0.187,-0.497C0.207,-0.513 0.227,-0.521 0.246,-0.521C0.267,-0.521 0.285,-0.513 0.301,-0.497C0.318,-0.481 0.329,-0.459 0.335,-0.432C0.349,-0.459 0.366,-0.481 0.386,-0.497C0.406,-0.513 0.426,-0.521 0.445,-0.521C0.506,-0.521 0.537,-0.466 0.537,-0.356L0.537,-0Z" style="fill-rule:nonzero;"/>
                                    </g>
                                    <g transform="matrix(79.1667,0,0,79.1667,2263.34,1761.68)">
                                        <path d="M0.333,-0.701C0.347,-0.701 0.36,-0.696 0.37,-0.686C0.38,-0.676 0.385,-0.663 0.385,-0.649C0.385,-0.634 0.38,-0.621 0.37,-0.611C0.36,-0.601 0.348,-0.596 0.333,-0.596C0.32,-0.596 0.308,-0.601 0.298,-0.612C0.287,-0.623 0.282,-0.635 0.282,-0.649C0.282,-0.663 0.287,-0.675 0.298,-0.686C0.308,-0.696 0.32,-0.701 0.333,-0.701ZM0.37,-0L0.294,-0L0.294,-0.443L0.144,-0.443L0.144,-0.509L0.37,-0.509L0.37,-0Z" style="fill-rule:nonzero;"/>
                                    </g>
                                    <g transform="matrix(79.1667,0,0,79.1667,2310.85,1761.68)">
                                        <path d="M0.502,-0.023C0.451,0 0.401,0.012 0.351,0.012C0.26,0.012 0.215,-0.036 0.215,-0.132L0.215,-0.443L0.117,-0.443L0.117,-0.509L0.215,-0.509L0.215,-0.648L0.289,-0.648L0.289,-0.509L0.462,-0.509L0.462,-0.443L0.289,-0.443L0.289,-0.152C0.289,-0.121 0.296,-0.097 0.31,-0.08C0.323,-0.063 0.342,-0.054 0.365,-0.054C0.407,-0.054 0.448,-0.063 0.489,-0.082L0.502,-0.023Z" style="fill-rule:nonzero;"/>
                                    </g>
                                    <g transform="matrix(79.1667,0,0,79.1667,2358.36,1761.68)">
                                        <path d="M0.512,-0.252L0.163,-0.252C0.163,-0.194 0.18,-0.147 0.213,-0.109C0.247,-0.072 0.287,-0.053 0.336,-0.053C0.382,-0.053 0.43,-0.062 0.479,-0.078L0.492,-0.017C0.447,0.003 0.395,0.013 0.335,0.013C0.259,0.013 0.199,-0.011 0.152,-0.06C0.106,-0.108 0.083,-0.174 0.083,-0.256C0.083,-0.337 0.104,-0.401 0.145,-0.449C0.187,-0.497 0.24,-0.521 0.306,-0.521C0.365,-0.521 0.414,-0.499 0.453,-0.454C0.493,-0.41 0.512,-0.35 0.512,-0.276L0.512,-0.252ZM0.429,-0.314C0.429,-0.354 0.417,-0.387 0.392,-0.414C0.367,-0.441 0.34,-0.455 0.309,-0.455C0.27,-0.455 0.237,-0.442 0.211,-0.416C0.185,-0.39 0.171,-0.356 0.168,-0.314L0.429,-0.314Z" style="fill-rule:nonzero;"/>
                                    </g>
                                    <g transform="matrix(79.1667,0,0,79.1667,2405.87,1761.68)">
                                        <path d="M0.495,-0L0.419,-0L0.419,-0.073C0.403,-0.048 0.381,-0.028 0.352,-0.011C0.323,0.005 0.292,0.013 0.26,0.013C0.201,0.013 0.155,-0.013 0.122,-0.065C0.088,-0.117 0.071,-0.182 0.071,-0.262C0.071,-0.337 0.088,-0.399 0.124,-0.448C0.159,-0.497 0.206,-0.521 0.264,-0.521C0.328,-0.521 0.38,-0.495 0.419,-0.443L0.419,-0.689L0.495,-0.689L0.495,-0ZM0.419,-0.156L0.419,-0.367C0.382,-0.426 0.339,-0.455 0.287,-0.455C0.245,-0.455 0.212,-0.436 0.188,-0.399C0.163,-0.362 0.151,-0.315 0.151,-0.258C0.151,-0.199 0.162,-0.151 0.185,-0.113C0.208,-0.074 0.24,-0.055 0.28,-0.055C0.299,-0.055 0.318,-0.06 0.338,-0.071C0.357,-0.081 0.376,-0.097 0.393,-0.118C0.41,-0.139 0.419,-0.151 0.419,-0.156Z" style="fill-rule:nonzero;"/>
                                    </g>
                                    <g transform="matrix(79.1667,0,0,79.1667,2500.88,1761.68)">
                                        <path d="M0.496,-0L0.42,-0L0.42,-0.075C0.365,-0.017 0.308,0.012 0.247,0.012C0.152,0.012 0.104,-0.046 0.104,-0.161L0.104,-0.509L0.18,-0.509L0.18,-0.183C0.18,-0.14 0.187,-0.108 0.201,-0.086C0.214,-0.065 0.237,-0.054 0.27,-0.054C0.317,-0.054 0.367,-0.083 0.42,-0.141L0.42,-0.509L0.496,-0.509L0.496,-0Z" style="fill-rule:nonzero;"/>
                                    </g>
                                    <g transform="matrix(79.1667,0,0,79.1667,2548.39,1761.68)">
                                        <path d="M0.444,-0.436C0.401,-0.45 0.361,-0.457 0.323,-0.457C0.282,-0.457 0.249,-0.45 0.225,-0.436C0.201,-0.422 0.189,-0.404 0.189,-0.381C0.189,-0.366 0.194,-0.353 0.206,-0.343C0.217,-0.332 0.239,-0.321 0.272,-0.312L0.345,-0.291C0.378,-0.282 0.406,-0.27 0.427,-0.257C0.448,-0.244 0.464,-0.228 0.474,-0.209C0.485,-0.191 0.49,-0.169 0.49,-0.144C0.49,-0.096 0.47,-0.057 0.429,-0.029C0.389,-0.001 0.337,0.013 0.274,0.013C0.211,0.013 0.16,0.004 0.119,-0.015L0.134,-0.081C0.176,-0.061 0.222,-0.051 0.271,-0.051C0.313,-0.051 0.348,-0.059 0.374,-0.074C0.401,-0.09 0.414,-0.111 0.414,-0.137C0.414,-0.155 0.407,-0.17 0.394,-0.184C0.381,-0.198 0.35,-0.213 0.301,-0.228C0.262,-0.24 0.233,-0.249 0.214,-0.255C0.196,-0.261 0.179,-0.27 0.163,-0.281C0.147,-0.293 0.135,-0.307 0.126,-0.323C0.118,-0.34 0.114,-0.358 0.114,-0.378C0.114,-0.422 0.133,-0.457 0.171,-0.482C0.21,-0.508 0.261,-0.521 0.324,-0.521C0.365,-0.521 0.411,-0.514 0.461,-0.5L0.444,-0.436Z" style="fill-rule:nonzero;"/>
                                    </g>
                                    <g transform="matrix(79.1667,0,0,79.1667,2595.9,1761.68)">
                                        <path d="M0.512,-0.252L0.163,-0.252C0.163,-0.194 0.18,-0.147 0.213,-0.109C0.247,-0.072 0.287,-0.053 0.336,-0.053C0.382,-0.053 0.43,-0.062 0.479,-0.078L0.492,-0.017C0.447,0.003 0.395,0.013 0.335,0.013C0.259,0.013 0.199,-0.011 0.152,-0.06C0.106,-0.108 0.083,-0.174 0.083,-0.256C0.083,-0.337 0.104,-0.401 0.145,-0.449C0.187,-0.497 0.24,-0.521 0.306,-0.521C0.365,-0.521 0.414,-0.499 0.453,-0.454C0.493,-0.41 0.512,-0.35 0.512,-0.276L0.512,-0.252ZM0.429,-0.314C0.429,-0.354 0.417,-0.387 0.392,-0.414C0.367,-0.441 0.34,-0.455 0.309,-0.455C0.27,-0.455 0.237,-0.442 0.211,-0.416C0.185,-0.39 0.171,-0.356 0.168,-0.314L0.429,-0.314Z" style="fill-rule:nonzero;"/>
                                    </g>
                                    <g transform="matrix(79.1667,0,0,79.1667,2643.41,1761.68)">
                                        <path d="M0.444,-0.436C0.401,-0.45 0.361,-0.457 0.323,-0.457C0.282,-0.457 0.249,-0.45 0.225,-0.436C0.201,-0.422 0.189,-0.404 0.189,-0.381C0.189,-0.366 0.194,-0.353 0.206,-0.343C0.217,-0.332 0.239,-0.321 0.272,-0.312L0.345,-0.291C0.378,-0.282 0.406,-0.27 0.427,-0.257C0.448,-0.244 0.464,-0.228 0.474,-0.209C0.485,-0.191 0.49,-0.169 0.49,-0.144C0.49,-0.096 0.47,-0.057 0.429,-0.029C0.389,-0.001 0.337,0.013 0.274,0.013C0.211,0.013 0.16,0.004 0.119,-0.015L0.134,-0.081C0.176,-0.061 0.222,-0.051 0.271,-0.051C0.313,-0.051 0.348,-0.059 0.374,-0.074C0.401,-0.09 0.414,-0.111 0.414,-0.137C0.414,-0.155 0.407,-0.17 0.394,-0.184C0.381,-0.198 0.35,-0.213 0.301,-0.228C0.262,-0.24 0.233,-0.249 0.214,-0.255C0.196,-0.261 0.179,-0.27 0.163,-0.281C0.147,-0.293 0.135,-0.307 0.126,-0.323C0.118,-0.34 0.114,-0.358 0.114,-0.378C0.114,-0.422 0.133,-0.457 0.171,-0.482C0.21,-0.508 0.261,-0.521 0.324,-0.521C0.365,-0.521 0.411,-0.514 0.461,-0.5L0.444,-0.436Z" style="fill-rule:nonzero;"/>
                                    </g>
                                    <g transform="matrix(79.1667,0,0,79.1667,2738.42,1761.68)">
                                        <path d="M0.3,-0.521C0.37,-0.521 0.425,-0.497 0.467,-0.448C0.508,-0.399 0.529,-0.335 0.529,-0.255C0.529,-0.174 0.508,-0.11 0.467,-0.061C0.425,-0.011 0.37,0.013 0.3,0.013C0.229,0.013 0.174,-0.011 0.133,-0.06C0.091,-0.109 0.071,-0.174 0.071,-0.255C0.071,-0.335 0.091,-0.399 0.133,-0.448C0.174,-0.497 0.23,-0.521 0.3,-0.521ZM0.3,-0.053C0.346,-0.053 0.382,-0.073 0.409,-0.112C0.436,-0.151 0.449,-0.198 0.449,-0.254C0.449,-0.313 0.436,-0.361 0.41,-0.398C0.383,-0.436 0.347,-0.455 0.3,-0.455C0.253,-0.455 0.216,-0.436 0.19,-0.399C0.164,-0.362 0.151,-0.313 0.151,-0.254C0.151,-0.197 0.164,-0.15 0.19,-0.111C0.217,-0.073 0.253,-0.053 0.3,-0.053Z" style="fill-rule:nonzero;"/>
                                    </g>
                                    <g transform="matrix(79.1667,0,0,79.1667,2785.93,1761.68)">
                                        <path d="M0.502,-0.681L0.482,-0.619C0.446,-0.63 0.413,-0.635 0.385,-0.635C0.357,-0.635 0.339,-0.627 0.328,-0.612C0.318,-0.596 0.313,-0.565 0.313,-0.518L0.313,-0.509L0.484,-0.509L0.484,-0.443L0.313,-0.443L0.313,-0L0.237,-0L0.237,-0.443L0.109,-0.443L0.109,-0.509L0.237,-0.509L0.237,-0.526C0.237,-0.591 0.248,-0.636 0.27,-0.662C0.292,-0.688 0.33,-0.701 0.385,-0.701C0.42,-0.701 0.459,-0.694 0.502,-0.681Z" style="fill-rule:nonzero;"/>
                                    </g>
                                    <g transform="matrix(79.1667,0,0,79.1667,2880.95,1761.68)">
                                        <path d="M0.181,-0.443C0.198,-0.466 0.221,-0.485 0.25,-0.5C0.279,-0.514 0.309,-0.521 0.341,-0.521C0.4,-0.521 0.446,-0.497 0.479,-0.45C0.512,-0.402 0.529,-0.34 0.529,-0.262C0.529,-0.184 0.511,-0.118 0.476,-0.066C0.441,-0.013 0.394,0.013 0.335,0.013C0.303,0.013 0.274,0.005 0.246,-0.01C0.219,-0.026 0.197,-0.047 0.181,-0.073L0.181,-0L0.105,-0L0.105,-0.689L0.181,-0.689L0.181,-0.443ZM0.181,-0.367L0.181,-0.156C0.195,-0.127 0.215,-0.103 0.239,-0.084C0.264,-0.065 0.289,-0.055 0.315,-0.055C0.356,-0.055 0.389,-0.075 0.413,-0.114C0.437,-0.153 0.449,-0.201 0.449,-0.258C0.449,-0.316 0.438,-0.364 0.415,-0.4C0.391,-0.437 0.359,-0.455 0.318,-0.455C0.264,-0.455 0.219,-0.426 0.181,-0.367Z" style="fill-rule:nonzero;"/>
                                    </g>
                                    <g transform="matrix(79.1667,0,0,79.1667,2928.45,1761.68)">
                                        <path d="M0.46,-0L0.252,-0L0.252,-0.623L0.119,-0.623L0.119,-0.689L0.328,-0.689L0.328,-0.066L0.46,-0.066L0.46,-0Z" style="fill-rule:nonzero;"/>
                                    </g>
                                    <g transform="matrix(79.1667,0,0,79.1667,2975.96,1761.68)">
                                        <path d="M0.3,-0.521C0.37,-0.521 0.425,-0.497 0.467,-0.448C0.508,-0.399 0.529,-0.335 0.529,-0.255C0.529,-0.174 0.508,-0.11 0.467,-0.061C0.425,-0.011 0.37,0.013 0.3,0.013C0.229,0.013 0.174,-0.011 0.133,-0.06C0.091,-0.109 0.071,-0.174 0.071,-0.255C0.071,-0.335 0.091,-0.399 0.133,-0.448C0.174,-0.497 0.23,-0.521 0.3,-0.521ZM0.3,-0.053C0.346,-0.053 0.382,-0.073 0.409,-0.112C0.436,-0.151 0.449,-0.198 0.449,-0.254C0.449,-0.313 0.436,-0.361 0.41,-0.398C0.383,-0.436 0.347,-0.455 0.3,-0.455C0.253,-0.455 0.216,-0.436 0.19,-0.399C0.164,-0.362 0.151,-0.313 0.151,-0.254C0.151,-0.197 0.164,-0.15 0.19,-0.111C0.217,-0.073 0.253,-0.053 0.3,-0.053Z" style="fill-rule:nonzero;"/>
                                    </g>
                                    <g transform="matrix(79.1667,0,0,79.1667,3023.47,1761.68)">
                                        <path d="M0.495,-0.017C0.451,0.003 0.402,0.013 0.349,0.013C0.269,0.013 0.205,-0.011 0.157,-0.06C0.11,-0.108 0.086,-0.173 0.086,-0.254C0.086,-0.335 0.11,-0.399 0.158,-0.448C0.206,-0.497 0.269,-0.521 0.347,-0.521C0.398,-0.521 0.447,-0.512 0.493,-0.494L0.473,-0.431C0.427,-0.447 0.385,-0.455 0.348,-0.455C0.292,-0.455 0.248,-0.437 0.215,-0.401C0.182,-0.365 0.166,-0.316 0.166,-0.254C0.166,-0.197 0.183,-0.15 0.217,-0.111C0.251,-0.073 0.295,-0.053 0.349,-0.053C0.392,-0.053 0.436,-0.062 0.482,-0.078L0.495,-0.017Z" style="fill-rule:nonzero;"/>
                                    </g>
                                    <g transform="matrix(79.1667,0,0,79.1667,3070.98,1761.68)">
                                        <path d="M0.547,-0L0.447,-0L0.231,-0.253L0.181,-0.21L0.181,-0L0.105,-0L0.105,-0.689L0.181,-0.689L0.181,-0.294L0.42,-0.509L0.517,-0.509L0.285,-0.301L0.547,-0Z" style="fill-rule:nonzero;"/>
                                    </g>
                                    <g transform="matrix(79.1667,0,0,79.1667,3118.48,1761.68)">
                                        <path d="M0.495,-0.017C0.451,0.003 0.402,0.013 0.349,0.013C0.269,0.013 0.205,-0.011 0.157,-0.06C0.11,-0.108 0.086,-0.173 0.086,-0.254C0.086,-0.335 0.11,-0.399 0.158,-0.448C0.206,-0.497 0.269,-0.521 0.347,-0.521C0.398,-0.521 0.447,-0.512 0.493,-0.494L0.473,-0.431C0.427,-0.447 0.385,-0.455 0.348,-0.455C0.292,-0.455 0.248,-0.437 0.215,-0.401C0.182,-0.365 0.166,-0.316 0.166,-0.254C0.166,-0.197 0.183,-0.15 0.217,-0.111C0.251,-0.073 0.295,-0.053 0.349,-0.053C0.392,-0.053 0.436,-0.062 0.482,-0.078L0.495,-0.017Z" style="fill-rule:nonzero;"/>
                                    </g>
                                    <g transform="matrix(79.1667,0,0,79.1667,3165.99,1761.68)">
                                        <path d="M0.497,-0L0.421,-0L0.421,-0.326C0.421,-0.371 0.414,-0.404 0.399,-0.425C0.385,-0.445 0.362,-0.455 0.331,-0.455C0.285,-0.455 0.235,-0.426 0.181,-0.368L0.181,-0L0.105,-0L0.105,-0.689L0.181,-0.689L0.181,-0.434C0.236,-0.492 0.293,-0.521 0.354,-0.521C0.449,-0.521 0.497,-0.463 0.497,-0.348L0.497,-0Z" style="fill-rule:nonzero;"/>
                                    </g>
                                    <g transform="matrix(79.1667,0,0,79.1667,3213.5,1761.68)">
                                        <path d="M0.51,-0L0.434,-0C0.428,-0.021 0.425,-0.048 0.425,-0.082C0.382,-0.019 0.323,0.013 0.248,0.013C0.21,0.013 0.177,-0 0.148,-0.027C0.119,-0.054 0.105,-0.089 0.105,-0.131C0.105,-0.156 0.11,-0.178 0.12,-0.197C0.13,-0.216 0.145,-0.233 0.165,-0.246C0.184,-0.259 0.208,-0.269 0.236,-0.277C0.264,-0.285 0.297,-0.29 0.335,-0.293L0.421,-0.3L0.421,-0.324C0.421,-0.411 0.38,-0.455 0.299,-0.455C0.28,-0.455 0.255,-0.451 0.226,-0.443C0.196,-0.434 0.171,-0.424 0.15,-0.413L0.13,-0.468C0.199,-0.503 0.264,-0.521 0.323,-0.521C0.439,-0.521 0.497,-0.46 0.497,-0.337L0.497,-0.118C0.497,-0.074 0.501,-0.035 0.51,-0ZM0.421,-0.151L0.421,-0.243C0.352,-0.237 0.305,-0.231 0.28,-0.226C0.254,-0.22 0.232,-0.21 0.213,-0.196C0.194,-0.181 0.185,-0.161 0.185,-0.136C0.185,-0.113 0.193,-0.095 0.209,-0.081C0.225,-0.067 0.245,-0.06 0.27,-0.06C0.297,-0.06 0.324,-0.068 0.351,-0.084C0.377,-0.1 0.401,-0.123 0.421,-0.151Z" style="fill-rule:nonzero;"/>
                                    </g>
                                    <g transform="matrix(79.1667,0,0,79.1667,3261.01,1761.68)">
                                        <path d="M0.333,-0.701C0.347,-0.701 0.36,-0.696 0.37,-0.686C0.38,-0.676 0.385,-0.663 0.385,-0.649C0.385,-0.634 0.38,-0.621 0.37,-0.611C0.36,-0.601 0.348,-0.596 0.333,-0.596C0.32,-0.596 0.308,-0.601 0.298,-0.612C0.287,-0.623 0.282,-0.635 0.282,-0.649C0.282,-0.663 0.287,-0.675 0.298,-0.686C0.308,-0.696 0.32,-0.701 0.333,-0.701ZM0.37,-0L0.294,-0L0.294,-0.443L0.144,-0.443L0.144,-0.509L0.37,-0.509L0.37,-0Z" style="fill-rule:nonzero;"/>
                                    </g>
                                    <g transform="matrix(79.1667,0,0,79.1667,3308.51,1761.68)">
                                        <path d="M0.497,-0L0.421,-0L0.421,-0.326C0.421,-0.371 0.414,-0.404 0.399,-0.425C0.385,-0.445 0.362,-0.455 0.331,-0.455C0.285,-0.455 0.235,-0.426 0.181,-0.368L0.181,-0L0.105,-0L0.105,-0.509L0.181,-0.509L0.181,-0.434C0.236,-0.492 0.293,-0.521 0.354,-0.521C0.449,-0.521 0.497,-0.463 0.497,-0.348L0.497,-0Z" style="fill-rule:nonzero;"/>
                                    </g>
                                    <g transform="matrix(79.1667,0,0,79.1667,3356.02,1761.68)">
                                        <path d="M0.444,-0.436C0.401,-0.45 0.361,-0.457 0.323,-0.457C0.282,-0.457 0.249,-0.45 0.225,-0.436C0.201,-0.422 0.189,-0.404 0.189,-0.381C0.189,-0.366 0.194,-0.353 0.206,-0.343C0.217,-0.332 0.239,-0.321 0.272,-0.312L0.345,-0.291C0.378,-0.282 0.406,-0.27 0.427,-0.257C0.448,-0.244 0.464,-0.228 0.474,-0.209C0.485,-0.191 0.49,-0.169 0.49,-0.144C0.49,-0.096 0.47,-0.057 0.429,-0.029C0.389,-0.001 0.337,0.013 0.274,0.013C0.211,0.013 0.16,0.004 0.119,-0.015L0.134,-0.081C0.176,-0.061 0.222,-0.051 0.271,-0.051C0.313,-0.051 0.348,-0.059 0.374,-0.074C0.401,-0.09 0.414,-0.111 0.414,-0.137C0.414,-0.155 0.407,-0.17 0.394,-0.184C0.381,-0.198 0.35,-0.213 0.301,-0.228C0.262,-0.24 0.233,-0.249 0.214,-0.255C0.196,-0.261 0.179,-0.27 0.163,-0.281C0.147,-0.293 0.135,-0.307 0.126,-0.323C0.118,-0.34 0.114,-0.358 0.114,-0.378C0.114,-0.422 0.133,-0.457 0.171,-0.482C0.21,-0.508 0.261,-0.521 0.324,-0.521C0.365,-0.521 0.411,-0.514 0.461,-0.5L0.444,-0.436Z" style="fill-rule:nonzero;"/>
                                    </g>
                                </g>
                            </g>
                        </g>
                        <g transform="matrix(0.6,0,0,0.6,-69.4849,-31.1858)">
                            <g transform="matrix(78.6045,0,0,78.6045,119.754,164.824)">
                                <path d="M0.383,-0.378C0.429,-0.367 0.465,-0.346 0.491,-0.315C0.517,-0.285 0.53,-0.248 0.53,-0.205C0.53,-0.143 0.507,-0.093 0.462,-0.056C0.416,-0.019 0.362,-0 0.298,-0L0.102,-0L0.102,-0.689L0.293,-0.689C0.359,-0.689 0.411,-0.674 0.449,-0.645C0.486,-0.616 0.505,-0.575 0.505,-0.522C0.505,-0.489 0.494,-0.46 0.472,-0.435C0.451,-0.41 0.421,-0.391 0.383,-0.38L0.383,-0.378ZM0.182,-0.415L0.276,-0.415C0.374,-0.415 0.423,-0.45 0.423,-0.52C0.423,-0.552 0.411,-0.576 0.387,-0.594C0.363,-0.611 0.327,-0.619 0.281,-0.619L0.182,-0.619L0.182,-0.415ZM0.182,-0.07L0.273,-0.07C0.326,-0.07 0.368,-0.082 0.399,-0.106C0.43,-0.13 0.446,-0.163 0.446,-0.205C0.446,-0.25 0.431,-0.284 0.4,-0.309C0.369,-0.333 0.325,-0.345 0.267,-0.345L0.182,-0.345L0.182,-0.07Z" style="fill-rule:nonzero;"/>
                            </g>
                            <g transform="matrix(78.6045,0,0,78.6045,166.925,164.824)">
                                <path d="M0.46,-0L0.252,-0L0.252,-0.623L0.119,-0.623L0.119,-0.689L0.328,-0.689L0.328,-0.066L0.46,-0.066L0.46,-0Z" style="fill-rule:nonzero;"/>
                            </g>
                            <g transform="matrix(78.6045,0,0,78.6045,214.095,164.824)">
                                <path d="M0.3,-0.521C0.37,-0.521 0.425,-0.497 0.467,-0.448C0.508,-0.399 0.529,-0.335 0.529,-0.255C0.529,-0.174 0.508,-0.11 0.467,-0.061C0.425,-0.011 0.37,0.013 0.3,0.013C0.229,0.013 0.174,-0.011 0.133,-0.06C0.091,-0.109 0.071,-0.174 0.071,-0.255C0.071,-0.335 0.091,-0.399 0.133,-0.448C0.174,-0.497 0.23,-0.521 0.3,-0.521ZM0.3,-0.053C0.346,-0.053 0.382,-0.073 0.409,-0.112C0.436,-0.151 0.449,-0.198 0.449,-0.254C0.449,-0.313 0.436,-0.361 0.41,-0.398C0.383,-0.436 0.347,-0.455 0.3,-0.455C0.253,-0.455 0.216,-0.436 0.19,-0.399C0.164,-0.362 0.151,-0.313 0.151,-0.254C0.151,-0.197 0.164,-0.15 0.19,-0.111C0.217,-0.073 0.253,-0.053 0.3,-0.053Z" style="fill-rule:nonzero;"/>
                            </g>
                            <g transform="matrix(78.6045,0,0,78.6045,261.265,164.824)">
                                <path d="M0.495,-0.017C0.451,0.003 0.402,0.013 0.349,0.013C0.269,0.013 0.205,-0.011 0.157,-0.06C0.11,-0.108 0.086,-0.173 0.086,-0.254C0.086,-0.335 0.11,-0.399 0.158,-0.448C0.206,-0.497 0.269,-0.521 0.347,-0.521C0.398,-0.521 0.447,-0.512 0.493,-0.494L0.473,-0.431C0.427,-0.447 0.385,-0.455 0.348,-0.455C0.292,-0.455 0.248,-0.437 0.215,-0.401C0.182,-0.365 0.166,-0.316 0.166,-0.254C0.166,-0.197 0.183,-0.15 0.217,-0.111C0.251,-0.073 0.295,-0.053 0.349,-0.053C0.392,-0.053 0.436,-0.062 0.482,-0.078L0.495,-0.017Z" style="fill-rule:nonzero;"/>
                            </g>
                            <g transform="matrix(78.6045,0,0,78.6045,308.436,164.824)">
                                <path d="M0.547,-0L0.447,-0L0.231,-0.253L0.181,-0.21L0.181,-0L0.105,-0L0.105,-0.689L0.181,-0.689L0.181,-0.294L0.42,-0.509L0.517,-0.509L0.285,-0.301L0.547,-0Z" style="fill-rule:nonzero;"/>
                            </g>
                            <g transform="matrix(78.6045,0,0,78.6045,355.606,164.824)">
                                <path d="M0.495,-0.017C0.451,0.003 0.402,0.013 0.349,0.013C0.269,0.013 0.205,-0.011 0.157,-0.06C0.11,-0.108 0.086,-0.173 0.086,-0.254C0.086,-0.335 0.11,-0.399 0.158,-0.448C0.206,-0.497 0.269,-0.521 0.347,-0.521C0.398,-0.521 0.447,-0.512 0.493,-0.494L0.473,-0.431C0.427,-0.447 0.385,-0.455 0.348,-0.455C0.292,-0.455 0.248,-0.437 0.215,-0.401C0.182,-0.365 0.166,-0.316 0.166,-0.254C0.166,-0.197 0.183,-0.15 0.217,-0.111C0.251,-0.073 0.295,-0.053 0.349,-0.053C0.392,-0.053 0.436,-0.062 0.482,-0.078L0.495,-0.017Z" style="fill-rule:nonzero;"/>
                            </g>
                            <g transform="matrix(78.6045,0,0,78.6045,402.777,164.824)">
                                <path d="M0.497,-0L0.421,-0L0.421,-0.326C0.421,-0.371 0.414,-0.404 0.399,-0.425C0.385,-0.445 0.362,-0.455 0.331,-0.455C0.285,-0.455 0.235,-0.426 0.181,-0.368L0.181,-0L0.105,-0L0.105,-0.689L0.181,-0.689L0.181,-0.434C0.236,-0.492 0.293,-0.521 0.354,-0.521C0.449,-0.521 0.497,-0.463 0.497,-0.348L0.497,-0Z" style="fill-rule:nonzero;"/>
                            </g>
                            <g transform="matrix(78.6045,0,0,78.6045,449.947,164.824)">
                                <path d="M0.51,-0L0.434,-0C0.428,-0.021 0.425,-0.048 0.425,-0.082C0.382,-0.019 0.323,0.013 0.248,0.013C0.21,0.013 0.177,-0 0.148,-0.027C0.119,-0.054 0.105,-0.089 0.105,-0.131C0.105,-0.156 0.11,-0.178 0.12,-0.197C0.13,-0.216 0.145,-0.233 0.165,-0.246C0.184,-0.259 0.208,-0.269 0.236,-0.277C0.264,-0.285 0.297,-0.29 0.335,-0.293L0.421,-0.3L0.421,-0.324C0.421,-0.411 0.38,-0.455 0.299,-0.455C0.28,-0.455 0.255,-0.451 0.226,-0.443C0.196,-0.434 0.171,-0.424 0.15,-0.413L0.13,-0.468C0.199,-0.503 0.264,-0.521 0.323,-0.521C0.439,-0.521 0.497,-0.46 0.497,-0.337L0.497,-0.118C0.497,-0.074 0.501,-0.035 0.51,-0ZM0.421,-0.151L0.421,-0.243C0.352,-0.237 0.305,-0.231 0.28,-0.226C0.254,-0.22 0.232,-0.21 0.213,-0.196C0.194,-0.181 0.185,-0.161 0.185,-0.136C0.185,-0.113 0.193,-0.095 0.209,-0.081C0.225,-0.067 0.245,-0.06 0.27,-0.06C0.297,-0.06 0.324,-0.068 0.351,-0.084C0.377,-0.1 0.401,-0.123 0.421,-0.151Z" style="fill-rule:nonzero;"/>
                            </g>
                            <g transform="matrix(78.6045,0,0,78.6045,497.117,164.824)">
                                <path d="M0.333,-0.701C0.347,-0.701 0.36,-0.696 0.37,-0.686C0.38,-0.676 0.385,-0.663 0.385,-0.649C0.385,-0.634 0.38,-0.621 0.37,-0.611C0.36,-0.601 0.348,-0.596 0.333,-0.596C0.32,-0.596 0.308,-0.601 0.298,-0.612C0.287,-0.623 0.282,-0.635 0.282,-0.649C0.282,-0.663 0.287,-0.675 0.298,-0.686C0.308,-0.696 0.32,-0.701 0.333,-0.701ZM0.37,-0L0.294,-0L0.294,-0.443L0.144,-0.443L0.144,-0.509L0.37,-0.509L0.37,-0Z" style="fill-rule:nonzero;"/>
                            </g>
                            <g transform="matrix(78.6045,0,0,78.6045,544.288,164.824)">
                                <path d="M0.497,-0L0.421,-0L0.421,-0.326C0.421,-0.371 0.414,-0.404 0.399,-0.425C0.385,-0.445 0.362,-0.455 0.331,-0.455C0.285,-0.455 0.235,-0.426 0.181,-0.368L0.181,-0L0.105,-0L0.105,-0.509L0.181,-0.509L0.181,-0.434C0.236,-0.492 0.293,-0.521 0.354,-0.521C0.449,-0.521 0.497,-0.463 0.497,-0.348L0.497,-0Z" style="fill-rule:nonzero;"/>
                            </g>
                            <g transform="matrix(78.6045,0,0,78.6045,591.458,164.824)">
                                <path d="M0.444,-0.436C0.401,-0.45 0.361,-0.457 0.323,-0.457C0.282,-0.457 0.249,-0.45 0.225,-0.436C0.201,-0.422 0.189,-0.404 0.189,-0.381C0.189,-0.366 0.194,-0.353 0.206,-0.343C0.217,-0.332 0.239,-0.321 0.272,-0.312L0.345,-0.291C0.378,-0.282 0.406,-0.27 0.427,-0.257C0.448,-0.244 0.464,-0.228 0.474,-0.209C0.485,-0.191 0.49,-0.169 0.49,-0.144C0.49,-0.096 0.47,-0.057 0.429,-0.029C0.389,-0.001 0.337,0.013 0.274,0.013C0.211,0.013 0.16,0.004 0.119,-0.015L0.134,-0.081C0.176,-0.061 0.222,-0.051 0.271,-0.051C0.313,-0.051 0.348,-0.059 0.374,-0.074C0.401,-0.09 0.414,-0.111 0.414,-0.137C0.414,-0.155 0.407,-0.17 0.394,-0.184C0.381,-0.198 0.35,-0.213 0.301,-0.228C0.262,-0.24 0.233,-0.249 0.214,-0.255C0.196,-0.261 0.179,-0.27 0.163,-0.281C0.147,-0.293 0.135,-0.307 0.126,-0.323C0.118,-0.34 0.114,-0.358 0.114,-0.378C0.114,-0.422 0.133,-0.457 0.171,-0.482C0.21,-0.508 0.261,-0.521 0.324,-0.521C0.365,-0.521 0.411,-0.514 0.461,-0.5L0.444,-0.436Z" style="fill-rule:nonzero;"/>
                            </g>
                            <g transform="matrix(78.6045,0,0,78.6045,685.799,164.824)">
                                <path d="M0.51,-0L0.434,-0C0.428,-0.021 0.425,-0.048 0.425,-0.082C0.382,-0.019 0.323,0.013 0.248,0.013C0.21,0.013 0.177,-0 0.148,-0.027C0.119,-0.054 0.105,-0.089 0.105,-0.131C0.105,-0.156 0.11,-0.178 0.12,-0.197C0.13,-0.216 0.145,-0.233 0.165,-0.246C0.184,-0.259 0.208,-0.269 0.236,-0.277C0.264,-0.285 0.297,-0.29 0.335,-0.293L0.421,-0.3L0.421,-0.324C0.421,-0.411 0.38,-0.455 0.299,-0.455C0.28,-0.455 0.255,-0.451 0.226,-0.443C0.196,-0.434 0.171,-0.424 0.15,-0.413L0.13,-0.468C0.199,-0.503 0.264,-0.521 0.323,-0.521C0.439,-0.521 0.497,-0.46 0.497,-0.337L0.497,-0.118C0.497,-0.074 0.501,-0.035 0.51,-0ZM0.421,-0.151L0.421,-0.243C0.352,-0.237 0.305,-0.231 0.28,-0.226C0.254,-0.22 0.232,-0.21 0.213,-0.196C0.194,-0.181 0.185,-0.161 0.185,-0.136C0.185,-0.113 0.193,-0.095 0.209,-0.081C0.225,-0.067 0.245,-0.06 0.27,-0.06C0.297,-0.06 0.324,-0.068 0.351,-0.084C0.377,-0.1 0.401,-0.123 0.421,-0.151Z" style="fill-rule:nonzero;"/>
                            </g>
                            <g transform="matrix(78.6045,0,0,78.6045,732.969,164.824)">
                                <path d="M0.505,-0.495L0.474,-0.422C0.441,-0.437 0.412,-0.444 0.387,-0.444C0.365,-0.444 0.343,-0.437 0.321,-0.425C0.3,-0.412 0.28,-0.393 0.262,-0.369C0.244,-0.345 0.235,-0.332 0.235,-0.329L0.235,-0L0.159,-0L0.159,-0.509L0.235,-0.509L0.235,-0.406C0.276,-0.483 0.328,-0.521 0.393,-0.521C0.431,-0.521 0.469,-0.512 0.505,-0.495Z" style="fill-rule:nonzero;"/>
                            </g>
                            <g transform="matrix(78.6045,0,0,78.6045,780.14,164.824)">
                                <path d="M0.512,-0.252L0.163,-0.252C0.163,-0.194 0.18,-0.147 0.213,-0.109C0.247,-0.072 0.287,-0.053 0.336,-0.053C0.382,-0.053 0.43,-0.062 0.479,-0.078L0.492,-0.017C0.447,0.003 0.395,0.013 0.335,0.013C0.259,0.013 0.199,-0.011 0.152,-0.06C0.106,-0.108 0.083,-0.174 0.083,-0.256C0.083,-0.337 0.104,-0.401 0.145,-0.449C0.187,-0.497 0.24,-0.521 0.306,-0.521C0.365,-0.521 0.414,-0.499 0.453,-0.454C0.493,-0.41 0.512,-0.35 0.512,-0.276L0.512,-0.252ZM0.429,-0.314C0.429,-0.354 0.417,-0.387 0.392,-0.414C0.367,-0.441 0.34,-0.455 0.309,-0.455C0.27,-0.455 0.237,-0.442 0.211,-0.416C0.185,-0.39 0.171,-0.356 0.168,-0.314L0.429,-0.314Z" style="fill-rule:nonzero;"/>
                            </g>
                            <g transform="matrix(82.5348,0,0,82.5348,119.754,259.15)">
                                <path d="M0.537,-0L0.461,-0L0.461,-0.334C0.461,-0.415 0.446,-0.455 0.416,-0.455C0.401,-0.455 0.384,-0.441 0.365,-0.413C0.347,-0.385 0.338,-0.37 0.338,-0.367L0.338,-0L0.262,-0L0.262,-0.334C0.262,-0.415 0.247,-0.455 0.217,-0.455C0.202,-0.455 0.185,-0.441 0.167,-0.413C0.148,-0.385 0.139,-0.37 0.139,-0.367L0.139,-0L0.063,-0L0.063,-0.509L0.136,-0.509L0.136,-0.432C0.151,-0.459 0.168,-0.481 0.187,-0.497C0.207,-0.513 0.227,-0.521 0.246,-0.521C0.267,-0.521 0.285,-0.513 0.301,-0.497C0.318,-0.481 0.329,-0.459 0.335,-0.432C0.349,-0.459 0.366,-0.481 0.386,-0.497C0.406,-0.513 0.426,-0.521 0.445,-0.521C0.506,-0.521 0.537,-0.466 0.537,-0.356L0.537,-0Z" style="fill-rule:nonzero;"/>
                            </g>
                            <g transform="matrix(82.5348,0,0,82.5348,169.283,259.15)">
                                <path d="M0.3,-0.521C0.37,-0.521 0.425,-0.497 0.467,-0.448C0.508,-0.399 0.529,-0.335 0.529,-0.255C0.529,-0.174 0.508,-0.11 0.467,-0.061C0.425,-0.011 0.37,0.013 0.3,0.013C0.229,0.013 0.174,-0.011 0.133,-0.06C0.091,-0.109 0.071,-0.174 0.071,-0.255C0.071,-0.335 0.091,-0.399 0.133,-0.448C0.174,-0.497 0.23,-0.521 0.3,-0.521ZM0.3,-0.053C0.346,-0.053 0.382,-0.073 0.409,-0.112C0.436,-0.151 0.449,-0.198 0.449,-0.254C0.449,-0.313 0.436,-0.361 0.41,-0.398C0.383,-0.436 0.347,-0.455 0.3,-0.455C0.253,-0.455 0.216,-0.436 0.19,-0.399C0.164,-0.362 0.151,-0.313 0.151,-0.254C0.151,-0.197 0.164,-0.15 0.19,-0.111C0.217,-0.073 0.253,-0.053 0.3,-0.053Z" style="fill-rule:nonzero;"/>
                            </g>
                            <g transform="matrix(82.5348,0,0,82.5348,218.812,259.15)">
                                <path d="M0.444,-0.436C0.401,-0.45 0.361,-0.457 0.323,-0.457C0.282,-0.457 0.249,-0.45 0.225,-0.436C0.201,-0.422 0.189,-0.404 0.189,-0.381C0.189,-0.366 0.194,-0.353 0.206,-0.343C0.217,-0.332 0.239,-0.321 0.272,-0.312L0.345,-0.291C0.378,-0.282 0.406,-0.27 0.427,-0.257C0.448,-0.244 0.464,-0.228 0.474,-0.209C0.485,-0.191 0.49,-0.169 0.49,-0.144C0.49,-0.096 0.47,-0.057 0.429,-0.029C0.389,-0.001 0.337,0.013 0.274,0.013C0.211,0.013 0.16,0.004 0.119,-0.015L0.134,-0.081C0.176,-0.061 0.222,-0.051 0.271,-0.051C0.313,-0.051 0.348,-0.059 0.374,-0.074C0.401,-0.09 0.414,-0.111 0.414,-0.137C0.414,-0.155 0.407,-0.17 0.394,-0.184C0.381,-0.198 0.35,-0.213 0.301,-0.228C0.262,-0.24 0.233,-0.249 0.214,-0.255C0.196,-0.261 0.179,-0.27 0.163,-0.281C0.147,-0.293 0.135,-0.307 0.126,-0.323C0.118,-0.34 0.114,-0.358 0.114,-0.378C0.114,-0.422 0.133,-0.457 0.171,-0.482C0.21,-0.508 0.261,-0.521 0.324,-0.521C0.365,-0.521 0.411,-0.514 0.461,-0.5L0.444,-0.436Z" style="fill-rule:nonzero;"/>
                            </g>
                            <g transform="matrix(82.5348,0,0,82.5348,268.341,259.15)">
                                <path d="M0.502,-0.023C0.451,0 0.401,0.012 0.351,0.012C0.26,0.012 0.215,-0.036 0.215,-0.132L0.215,-0.443L0.117,-0.443L0.117,-0.509L0.215,-0.509L0.215,-0.648L0.289,-0.648L0.289,-0.509L0.462,-0.509L0.462,-0.443L0.289,-0.443L0.289,-0.152C0.289,-0.121 0.296,-0.097 0.31,-0.08C0.323,-0.063 0.342,-0.054 0.365,-0.054C0.407,-0.054 0.448,-0.063 0.489,-0.082L0.502,-0.023Z" style="fill-rule:nonzero;"/>
                            </g>
                            <g transform="matrix(82.5348,0,0,82.5348,317.87,259.15)">
                                <path d="M0.46,-0L0.252,-0L0.252,-0.623L0.119,-0.623L0.119,-0.689L0.328,-0.689L0.328,-0.066L0.46,-0.066L0.46,-0Z" style="fill-rule:nonzero;"/>
                            </g>
                            <g transform="matrix(82.5348,0,0,82.5348,367.399,259.15)">
                                <path d="M0.52,-0.509L0.327,-0C0.299,0.075 0.271,0.127 0.244,0.157C0.216,0.186 0.185,0.201 0.15,0.201C0.119,0.201 0.088,0.195 0.057,0.184L0.07,0.123C0.095,0.131 0.117,0.135 0.136,0.135C0.164,0.135 0.186,0.124 0.204,0.103C0.221,0.082 0.239,0.047 0.257,-0.001L0.066,-0.509L0.149,-0.509L0.293,-0.103L0.437,-0.509L0.52,-0.509Z" style="fill-rule:nonzero;"/>
                            </g>
                            <g transform="matrix(82.5348,0,0,82.5348,480.608,259.15)">
                                <path d="M0.496,-0L0.42,-0L0.42,-0.075C0.365,-0.017 0.308,0.012 0.247,0.012C0.152,0.012 0.104,-0.046 0.104,-0.161L0.104,-0.509L0.18,-0.509L0.18,-0.183C0.18,-0.14 0.187,-0.108 0.201,-0.086C0.214,-0.065 0.237,-0.054 0.27,-0.054C0.317,-0.054 0.367,-0.083 0.42,-0.141L0.42,-0.509L0.496,-0.509L0.496,-0Z" style="fill-rule:nonzero;"/>
                            </g>
                            <g transform="matrix(82.5348,0,0,82.5348,530.137,259.15)">
                                <path d="M0.444,-0.436C0.401,-0.45 0.361,-0.457 0.323,-0.457C0.282,-0.457 0.249,-0.45 0.225,-0.436C0.201,-0.422 0.189,-0.404 0.189,-0.381C0.189,-0.366 0.194,-0.353 0.206,-0.343C0.217,-0.332 0.239,-0.321 0.272,-0.312L0.345,-0.291C0.378,-0.282 0.406,-0.27 0.427,-0.257C0.448,-0.244 0.464,-0.228 0.474,-0.209C0.485,-0.191 0.49,-0.169 0.49,-0.144C0.49,-0.096 0.47,-0.057 0.429,-0.029C0.389,-0.001 0.337,0.013 0.274,0.013C0.211,0.013 0.16,0.004 0.119,-0.015L0.134,-0.081C0.176,-0.061 0.222,-0.051 0.271,-0.051C0.313,-0.051 0.348,-0.059 0.374,-0.074C0.401,-0.09 0.414,-0.111 0.414,-0.137C0.414,-0.155 0.407,-0.17 0.394,-0.184C0.381,-0.198 0.35,-0.213 0.301,-0.228C0.262,-0.24 0.233,-0.249 0.214,-0.255C0.196,-0.261 0.179,-0.27 0.163,-0.281C0.147,-0.293 0.135,-0.307 0.126,-0.323C0.118,-0.34 0.114,-0.358 0.114,-0.378C0.114,-0.422 0.133,-0.457 0.171,-0.482C0.21,-0.508 0.261,-0.521 0.324,-0.521C0.365,-0.521 0.411,-0.514 0.461,-0.5L0.444,-0.436Z" style="fill-rule:nonzero;"/>
                            </g>
                            <g transform="matrix(82.5348,0,0,82.5348,579.666,259.15)">
                                <path d="M0.512,-0.252L0.163,-0.252C0.163,-0.194 0.18,-0.147 0.213,-0.109C0.247,-0.072 0.287,-0.053 0.336,-0.053C0.382,-0.053 0.43,-0.062 0.479,-0.078L0.492,-0.017C0.447,0.003 0.395,0.013 0.335,0.013C0.259,0.013 0.199,-0.011 0.152,-0.06C0.106,-0.108 0.083,-0.174 0.083,-0.256C0.083,-0.337 0.104,-0.401 0.145,-0.449C0.187,-0.497 0.24,-0.521 0.306,-0.521C0.365,-0.521 0.414,-0.499 0.453,-0.454C0.493,-0.41 0.512,-0.35 0.512,-0.276L0.512,-0.252ZM0.429,-0.314C0.429,-0.354 0.417,-0.387 0.392,-0.414C0.367,-0.441 0.34,-0.455 0.309,-0.455C0.27,-0.455 0.237,-0.442 0.211,-0.416C0.185,-0.39 0.171,-0.356 0.168,-0.314L0.429,-0.314Z" style="fill-rule:nonzero;"/>
                            </g>
                            <g transform="matrix(82.5348,0,0,82.5348,629.194,259.15)">
                                <path d="M0.46,-0L0.252,-0L0.252,-0.623L0.119,-0.623L0.119,-0.689L0.328,-0.689L0.328,-0.066L0.46,-0.066L0.46,-0Z" style="fill-rule:nonzero;"/>
                            </g>
                            <g transform="matrix(82.5348,0,0,82.5348,678.723,259.15)">
                                <path d="M0.512,-0.252L0.163,-0.252C0.163,-0.194 0.18,-0.147 0.213,-0.109C0.247,-0.072 0.287,-0.053 0.336,-0.053C0.382,-0.053 0.43,-0.062 0.479,-0.078L0.492,-0.017C0.447,0.003 0.395,0.013 0.335,0.013C0.259,0.013 0.199,-0.011 0.152,-0.06C0.106,-0.108 0.083,-0.174 0.083,-0.256C0.083,-0.337 0.104,-0.401 0.145,-0.449C0.187,-0.497 0.24,-0.521 0.306,-0.521C0.365,-0.521 0.414,-0.499 0.453,-0.454C0.493,-0.41 0.512,-0.35 0.512,-0.276L0.512,-0.252ZM0.429,-0.314C0.429,-0.354 0.417,-0.387 0.392,-0.414C0.367,-0.441 0.34,-0.455 0.309,-0.455C0.27,-0.455 0.237,-0.442 0.211,-0.416C0.185,-0.39 0.171,-0.356 0.168,-0.314L0.429,-0.314Z" style="fill-rule:nonzero;"/>
                            </g>
                            <g transform="matrix(82.5348,0,0,82.5348,728.252,259.15)">
                                <path d="M0.444,-0.436C0.401,-0.45 0.361,-0.457 0.323,-0.457C0.282,-0.457 0.249,-0.45 0.225,-0.436C0.201,-0.422 0.189,-0.404 0.189,-0.381C0.189,-0.366 0.194,-0.353 0.206,-0.343C0.217,-0.332 0.239,-0.321 0.272,-0.312L0.345,-0.291C0.378,-0.282 0.406,-0.27 0.427,-0.257C0.448,-0.244 0.464,-0.228 0.474,-0.209C0.485,-0.191 0.49,-0.169 0.49,-0.144C0.49,-0.096 0.47,-0.057 0.429,-0.029C0.389,-0.001 0.337,0.013 0.274,0.013C0.211,0.013 0.16,0.004 0.119,-0.015L0.134,-0.081C0.176,-0.061 0.222,-0.051 0.271,-0.051C0.313,-0.051 0.348,-0.059 0.374,-0.074C0.401,-0.09 0.414,-0.111 0.414,-0.137C0.414,-0.155 0.407,-0.17 0.394,-0.184C0.381,-0.198 0.35,-0.213 0.301,-0.228C0.262,-0.24 0.233,-0.249 0.214,-0.255C0.196,-0.261 0.179,-0.27 0.163,-0.281C0.147,-0.293 0.135,-0.307 0.126,-0.323C0.118,-0.34 0.114,-0.358 0.114,-0.378C0.114,-0.422 0.133,-0.457 0.171,-0.482C0.21,-0.508 0.261,-0.521 0.324,-0.521C0.365,-0.521 0.411,-0.514 0.461,-0.5L0.444,-0.436Z" style="fill-rule:nonzero;"/>
                            </g>
                            <g transform="matrix(82.5348,0,0,82.5348,777.781,259.15)">
                                <path d="M0.444,-0.436C0.401,-0.45 0.361,-0.457 0.323,-0.457C0.282,-0.457 0.249,-0.45 0.225,-0.436C0.201,-0.422 0.189,-0.404 0.189,-0.381C0.189,-0.366 0.194,-0.353 0.206,-0.343C0.217,-0.332 0.239,-0.321 0.272,-0.312L0.345,-0.291C0.378,-0.282 0.406,-0.27 0.427,-0.257C0.448,-0.244 0.464,-0.228 0.474,-0.209C0.485,-0.191 0.49,-0.169 0.49,-0.144C0.49,-0.096 0.47,-0.057 0.429,-0.029C0.389,-0.001 0.337,0.013 0.274,0.013C0.211,0.013 0.16,0.004 0.119,-0.015L0.134,-0.081C0.176,-0.061 0.222,-0.051 0.271,-0.051C0.313,-0.051 0.348,-0.059 0.374,-0.074C0.401,-0.09 0.414,-0.111 0.414,-0.137C0.414,-0.155 0.407,-0.17 0.394,-0.184C0.381,-0.198 0.35,-0.213 0.301,-0.228C0.262,-0.24 0.233,-0.249 0.214,-0.255C0.196,-0.261 0.179,-0.27 0.163,-0.281C0.147,-0.293 0.135,-0.307 0.126,-0.323C0.118,-0.34 0.114,-0.358 0.114,-0.378C0.114,-0.422 0.133,-0.457 0.171,-0.482C0.21,-0.508 0.261,-0.521 0.324,-0.521C0.365,-0.521 0.411,-0.514 0.461,-0.5L0.444,-0.436Z" style="fill-rule:nonzero;"/>
                            </g>
                        </g>
                    </g>
                </g>
            </g>
        </g>
    </g>
</svg>
