<?xml version="1.0" encoding="UTF-8" standalone="no"?>
<!DOCTYPE svg PUBLIC "-//W3C//DTD SVG 1.1//EN" "http://www.w3.org/Graphics/SVG/1.1/DTD/svg11.dtd">
<svg width="100%" height="100%" viewBox="0 0 1725 2623" version="1.1" xmlns="http://www.w3.org/2000/svg" xmlns:xlink="http://www.w3.org/1999/xlink" xml:space="preserve" xmlns:serif="http://www.serif.com/" style="fill-rule:evenodd;clip-rule:evenodd;stroke-linejoin:round;stroke-miterlimit:2;">
    <g transform="matrix(1,0,0,1,-1898.44,-39.2389)">
        <g id="Front" transform="matrix(4.026,0,0,3.95936,1930.23,4.07755)">
            <g id="Front-Backpanel" serif:id="Front Backpanel" transform="matrix(0.234745,0,0,0.245322,-489.654,8.88057)">
                <rect x="2052.6" y="0" width="1824.9" height="2700" style="fill:#fff;fill-opacity:0;"/>
            </g>
            <g id="Half-burger" serif:id="Half burger" transform="matrix(1.44631,0,0,1.44989,-852.111,-146.152)">
                <g id="Lower-left-burger" serif:id="Lower left burger" transform="matrix(0.171738,0,0,0.174197,257.671,100.092)">
                    <path d="M1898.44,1794.25C2329.9,1771.75 2748.49,1749.1 2949.18,1738.18C2952.4,1738 2955.61,1737.95 2958.78,1738C3026.26,1736.82 3084.79,1787.12 3092.26,1853.76C3111.37,2023.88 3136.45,2320.47 3090.95,2403.78C3088.43,2407.66 3084.95,2410.85 3080.84,2413.05C3080.94,2411.93 3081.03,2410.81 3081.12,2409.68C3015.76,2463.17 2471.63,2489.29 1898.44,2501.93L1898.44,1794.25Z" style="fill:#6c63ff;fill-opacity:0.4;"/>
                </g>
                <g id="Upper-left-burger" serif:id="Upper left burger" transform="matrix(1,0,0,1,-59,-84.5537)">
                    <path d="M642.706,233.459C693.97,236.065 748.7,256.761 798.769,311.92C814.931,329.937 828.07,350.453 837.674,372.67C839.519,376.87 841.554,380.64 843.543,382.629C849.731,388.817 855.034,406.496 843.543,415.335C837.536,419.956 742.17,431.58 642.706,435.37L642.706,233.459Z" style="fill:#6c63ff;fill-opacity:0.4;"/>
                </g>
                <g id="Upper-left-seeds" serif:id="Upper left seeds" transform="matrix(0.171738,0,0,0.174197,257.671,100.092)">
                    <path d="M2303.99,627.511C2288.14,632.42 2271.19,632.73 2255.17,628.404C2230.75,620.874 2213.02,608.264 2215.57,600.24C2218.12,592.215 2239.97,591.815 2264.39,599.346C2280.06,604.794 2293.81,614.573 2303.99,627.511ZM1898.44,543.878C1906.88,540.152 1920.35,537.758 1935.51,537.758C1952.11,538.346 1968.2,543.631 1981.84,552.981C1968.2,562.332 1952.11,567.617 1935.51,568.205C1920.35,568.205 1906.88,565.811 1898.44,562.085L1898.44,543.878ZM2365.76,460.053C2349.91,464.962 2332.96,465.272 2316.94,460.946C2292.52,453.416 2274.79,440.806 2277.34,432.782C2279.88,424.758 2301.74,424.358 2326.16,431.888C2341.82,437.336 2355.57,447.115 2365.76,460.053ZM2213.46,446.417C2199.82,455.768 2183.73,461.053 2167.13,461.641C2141.55,461.641 2120.81,454.825 2120.81,446.417C2120.81,438.01 2141.55,431.194 2167.13,431.194C2183.73,431.782 2199.82,437.067 2213.46,446.417ZM1898.44,381.963C1914.38,370.233 1929.28,365.078 1934.05,370.342C1939.72,376.615 1928.85,395.314 1909.76,412.106C1906.2,415.021 1902.42,417.637 1898.44,419.904L1898.44,381.963ZM2110.51,355.077C2096.88,364.427 2080.79,369.713 2064.19,370.3C2038.61,370.3 2017.87,363.485 2017.87,355.077C2017.87,346.669 2038.61,339.853 2064.19,339.853C2080.79,340.441 2096.88,345.727 2110.51,355.077Z" style="fill:#fff;"/>
                </g>
            </g>
            <g id="Author" transform="matrix(1,0,0,1,-17.8207,25.6499)">
                <g transform="matrix(1.19315,0,0,1.19315,-34.6906,-438.282)">
                    <g transform="matrix(28.9322,0,0,28.9322,69.8133,864.126)">
                        <path d="M0.065,-0L0.1,-0L0.102,-0.044C0.124,-0.008 0.158,0.01 0.204,0.01C0.24,0.01 0.27,-0.003 0.294,-0.028C0.317,-0.053 0.329,-0.086 0.329,-0.125L0.329,-0.383C0.329,-0.422 0.318,-0.454 0.295,-0.479C0.272,-0.504 0.242,-0.516 0.206,-0.516C0.162,-0.516 0.128,-0.498 0.105,-0.463L0.105,-0.7L0.065,-0.7L0.065,-0ZM0.289,-0.134C0.289,-0.101 0.28,-0.075 0.263,-0.056C0.246,-0.037 0.224,-0.027 0.197,-0.027C0.17,-0.027 0.148,-0.037 0.131,-0.056C0.114,-0.075 0.105,-0.101 0.105,-0.134L0.105,-0.372C0.105,-0.405 0.114,-0.431 0.131,-0.45C0.148,-0.469 0.17,-0.479 0.197,-0.479C0.224,-0.479 0.246,-0.469 0.263,-0.45C0.28,-0.431 0.289,-0.405 0.289,-0.372L0.289,-0.134Z" style="fill-rule:nonzero;"/>
                    </g>
                    <g transform="matrix(28.9322,0,0,28.9322,80.2,864.126)">
                        <path d="M0.132,-0C0.12,0.053 0.108,0.089 0.095,0.107C0.082,0.124 0.066,0.133 0.045,0.133C0.038,0.133 0.033,0.133 0.03,0.132L0.03,0.167L0.05,0.17C0.075,0.17 0.097,0.159 0.116,0.136C0.134,0.113 0.15,0.073 0.164,0.016L0.29,-0.506L0.248,-0.506L0.151,-0.068L0.054,-0.506L0.01,-0.506L0.132,-0Z" style="fill-rule:nonzero;"/>
                    </g>
                    <g transform="matrix(28.9322,0,0,28.9322,92.6987,864.126)">
                        <path d="M0.259,-0.12L0.281,-0.12L0.43,-0.586L0.43,-0L0.47,-0L0.47,-0.7L0.43,-0.7L0.271,-0.202L0.112,-0.7L0.07,-0.7L0.07,-0L0.11,-0L0.11,-0.586L0.259,-0.12Z" style="fill-rule:nonzero;"/>
                    </g>
                    <g transform="matrix(28.9322,0,0,28.9322,107.599,864.126)">
                        <path d="M0.317,-0.266L0.317,-0.375C0.317,-0.418 0.305,-0.452 0.281,-0.478C0.256,-0.503 0.225,-0.516 0.188,-0.516C0.15,-0.516 0.118,-0.503 0.093,-0.476C0.068,-0.449 0.055,-0.415 0.055,-0.373L0.055,-0.131C0.055,-0.089 0.067,-0.055 0.092,-0.029C0.117,-0.003 0.148,0.01 0.186,0.01C0.223,0.01 0.255,-0.003 0.28,-0.03C0.305,-0.056 0.317,-0.09 0.317,-0.133L0.317,-0.155L0.279,-0.155L0.279,-0.134C0.279,-0.101 0.27,-0.075 0.253,-0.056C0.236,-0.037 0.214,-0.027 0.187,-0.027C0.16,-0.027 0.138,-0.037 0.121,-0.056C0.104,-0.075 0.095,-0.101 0.095,-0.134L0.095,-0.266L0.317,-0.266ZM0.095,-0.372C0.095,-0.405 0.104,-0.431 0.121,-0.45C0.138,-0.469 0.16,-0.479 0.187,-0.479C0.214,-0.479 0.236,-0.469 0.253,-0.45C0.27,-0.431 0.279,-0.405 0.279,-0.372L0.279,-0.299L0.095,-0.299L0.095,-0.372Z" style="fill-rule:nonzero;"/>
                    </g>
                    <g transform="matrix(28.9322,0,0,28.9322,117.638,864.126)">
                        <path d="M0.325,-0L0.325,-0.383C0.325,-0.423 0.314,-0.455 0.292,-0.48C0.27,-0.504 0.242,-0.516 0.208,-0.516C0.161,-0.516 0.125,-0.497 0.102,-0.458L0.1,-0.506L0.065,-0.506L0.065,-0L0.105,-0L0.105,-0.374C0.105,-0.407 0.114,-0.432 0.132,-0.451C0.15,-0.47 0.172,-0.479 0.199,-0.479C0.226,-0.479 0.247,-0.47 0.262,-0.452C0.277,-0.433 0.285,-0.407 0.285,-0.374L0.285,-0L0.325,-0Z" style="fill-rule:nonzero;"/>
                    </g>
                    <g transform="matrix(28.9322,0,0,28.9322,127.909,864.126)">
                        <path d="M0.02,-0.471L0.09,-0.471L0.09,-0.114C0.09,-0.073 0.099,-0.043 0.118,-0.022C0.136,-0.001 0.161,0.01 0.194,0.01C0.211,0.01 0.227,0.008 0.24,0.004L0.24,-0.03L0.202,-0.027C0.154,-0.027 0.13,-0.056 0.13,-0.114L0.13,-0.471L0.245,-0.471L0.245,-0.506L0.13,-0.506L0.13,-0.64L0.09,-0.64L0.09,-0.506L0.02,-0.506L0.02,-0.471Z" style="fill-rule:nonzero;"/>
                    </g>
                    <g transform="matrix(28.9322,0,0,28.9322,134.708,864.126)">
                        <path d="M0.055,-0.131C0.055,-0.089 0.067,-0.055 0.092,-0.029C0.117,-0.003 0.148,0.01 0.186,0.01C0.224,0.01 0.256,-0.003 0.281,-0.03C0.306,-0.057 0.319,-0.091 0.319,-0.133L0.319,-0.375C0.319,-0.417 0.307,-0.451 0.282,-0.477C0.257,-0.503 0.226,-0.516 0.188,-0.516C0.15,-0.516 0.118,-0.503 0.093,-0.476C0.068,-0.449 0.055,-0.415 0.055,-0.373L0.055,-0.131ZM0.095,-0.372C0.095,-0.405 0.104,-0.431 0.121,-0.45C0.138,-0.469 0.16,-0.479 0.187,-0.479C0.214,-0.479 0.236,-0.469 0.253,-0.45C0.27,-0.431 0.279,-0.405 0.279,-0.372L0.279,-0.134C0.279,-0.101 0.27,-0.075 0.253,-0.056C0.236,-0.037 0.214,-0.027 0.187,-0.027C0.16,-0.027 0.138,-0.037 0.121,-0.056C0.104,-0.075 0.095,-0.101 0.095,-0.134L0.095,-0.372Z" style="fill-rule:nonzero;"/>
                    </g>
                    <g transform="matrix(28.9322,0,0,28.9322,144.806,864.126)">
                        <path d="M0.227,-0.516C0.17,-0.516 0.128,-0.493 0.102,-0.448L0.1,-0.506L0.065,-0.506L0.065,-0L0.105,-0L0.105,-0.344C0.105,-0.388 0.115,-0.422 0.136,-0.445C0.157,-0.468 0.184,-0.479 0.219,-0.479L0.227,-0.479L0.227,-0.516Z" style="fill-rule:nonzero;"/>
                    </g>
                    <g transform="matrix(28.9322,0,0,28.9322,155.771,864.126)">
                        <path d="M0.07,-0L0.11,-0L0.11,-0.295L0.199,-0.295C0.246,-0.295 0.283,-0.31 0.312,-0.34C0.341,-0.369 0.355,-0.41 0.355,-0.461L0.355,-0.536C0.355,-0.587 0.341,-0.628 0.313,-0.657C0.285,-0.686 0.248,-0.7 0.201,-0.7L0.07,-0.7L0.07,-0ZM0.11,-0.665L0.2,-0.665C0.235,-0.665 0.263,-0.654 0.284,-0.632C0.305,-0.609 0.315,-0.577 0.315,-0.535L0.315,-0.46C0.315,-0.418 0.305,-0.386 0.284,-0.364C0.263,-0.341 0.235,-0.33 0.2,-0.33L0.11,-0.33L0.11,-0.665Z" style="fill-rule:nonzero;"/>
                    </g>
                    <g transform="matrix(28.9322,0,0,28.9322,165.897,864.126)">
                        <path d="M0.05,-0.134C0.05,-0.091 0.062,-0.057 0.086,-0.03C0.11,-0.003 0.14,0.01 0.177,0.01C0.224,0.01 0.259,-0.011 0.284,-0.052L0.29,-0L0.32,-0L0.32,-0.38C0.32,-0.421 0.308,-0.454 0.284,-0.479C0.26,-0.504 0.23,-0.516 0.194,-0.516C0.158,-0.516 0.128,-0.503 0.104,-0.478C0.08,-0.452 0.068,-0.419 0.068,-0.378L0.068,-0.361L0.106,-0.361L0.106,-0.377C0.106,-0.408 0.114,-0.433 0.131,-0.452C0.147,-0.47 0.168,-0.479 0.193,-0.479C0.218,-0.479 0.239,-0.47 0.256,-0.452C0.272,-0.433 0.28,-0.408 0.28,-0.377L0.28,-0.251C0.255,-0.287 0.222,-0.305 0.179,-0.305C0.142,-0.305 0.112,-0.291 0.087,-0.264C0.062,-0.236 0.05,-0.201 0.05,-0.158L0.05,-0.134ZM0.09,-0.157C0.09,-0.19 0.099,-0.217 0.117,-0.237C0.134,-0.257 0.157,-0.267 0.185,-0.267C0.213,-0.267 0.236,-0.257 0.254,-0.237C0.271,-0.217 0.28,-0.19 0.28,-0.157L0.28,-0.137C0.28,-0.104 0.271,-0.077 0.254,-0.057C0.236,-0.037 0.213,-0.027 0.185,-0.027C0.157,-0.027 0.134,-0.037 0.117,-0.057C0.099,-0.077 0.09,-0.104 0.09,-0.137L0.09,-0.157Z" style="fill-rule:nonzero;"/>
                    </g>
                    <g transform="matrix(28.9322,0,0,28.9322,176.168,864.126)">
                        <rect x="0.07" y="-0.7" width="0.042" height="0.7" style="fill-rule:nonzero;"/>
                    </g>
                    <g transform="matrix(28.9322,0,0,28.9322,180.711,864.126)">
                        <path d="M0.055,-0.131C0.055,-0.089 0.067,-0.055 0.092,-0.029C0.117,-0.003 0.148,0.01 0.186,0.01C0.224,0.01 0.256,-0.003 0.281,-0.03C0.306,-0.057 0.319,-0.091 0.319,-0.133L0.319,-0.375C0.319,-0.417 0.307,-0.451 0.282,-0.477C0.257,-0.503 0.226,-0.516 0.188,-0.516C0.15,-0.516 0.118,-0.503 0.093,-0.476C0.068,-0.449 0.055,-0.415 0.055,-0.373L0.055,-0.131ZM0.095,-0.372C0.095,-0.405 0.104,-0.431 0.121,-0.45C0.138,-0.469 0.16,-0.479 0.187,-0.479C0.214,-0.479 0.236,-0.469 0.253,-0.45C0.27,-0.431 0.279,-0.405 0.279,-0.372L0.279,-0.134C0.279,-0.101 0.27,-0.075 0.253,-0.056C0.236,-0.037 0.214,-0.027 0.187,-0.027C0.16,-0.027 0.138,-0.037 0.121,-0.056C0.104,-0.075 0.095,-0.101 0.095,-0.134L0.095,-0.372Z" style="fill-rule:nonzero;"/>
                    </g>
                    <g transform="matrix(28.9322,0,0,28.9322,190.808,864.126)">
                        <path d="M0.065,-0L0.105,-0L0.105,-0.267L0.276,-0L0.325,-0L0.145,-0.277L0.315,-0.506L0.266,-0.506L0.105,-0.282L0.105,-0.7L0.065,-0.7L0.065,-0Z" style="fill-rule:nonzero;"/>
                    </g>
                    <g transform="matrix(28.9322,0,0,28.9322,199.488,864.126)">
                        <path d="M0.05,-0.134C0.05,-0.091 0.062,-0.057 0.086,-0.03C0.11,-0.003 0.14,0.01 0.177,0.01C0.224,0.01 0.259,-0.011 0.284,-0.052L0.29,-0L0.32,-0L0.32,-0.38C0.32,-0.421 0.308,-0.454 0.284,-0.479C0.26,-0.504 0.23,-0.516 0.194,-0.516C0.158,-0.516 0.128,-0.503 0.104,-0.478C0.08,-0.452 0.068,-0.419 0.068,-0.378L0.068,-0.361L0.106,-0.361L0.106,-0.377C0.106,-0.408 0.114,-0.433 0.131,-0.452C0.147,-0.47 0.168,-0.479 0.193,-0.479C0.218,-0.479 0.239,-0.47 0.256,-0.452C0.272,-0.433 0.28,-0.408 0.28,-0.377L0.28,-0.251C0.255,-0.287 0.222,-0.305 0.179,-0.305C0.142,-0.305 0.112,-0.291 0.087,-0.264C0.062,-0.236 0.05,-0.201 0.05,-0.158L0.05,-0.134ZM0.09,-0.157C0.09,-0.19 0.099,-0.217 0.117,-0.237C0.134,-0.257 0.157,-0.267 0.185,-0.267C0.213,-0.267 0.236,-0.257 0.254,-0.237C0.271,-0.217 0.28,-0.19 0.28,-0.157L0.28,-0.137C0.28,-0.104 0.271,-0.077 0.254,-0.057C0.236,-0.037 0.213,-0.027 0.185,-0.027C0.157,-0.027 0.134,-0.037 0.117,-0.057C0.099,-0.077 0.09,-0.104 0.09,-0.137L0.09,-0.157Z" style="fill-rule:nonzero;"/>
                    </g>
                    <g transform="matrix(28.9322,0,0,28.9322,209.759,864.126)">
                        <path d="M-0.015,0.166L0.016,0.17C0.044,0.17 0.067,0.161 0.085,0.142C0.103,0.123 0.112,0.097 0.112,0.064L0.112,-0.506L0.07,-0.506L0.07,0.063C0.07,0.086 0.065,0.103 0.054,0.115C0.043,0.127 0.028,0.133 0.01,0.133C0.001,0.133 -0.008,0.132 -0.015,0.131L-0.015,0.166ZM0.056,-0.655C0.056,-0.646 0.06,-0.638 0.067,-0.631C0.074,-0.624 0.082,-0.62 0.091,-0.62C0.1,-0.62 0.109,-0.624 0.116,-0.631C0.123,-0.638 0.126,-0.646 0.126,-0.655C0.126,-0.664 0.123,-0.673 0.116,-0.68C0.109,-0.687 0.1,-0.69 0.091,-0.69C0.082,-0.69 0.074,-0.687 0.067,-0.68C0.06,-0.673 0.056,-0.664 0.056,-0.655Z" style="fill-rule:nonzero;"/>
                    </g>
                </g>
                <g transform="matrix(1.19315,0,-0.352137,1.19315,306.974,-414.785)">
                    <g transform="matrix(16.5327,0,0,16.5327,40.197,864.126)">
                        <path d="M0.197,-0.7L0.158,-0.7L0.01,-0L0.051,-0L0.091,-0.199L0.262,-0.199L0.302,-0L0.345,-0L0.197,-0.7ZM0.177,-0.62L0.255,-0.232L0.098,-0.232L0.177,-0.62Z" style="fill-rule:nonzero;"/>
                    </g>
                    <g transform="matrix(16.5327,0,0,16.5327,45.6528,864.126)">
                        <path d="M0.06,-0.506L0.06,-0.123C0.06,-0.083 0.071,-0.051 0.093,-0.027C0.115,-0.002 0.143,0.01 0.177,0.01C0.224,0.01 0.259,-0.009 0.283,-0.047L0.285,-0L0.32,-0L0.32,-0.506L0.28,-0.506L0.28,-0.127C0.279,-0.096 0.27,-0.072 0.252,-0.054C0.234,-0.036 0.212,-0.027 0.186,-0.027C0.159,-0.027 0.138,-0.036 0.123,-0.055C0.108,-0.073 0.1,-0.099 0.1,-0.132L0.1,-0.506L0.06,-0.506Z" style="fill-rule:nonzero;"/>
                    </g>
                    <g transform="matrix(16.5327,0,0,16.5327,51.6046,864.126)">
                        <path d="M0.02,-0.471L0.09,-0.471L0.09,-0.114C0.09,-0.073 0.099,-0.043 0.118,-0.022C0.136,-0.001 0.161,0.01 0.194,0.01C0.211,0.01 0.227,0.008 0.24,0.004L0.24,-0.03L0.202,-0.027C0.154,-0.027 0.13,-0.056 0.13,-0.114L0.13,-0.471L0.245,-0.471L0.245,-0.506L0.13,-0.506L0.13,-0.64L0.09,-0.64L0.09,-0.506L0.02,-0.506L0.02,-0.471Z" style="fill-rule:nonzero;"/>
                    </g>
                    <g transform="matrix(16.5327,0,0,16.5327,55.7378,864.126)">
                        <path d="M0.325,-0L0.325,-0.383C0.325,-0.423 0.314,-0.455 0.292,-0.48C0.27,-0.504 0.242,-0.516 0.208,-0.516C0.164,-0.516 0.13,-0.498 0.105,-0.462L0.105,-0.7L0.065,-0.7L0.065,-0L0.105,-0L0.105,-0.379C0.106,-0.41 0.115,-0.435 0.133,-0.453C0.15,-0.47 0.172,-0.479 0.199,-0.479C0.226,-0.479 0.247,-0.47 0.262,-0.452C0.277,-0.433 0.285,-0.407 0.285,-0.374L0.285,-0L0.325,-0Z" style="fill-rule:nonzero;"/>
                    </g>
                    <g transform="matrix(16.5327,0,0,16.5327,61.6895,864.126)">
                        <path d="M0.055,-0.131C0.055,-0.089 0.067,-0.055 0.092,-0.029C0.117,-0.003 0.148,0.01 0.186,0.01C0.224,0.01 0.256,-0.003 0.281,-0.03C0.306,-0.057 0.319,-0.091 0.319,-0.133L0.319,-0.375C0.319,-0.417 0.307,-0.451 0.282,-0.477C0.257,-0.503 0.226,-0.516 0.188,-0.516C0.15,-0.516 0.118,-0.503 0.093,-0.476C0.068,-0.449 0.055,-0.415 0.055,-0.373L0.055,-0.131ZM0.095,-0.372C0.095,-0.405 0.104,-0.431 0.121,-0.45C0.138,-0.469 0.16,-0.479 0.187,-0.479C0.214,-0.479 0.236,-0.469 0.253,-0.45C0.27,-0.431 0.279,-0.405 0.279,-0.372L0.279,-0.134C0.279,-0.101 0.27,-0.075 0.253,-0.056C0.236,-0.037 0.214,-0.027 0.187,-0.027C0.16,-0.027 0.138,-0.037 0.121,-0.056C0.104,-0.075 0.095,-0.101 0.095,-0.134L0.095,-0.372Z" style="fill-rule:nonzero;"/>
                    </g>
                    <g transform="matrix(16.5327,0,0,16.5327,67.4594,864.126)">
                        <path d="M0.227,-0.516C0.17,-0.516 0.128,-0.493 0.102,-0.448L0.1,-0.506L0.065,-0.506L0.065,-0L0.105,-0L0.105,-0.344C0.105,-0.388 0.115,-0.422 0.136,-0.445C0.157,-0.468 0.184,-0.479 0.219,-0.479L0.227,-0.479L0.227,-0.516Z" style="fill-rule:nonzero;"/>
                    </g>
                    <g transform="matrix(16.5327,0,0,16.5327,73.7253,864.126)">
                        <path d="M0.055,-0.131C0.055,-0.089 0.067,-0.055 0.092,-0.029C0.117,-0.003 0.148,0.01 0.186,0.01C0.224,0.01 0.256,-0.003 0.281,-0.03C0.306,-0.057 0.319,-0.091 0.319,-0.133L0.319,-0.375C0.319,-0.417 0.307,-0.451 0.282,-0.477C0.257,-0.503 0.226,-0.516 0.188,-0.516C0.15,-0.516 0.118,-0.503 0.093,-0.476C0.068,-0.449 0.055,-0.415 0.055,-0.373L0.055,-0.131ZM0.095,-0.372C0.095,-0.405 0.104,-0.431 0.121,-0.45C0.138,-0.469 0.16,-0.479 0.187,-0.479C0.214,-0.479 0.236,-0.469 0.253,-0.45C0.27,-0.431 0.279,-0.405 0.279,-0.372L0.279,-0.134C0.279,-0.101 0.27,-0.075 0.253,-0.056C0.236,-0.037 0.214,-0.027 0.187,-0.027C0.16,-0.027 0.138,-0.037 0.121,-0.056C0.104,-0.075 0.095,-0.101 0.095,-0.134L0.095,-0.372Z" style="fill-rule:nonzero;"/>
                    </g>
                    <g transform="matrix(16.5327,0,0,16.5327,79.4953,864.126)">
                        <path d="M0.02,-0.471L0.09,-0.471L0.09,-0L0.13,-0L0.13,-0.471L0.24,-0.471L0.24,-0.506L0.13,-0.506L0.13,-0.586C0.13,-0.644 0.154,-0.673 0.202,-0.673C0.214,-0.673 0.227,-0.672 0.24,-0.67L0.24,-0.704L0.234,-0.706C0.231,-0.707 0.225,-0.708 0.218,-0.709C0.21,-0.71 0.202,-0.71 0.194,-0.71C0.161,-0.71 0.136,-0.7 0.118,-0.679C0.099,-0.658 0.09,-0.627 0.09,-0.586L0.09,-0.506L0.02,-0.506L0.02,-0.471Z" style="fill-rule:nonzero;"/>
                    </g>
                    <g transform="matrix(16.5327,0,0,16.5327,85.9761,864.126)">
                        <path d="M0.088,-0.563C0.088,-0.597 0.097,-0.624 0.116,-0.644C0.134,-0.663 0.158,-0.673 0.188,-0.673C0.218,-0.673 0.242,-0.663 0.261,-0.643C0.279,-0.622 0.288,-0.594 0.288,-0.558L0.288,-0.53L0.326,-0.53L0.326,-0.561C0.326,-0.606 0.313,-0.643 0.288,-0.67C0.263,-0.697 0.23,-0.71 0.189,-0.71C0.148,-0.71 0.115,-0.697 0.088,-0.67C0.061,-0.643 0.048,-0.608 0.048,-0.564C0.048,-0.497 0.087,-0.427 0.164,-0.356C0.207,-0.317 0.238,-0.282 0.258,-0.249C0.278,-0.216 0.288,-0.181 0.288,-0.142C0.288,-0.106 0.278,-0.078 0.259,-0.058C0.24,-0.037 0.214,-0.027 0.183,-0.027C0.152,-0.027 0.126,-0.038 0.107,-0.059C0.088,-0.08 0.078,-0.11 0.078,-0.147L0.078,-0.185L0.04,-0.185L0.04,-0.144C0.04,-0.097 0.053,-0.06 0.08,-0.032C0.106,-0.004 0.14,0.01 0.182,0.01C0.224,0.01 0.259,-0.004 0.287,-0.032C0.314,-0.059 0.328,-0.096 0.328,-0.141C0.328,-0.186 0.317,-0.228 0.294,-0.266C0.271,-0.304 0.238,-0.344 0.193,-0.385C0.158,-0.417 0.131,-0.447 0.114,-0.474C0.097,-0.501 0.088,-0.531 0.088,-0.563Z" style="fill-rule:nonzero;"/>
                    </g>
                    <g transform="matrix(16.5327,0,0,16.5327,91.6468,864.126)">
                        <path d="M0.319,-0L0.319,-0.379C0.32,-0.41 0.329,-0.435 0.346,-0.453C0.363,-0.47 0.384,-0.479 0.41,-0.479C0.436,-0.479 0.456,-0.47 0.471,-0.452C0.486,-0.433 0.493,-0.407 0.493,-0.374L0.493,-0L0.533,-0L0.533,-0.383C0.533,-0.423 0.523,-0.455 0.502,-0.48C0.481,-0.504 0.453,-0.516 0.419,-0.516C0.394,-0.516 0.372,-0.51 0.353,-0.497C0.333,-0.484 0.318,-0.466 0.308,-0.444C0.289,-0.492 0.254,-0.516 0.205,-0.516C0.16,-0.516 0.125,-0.497 0.102,-0.459L0.1,-0.506L0.065,-0.506L0.065,-0L0.105,-0L0.105,-0.374C0.105,-0.407 0.114,-0.432 0.131,-0.451C0.148,-0.47 0.169,-0.479 0.196,-0.479C0.222,-0.479 0.242,-0.47 0.257,-0.452C0.272,-0.433 0.279,-0.407 0.279,-0.374L0.279,-0L0.319,-0Z" style="fill-rule:nonzero;"/>
                    </g>
                    <g transform="matrix(16.5327,0,0,16.5327,101.037,864.126)">
                        <path d="M0.05,-0.134C0.05,-0.091 0.062,-0.057 0.086,-0.03C0.11,-0.003 0.14,0.01 0.177,0.01C0.224,0.01 0.259,-0.011 0.284,-0.052L0.29,-0L0.32,-0L0.32,-0.38C0.32,-0.421 0.308,-0.454 0.284,-0.479C0.26,-0.504 0.23,-0.516 0.194,-0.516C0.158,-0.516 0.128,-0.503 0.104,-0.478C0.08,-0.452 0.068,-0.419 0.068,-0.378L0.068,-0.361L0.106,-0.361L0.106,-0.377C0.106,-0.408 0.114,-0.433 0.131,-0.452C0.147,-0.47 0.168,-0.479 0.193,-0.479C0.218,-0.479 0.239,-0.47 0.256,-0.452C0.272,-0.433 0.28,-0.408 0.28,-0.377L0.28,-0.251C0.255,-0.287 0.222,-0.305 0.179,-0.305C0.142,-0.305 0.112,-0.291 0.087,-0.264C0.062,-0.236 0.05,-0.201 0.05,-0.158L0.05,-0.134ZM0.09,-0.157C0.09,-0.19 0.099,-0.217 0.117,-0.237C0.134,-0.257 0.157,-0.267 0.185,-0.267C0.213,-0.267 0.236,-0.257 0.254,-0.237C0.271,-0.217 0.28,-0.19 0.28,-0.157L0.28,-0.137C0.28,-0.104 0.271,-0.077 0.254,-0.057C0.236,-0.037 0.213,-0.027 0.185,-0.027C0.157,-0.027 0.134,-0.037 0.117,-0.057C0.099,-0.077 0.09,-0.104 0.09,-0.137L0.09,-0.157Z" style="fill-rule:nonzero;"/>
                    </g>
                    <g transform="matrix(16.5327,0,0,16.5327,106.906,864.126)">
                        <path d="M0.447,-0.03L0.409,-0.027C0.361,-0.027 0.337,-0.056 0.337,-0.114L0.337,-0.471L0.452,-0.471L0.452,-0.506L0.337,-0.506L0.337,-0.64L0.297,-0.64L0.297,-0.114C0.297,-0.073 0.306,-0.043 0.325,-0.022C0.343,-0.001 0.368,0.01 0.401,0.01C0.418,0.01 0.434,0.008 0.447,0.004L0.447,-0.03ZM0.227,-0.516C0.17,-0.516 0.128,-0.493 0.102,-0.448L0.1,-0.506L0.065,-0.506L0.065,-0L0.105,-0L0.105,-0.35C0.106,-0.392 0.116,-0.424 0.137,-0.446C0.158,-0.468 0.185,-0.479 0.219,-0.479L0.227,-0.479L0.227,-0.516Z" style="fill-rule:nonzero;"/>
                    </g>
                    <g transform="matrix(16.5327,0,0,16.5327,117.058,864.126)">
                        <path d="M0.117,-0L0.152,-0L0.227,-0.394L0.303,-0L0.338,-0L0.445,-0.506L0.404,-0.506L0.322,-0.088L0.242,-0.506L0.215,-0.506L0.135,-0.088L0.053,-0.506L0.01,-0.506L0.117,-0Z" style="fill-rule:nonzero;"/>
                    </g>
                    <g transform="matrix(16.5327,0,0,16.5327,124.167,864.126)">
                        <path d="M0.055,-0.131C0.055,-0.089 0.067,-0.055 0.092,-0.029C0.117,-0.003 0.148,0.01 0.186,0.01C0.224,0.01 0.256,-0.003 0.281,-0.03C0.306,-0.057 0.319,-0.091 0.319,-0.133L0.319,-0.375C0.319,-0.417 0.307,-0.451 0.282,-0.477C0.257,-0.503 0.226,-0.516 0.188,-0.516C0.15,-0.516 0.118,-0.503 0.093,-0.476C0.068,-0.449 0.055,-0.415 0.055,-0.373L0.055,-0.131ZM0.095,-0.372C0.095,-0.405 0.104,-0.431 0.121,-0.45C0.138,-0.469 0.16,-0.479 0.187,-0.479C0.214,-0.479 0.236,-0.469 0.253,-0.45C0.27,-0.431 0.279,-0.405 0.279,-0.372L0.279,-0.134C0.279,-0.101 0.27,-0.075 0.253,-0.056C0.236,-0.037 0.214,-0.027 0.187,-0.027C0.16,-0.027 0.138,-0.037 0.121,-0.056C0.104,-0.075 0.095,-0.101 0.095,-0.134L0.095,-0.372Z" style="fill-rule:nonzero;"/>
                    </g>
                    <g transform="matrix(16.5327,0,0,16.5327,129.937,864.126)">
                        <path d="M0.227,-0.516C0.17,-0.516 0.128,-0.493 0.102,-0.448L0.1,-0.506L0.065,-0.506L0.065,-0L0.105,-0L0.105,-0.344C0.105,-0.388 0.115,-0.422 0.136,-0.445C0.157,-0.468 0.184,-0.479 0.219,-0.479L0.227,-0.479L0.227,-0.516Z" style="fill-rule:nonzero;"/>
                    </g>
                    <g transform="matrix(16.5327,0,0,16.5327,133.607,864.126)">
                        <path d="M0.065,-0L0.105,-0L0.105,-0.267L0.276,-0L0.325,-0L0.145,-0.277L0.315,-0.506L0.266,-0.506L0.105,-0.282L0.105,-0.7L0.065,-0.7L0.065,-0Z" style="fill-rule:nonzero;"/>
                    </g>
                    <g transform="matrix(16.5327,0,0,16.5327,141.328,864.126)">
                        <path d="M0.065,-0L0.1,-0L0.102,-0.044C0.124,-0.008 0.158,0.01 0.204,0.01C0.24,0.01 0.27,-0.003 0.294,-0.028C0.317,-0.053 0.329,-0.086 0.329,-0.125L0.329,-0.383C0.329,-0.422 0.318,-0.454 0.295,-0.479C0.272,-0.504 0.242,-0.516 0.206,-0.516C0.162,-0.516 0.128,-0.498 0.105,-0.463L0.105,-0.7L0.065,-0.7L0.065,-0ZM0.289,-0.134C0.289,-0.101 0.28,-0.075 0.263,-0.056C0.246,-0.037 0.224,-0.027 0.197,-0.027C0.17,-0.027 0.148,-0.037 0.131,-0.056C0.114,-0.075 0.105,-0.101 0.105,-0.134L0.105,-0.372C0.105,-0.405 0.114,-0.431 0.131,-0.45C0.148,-0.469 0.17,-0.479 0.197,-0.479C0.224,-0.479 0.246,-0.469 0.263,-0.45C0.28,-0.431 0.289,-0.405 0.289,-0.372L0.289,-0.134Z" style="fill-rule:nonzero;"/>
                    </g>
                    <g transform="matrix(16.5327,0,0,16.5327,147.263,864.126)">
                        <path d="M0.317,-0.266L0.317,-0.375C0.317,-0.418 0.305,-0.452 0.281,-0.478C0.256,-0.503 0.225,-0.516 0.188,-0.516C0.15,-0.516 0.118,-0.503 0.093,-0.476C0.068,-0.449 0.055,-0.415 0.055,-0.373L0.055,-0.131C0.055,-0.089 0.067,-0.055 0.092,-0.029C0.117,-0.003 0.148,0.01 0.186,0.01C0.223,0.01 0.255,-0.003 0.28,-0.03C0.305,-0.056 0.317,-0.09 0.317,-0.133L0.317,-0.155L0.279,-0.155L0.279,-0.134C0.279,-0.101 0.27,-0.075 0.253,-0.056C0.236,-0.037 0.214,-0.027 0.187,-0.027C0.16,-0.027 0.138,-0.037 0.121,-0.056C0.104,-0.075 0.095,-0.101 0.095,-0.134L0.095,-0.266L0.317,-0.266ZM0.095,-0.372C0.095,-0.405 0.104,-0.431 0.121,-0.45C0.138,-0.469 0.16,-0.479 0.187,-0.479C0.214,-0.479 0.236,-0.469 0.253,-0.45C0.27,-0.431 0.279,-0.405 0.279,-0.372L0.279,-0.299L0.095,-0.299L0.095,-0.372Z" style="fill-rule:nonzero;"/>
                    </g>
                    <g transform="matrix(16.5327,0,0,16.5327,153,864.126)">
                        <path d="M0.05,-0.134C0.05,-0.091 0.062,-0.057 0.086,-0.03C0.11,-0.003 0.14,0.01 0.177,0.01C0.224,0.01 0.259,-0.011 0.284,-0.052L0.29,-0L0.32,-0L0.32,-0.38C0.32,-0.421 0.308,-0.454 0.284,-0.479C0.26,-0.504 0.23,-0.516 0.194,-0.516C0.158,-0.516 0.128,-0.503 0.104,-0.478C0.08,-0.452 0.068,-0.419 0.068,-0.378L0.068,-0.361L0.106,-0.361L0.106,-0.377C0.106,-0.408 0.114,-0.433 0.131,-0.452C0.147,-0.47 0.168,-0.479 0.193,-0.479C0.218,-0.479 0.239,-0.47 0.256,-0.452C0.272,-0.433 0.28,-0.408 0.28,-0.377L0.28,-0.251C0.255,-0.287 0.222,-0.305 0.179,-0.305C0.142,-0.305 0.112,-0.291 0.087,-0.264C0.062,-0.236 0.05,-0.201 0.05,-0.158L0.05,-0.134ZM0.09,-0.157C0.09,-0.19 0.099,-0.217 0.117,-0.237C0.134,-0.257 0.157,-0.267 0.185,-0.267C0.213,-0.267 0.236,-0.257 0.254,-0.237C0.271,-0.217 0.28,-0.19 0.28,-0.157L0.28,-0.137C0.28,-0.104 0.271,-0.077 0.254,-0.057C0.236,-0.037 0.213,-0.027 0.185,-0.027C0.157,-0.027 0.134,-0.037 0.117,-0.057C0.099,-0.077 0.09,-0.104 0.09,-0.137L0.09,-0.157Z" style="fill-rule:nonzero;"/>
                    </g>
                    <g transform="matrix(16.5327,0,0,16.5327,158.869,864.126)">
                        <path d="M0.02,-0.471L0.09,-0.471L0.09,-0.114C0.09,-0.073 0.099,-0.043 0.118,-0.022C0.136,-0.001 0.161,0.01 0.194,0.01C0.211,0.01 0.227,0.008 0.24,0.004L0.24,-0.03L0.202,-0.027C0.154,-0.027 0.13,-0.056 0.13,-0.114L0.13,-0.471L0.245,-0.471L0.245,-0.506L0.13,-0.506L0.13,-0.64L0.09,-0.64L0.09,-0.506L0.02,-0.506L0.02,-0.471Z" style="fill-rule:nonzero;"/>
                    </g>
                    <g transform="matrix(16.5327,0,0,16.5327,163.002,864.126)">
                        <path d="M0.262,-0.124C0.262,-0.094 0.253,-0.07 0.236,-0.053C0.219,-0.036 0.197,-0.027 0.17,-0.027C0.143,-0.027 0.121,-0.036 0.104,-0.053C0.087,-0.07 0.078,-0.094 0.078,-0.124L0.078,-0.135L0.04,-0.135L0.04,-0.121C0.04,-0.082 0.052,-0.05 0.077,-0.026C0.101,-0.002 0.132,0.01 0.169,0.01C0.207,0.01 0.239,-0.002 0.264,-0.027C0.289,-0.052 0.302,-0.084 0.302,-0.123C0.302,-0.158 0.292,-0.189 0.272,-0.214C0.252,-0.239 0.221,-0.261 0.18,-0.281C0.147,-0.296 0.124,-0.313 0.11,-0.33C0.095,-0.347 0.088,-0.368 0.088,-0.392C0.088,-0.417 0.096,-0.438 0.113,-0.455C0.13,-0.471 0.15,-0.479 0.175,-0.479C0.2,-0.479 0.22,-0.471 0.237,-0.455C0.254,-0.438 0.262,-0.417 0.262,-0.392L0.262,-0.381L0.3,-0.381L0.3,-0.395C0.3,-0.43 0.288,-0.459 0.265,-0.482C0.242,-0.505 0.212,-0.516 0.176,-0.516C0.14,-0.516 0.11,-0.504 0.085,-0.481C0.06,-0.458 0.048,-0.428 0.048,-0.393C0.048,-0.332 0.084,-0.284 0.156,-0.249C0.194,-0.231 0.221,-0.212 0.238,-0.193C0.254,-0.173 0.262,-0.15 0.262,-0.124Z" style="fill-rule:nonzero;"/>
                    </g>
                    <g transform="matrix(16.5327,0,0,16.5327,170.838,864.126)">
                        <path d="M0.325,-0L0.325,-0.383C0.325,-0.423 0.314,-0.455 0.292,-0.48C0.27,-0.504 0.242,-0.516 0.208,-0.516C0.164,-0.516 0.13,-0.498 0.105,-0.462L0.105,-0.7L0.065,-0.7L0.065,-0L0.105,-0L0.105,-0.379C0.106,-0.41 0.115,-0.435 0.133,-0.453C0.15,-0.47 0.172,-0.479 0.199,-0.479C0.226,-0.479 0.247,-0.47 0.262,-0.452C0.277,-0.433 0.285,-0.407 0.285,-0.374L0.285,-0L0.325,-0Z" style="fill-rule:nonzero;"/>
                    </g>
                    <g transform="matrix(16.5327,0,0,16.5327,176.79,864.126)">
                        <path d="M0.05,-0.134C0.05,-0.091 0.062,-0.057 0.086,-0.03C0.11,-0.003 0.14,0.01 0.177,0.01C0.224,0.01 0.259,-0.011 0.284,-0.052L0.29,-0L0.32,-0L0.32,-0.38C0.32,-0.421 0.308,-0.454 0.284,-0.479C0.26,-0.504 0.23,-0.516 0.194,-0.516C0.158,-0.516 0.128,-0.503 0.104,-0.478C0.08,-0.452 0.068,-0.419 0.068,-0.378L0.068,-0.361L0.106,-0.361L0.106,-0.377C0.106,-0.408 0.114,-0.433 0.131,-0.452C0.147,-0.47 0.168,-0.479 0.193,-0.479C0.218,-0.479 0.239,-0.47 0.256,-0.452C0.272,-0.433 0.28,-0.408 0.28,-0.377L0.28,-0.251C0.255,-0.287 0.222,-0.305 0.179,-0.305C0.142,-0.305 0.112,-0.291 0.087,-0.264C0.062,-0.236 0.05,-0.201 0.05,-0.158L0.05,-0.134ZM0.09,-0.157C0.09,-0.19 0.099,-0.217 0.117,-0.237C0.134,-0.257 0.157,-0.267 0.185,-0.267C0.213,-0.267 0.236,-0.257 0.254,-0.237C0.271,-0.217 0.28,-0.19 0.28,-0.157L0.28,-0.137C0.28,-0.104 0.271,-0.077 0.254,-0.057C0.236,-0.037 0.213,-0.027 0.185,-0.027C0.157,-0.027 0.134,-0.037 0.117,-0.057C0.099,-0.077 0.09,-0.104 0.09,-0.137L0.09,-0.157Z" style="fill-rule:nonzero;"/>
                    </g>
                    <g transform="matrix(16.5327,0,0,16.5327,182.659,864.126)">
                        <path d="M0.227,-0.516C0.17,-0.516 0.128,-0.493 0.102,-0.448L0.1,-0.506L0.065,-0.506L0.065,-0L0.105,-0L0.105,-0.344C0.105,-0.388 0.115,-0.422 0.136,-0.445C0.157,-0.468 0.184,-0.479 0.219,-0.479L0.227,-0.479L0.227,-0.516Z" style="fill-rule:nonzero;"/>
                    </g>
                    <g transform="matrix(16.5327,0,0,16.5327,186.33,864.126)">
                        <path d="M0.319,-0.7L0.279,-0.7L0.279,-0.466C0.256,-0.499 0.223,-0.516 0.18,-0.516C0.144,-0.516 0.114,-0.503 0.091,-0.478C0.067,-0.453 0.055,-0.42 0.055,-0.381L0.055,-0.123C0.055,-0.084 0.067,-0.052 0.09,-0.027C0.113,-0.002 0.142,0.01 0.178,0.01C0.224,0.01 0.259,-0.009 0.282,-0.047L0.284,-0L0.319,-0L0.319,-0.7ZM0.095,-0.372C0.095,-0.405 0.104,-0.431 0.121,-0.45C0.138,-0.469 0.16,-0.479 0.187,-0.479C0.214,-0.479 0.236,-0.469 0.253,-0.45C0.27,-0.431 0.279,-0.405 0.279,-0.372L0.279,-0.134C0.279,-0.101 0.27,-0.075 0.253,-0.056C0.236,-0.037 0.214,-0.027 0.187,-0.027C0.16,-0.027 0.138,-0.037 0.121,-0.056C0.104,-0.075 0.095,-0.101 0.095,-0.134L0.095,-0.372Z" style="fill-rule:nonzero;"/>
                    </g>
                    <g transform="matrix(16.5327,0,0,16.5327,194.861,864.126)">
                        <path d="M0.117,-0L0.152,-0L0.227,-0.394L0.303,-0L0.338,-0L0.445,-0.506L0.404,-0.506L0.322,-0.088L0.242,-0.506L0.215,-0.506L0.135,-0.088L0.053,-0.506L0.01,-0.506L0.117,-0Z" style="fill-rule:nonzero;"/>
                    </g>
                    <g transform="matrix(16.5327,0,0,16.5327,201.97,864.126)">
                        <path d="M0.055,-0.131C0.055,-0.089 0.067,-0.055 0.092,-0.029C0.117,-0.003 0.148,0.01 0.186,0.01C0.224,0.01 0.256,-0.003 0.281,-0.03C0.306,-0.057 0.319,-0.091 0.319,-0.133L0.319,-0.375C0.319,-0.417 0.307,-0.451 0.282,-0.477C0.257,-0.503 0.226,-0.516 0.188,-0.516C0.15,-0.516 0.118,-0.503 0.093,-0.476C0.068,-0.449 0.055,-0.415 0.055,-0.373L0.055,-0.131ZM0.095,-0.372C0.095,-0.405 0.104,-0.431 0.121,-0.45C0.138,-0.469 0.16,-0.479 0.187,-0.479C0.214,-0.479 0.236,-0.469 0.253,-0.45C0.27,-0.431 0.279,-0.405 0.279,-0.372L0.279,-0.134C0.279,-0.101 0.27,-0.075 0.253,-0.056C0.236,-0.037 0.214,-0.027 0.187,-0.027C0.16,-0.027 0.138,-0.037 0.121,-0.056C0.104,-0.075 0.095,-0.101 0.095,-0.134L0.095,-0.372Z" style="fill-rule:nonzero;"/>
                    </g>
                    <g transform="matrix(16.5327,0,0,16.5327,207.739,864.126)">
                        <path d="M0.227,-0.516C0.17,-0.516 0.128,-0.493 0.102,-0.448L0.1,-0.506L0.065,-0.506L0.065,-0L0.105,-0L0.105,-0.344C0.105,-0.388 0.115,-0.422 0.136,-0.445C0.157,-0.468 0.184,-0.479 0.219,-0.479L0.227,-0.479L0.227,-0.516Z" style="fill-rule:nonzero;"/>
                    </g>
                    <g transform="matrix(16.5327,0,0,16.5327,211.41,864.126)">
                        <path d="M0.065,-0L0.105,-0L0.105,-0.267L0.276,-0L0.325,-0L0.145,-0.277L0.315,-0.506L0.266,-0.506L0.105,-0.282L0.105,-0.7L0.065,-0.7L0.065,-0Z" style="fill-rule:nonzero;"/>
                    </g>
                </g>
            </g>
            <g id="Title" transform="matrix(0.892535,0,0,0.892535,3.27874,30.5476)">
                <g id="Subtitle" transform="matrix(1,0,0,1,11.1317,16.9786)">
                    <g transform="matrix(0.24916,0,0,0.139109,-513.859,122.7)">
                        <rect x="2499.72" y="1234.23" width="767.883" height="15.489"/>
                    </g>
                    <g transform="matrix(0.278292,0,0,0.282976,-567.857,-261.629)">
                        <g id="Subtitle1" serif:id="Subtitle">
                            <g transform="matrix(187.5,0,0,187.5,2120.82,1720.84)">
                                <path d="M0.197,-0.7L0.158,-0.7L0.01,-0L0.051,-0L0.091,-0.199L0.262,-0.199L0.302,-0L0.345,-0L0.197,-0.7ZM0.177,-0.62L0.255,-0.232L0.098,-0.232L0.177,-0.62Z" style="fill-rule:nonzero;"/>
                            </g>
                            <g transform="matrix(187.5,0,0,187.5,2221.51,1720.84)">
                                <path d="M0.065,0.16L0.105,0.16L0.105,-0.04C0.128,-0.007 0.161,0.01 0.204,0.01C0.24,0.01 0.27,-0.003 0.294,-0.028C0.317,-0.053 0.329,-0.086 0.329,-0.125L0.329,-0.383C0.329,-0.422 0.318,-0.454 0.295,-0.479C0.272,-0.504 0.242,-0.516 0.206,-0.516C0.161,-0.516 0.126,-0.497 0.102,-0.459L0.1,-0.506L0.065,-0.506L0.065,0.16ZM0.289,-0.134C0.289,-0.101 0.28,-0.075 0.263,-0.056C0.246,-0.037 0.224,-0.027 0.197,-0.027C0.17,-0.027 0.148,-0.037 0.131,-0.056C0.114,-0.075 0.105,-0.101 0.105,-0.134L0.105,-0.372C0.105,-0.405 0.114,-0.431 0.131,-0.45C0.148,-0.469 0.17,-0.479 0.197,-0.479C0.224,-0.479 0.246,-0.469 0.263,-0.45C0.28,-0.431 0.289,-0.405 0.289,-0.372L0.289,-0.134Z" style="fill-rule:nonzero;"/>
                            </g>
                            <g transform="matrix(187.5,0,0,187.5,2293.51,1720.84)">
                                <path d="M0.227,-0.516C0.17,-0.516 0.128,-0.493 0.102,-0.448L0.1,-0.506L0.065,-0.506L0.065,-0L0.105,-0L0.105,-0.344C0.105,-0.388 0.115,-0.422 0.136,-0.445C0.157,-0.468 0.184,-0.479 0.219,-0.479L0.227,-0.479L0.227,-0.516Z" style="fill-rule:nonzero;"/>
                            </g>
                            <g transform="matrix(187.5,0,0,187.5,2336.07,1720.84)">
                                <path d="M0.317,-0.266L0.317,-0.375C0.317,-0.418 0.305,-0.452 0.281,-0.478C0.256,-0.503 0.225,-0.516 0.188,-0.516C0.15,-0.516 0.118,-0.503 0.093,-0.476C0.068,-0.449 0.055,-0.415 0.055,-0.373L0.055,-0.131C0.055,-0.089 0.067,-0.055 0.092,-0.029C0.117,-0.003 0.148,0.01 0.186,0.01C0.223,0.01 0.255,-0.003 0.28,-0.03C0.305,-0.056 0.317,-0.09 0.317,-0.133L0.317,-0.155L0.279,-0.155L0.279,-0.134C0.279,-0.101 0.27,-0.075 0.253,-0.056C0.236,-0.037 0.214,-0.027 0.187,-0.027C0.16,-0.027 0.138,-0.037 0.121,-0.056C0.104,-0.075 0.095,-0.101 0.095,-0.134L0.095,-0.266L0.317,-0.266ZM0.095,-0.372C0.095,-0.405 0.104,-0.431 0.121,-0.45C0.138,-0.469 0.16,-0.479 0.187,-0.479C0.214,-0.479 0.236,-0.469 0.253,-0.45C0.27,-0.431 0.279,-0.405 0.279,-0.372L0.279,-0.299L0.095,-0.299L0.095,-0.372Z" style="fill-rule:nonzero;"/>
                            </g>
                            <g transform="matrix(187.5,0,0,187.5,2405.82,1720.84)">
                                <path d="M0.065,0.16L0.105,0.16L0.105,-0.04C0.128,-0.007 0.161,0.01 0.204,0.01C0.24,0.01 0.27,-0.003 0.294,-0.028C0.317,-0.053 0.329,-0.086 0.329,-0.125L0.329,-0.383C0.329,-0.422 0.318,-0.454 0.295,-0.479C0.272,-0.504 0.242,-0.516 0.206,-0.516C0.161,-0.516 0.126,-0.497 0.102,-0.459L0.1,-0.506L0.065,-0.506L0.065,0.16ZM0.289,-0.134C0.289,-0.101 0.28,-0.075 0.263,-0.056C0.246,-0.037 0.224,-0.027 0.197,-0.027C0.17,-0.027 0.148,-0.037 0.131,-0.056C0.114,-0.075 0.105,-0.101 0.105,-0.134L0.105,-0.372C0.105,-0.405 0.114,-0.431 0.131,-0.45C0.148,-0.469 0.17,-0.479 0.197,-0.479C0.224,-0.479 0.246,-0.469 0.263,-0.45C0.28,-0.431 0.289,-0.405 0.289,-0.372L0.289,-0.134Z" style="fill-rule:nonzero;"/>
                            </g>
                            <g transform="matrix(187.5,0,0,187.5,2477.82,1720.84)">
                                <path d="M0.05,-0.134C0.05,-0.091 0.062,-0.057 0.086,-0.03C0.11,-0.003 0.14,0.01 0.177,0.01C0.224,0.01 0.259,-0.011 0.284,-0.052L0.29,-0L0.32,-0L0.32,-0.38C0.32,-0.421 0.308,-0.454 0.284,-0.479C0.26,-0.504 0.23,-0.516 0.194,-0.516C0.158,-0.516 0.128,-0.503 0.104,-0.478C0.08,-0.452 0.068,-0.419 0.068,-0.378L0.068,-0.361L0.106,-0.361L0.106,-0.377C0.106,-0.408 0.114,-0.433 0.131,-0.452C0.147,-0.47 0.168,-0.479 0.193,-0.479C0.218,-0.479 0.239,-0.47 0.256,-0.452C0.272,-0.433 0.28,-0.408 0.28,-0.377L0.28,-0.251C0.255,-0.287 0.222,-0.305 0.179,-0.305C0.142,-0.305 0.112,-0.291 0.087,-0.264C0.062,-0.236 0.05,-0.201 0.05,-0.158L0.05,-0.134ZM0.09,-0.157C0.09,-0.19 0.099,-0.217 0.117,-0.237C0.134,-0.257 0.157,-0.267 0.185,-0.267C0.213,-0.267 0.236,-0.257 0.254,-0.237C0.271,-0.217 0.28,-0.19 0.28,-0.157L0.28,-0.137C0.28,-0.104 0.271,-0.077 0.254,-0.057C0.236,-0.037 0.213,-0.027 0.185,-0.027C0.157,-0.027 0.134,-0.037 0.117,-0.057C0.099,-0.077 0.09,-0.104 0.09,-0.137L0.09,-0.157Z" style="fill-rule:nonzero;"/>
                            </g>
                            <g transform="matrix(187.5,0,0,187.5,2549.07,1720.84)">
                                <path d="M0.227,-0.516C0.17,-0.516 0.128,-0.493 0.102,-0.448L0.1,-0.506L0.065,-0.506L0.065,-0L0.105,-0L0.105,-0.344C0.105,-0.388 0.115,-0.422 0.136,-0.445C0.157,-0.468 0.184,-0.479 0.219,-0.479L0.227,-0.479L0.227,-0.516Z" style="fill-rule:nonzero;"/>
                            </g>
                            <g transform="matrix(187.5,0,0,187.5,2591.63,1720.84)">
                                <path d="M0.05,-0.134C0.05,-0.091 0.062,-0.057 0.086,-0.03C0.11,-0.003 0.14,0.01 0.177,0.01C0.224,0.01 0.259,-0.011 0.284,-0.052L0.29,-0L0.32,-0L0.32,-0.38C0.32,-0.421 0.308,-0.454 0.284,-0.479C0.26,-0.504 0.23,-0.516 0.194,-0.516C0.158,-0.516 0.128,-0.503 0.104,-0.478C0.08,-0.452 0.068,-0.419 0.068,-0.378L0.068,-0.361L0.106,-0.361L0.106,-0.377C0.106,-0.408 0.114,-0.433 0.131,-0.452C0.147,-0.47 0.168,-0.479 0.193,-0.479C0.218,-0.479 0.239,-0.47 0.256,-0.452C0.272,-0.433 0.28,-0.408 0.28,-0.377L0.28,-0.251C0.255,-0.287 0.222,-0.305 0.179,-0.305C0.142,-0.305 0.112,-0.291 0.087,-0.264C0.062,-0.236 0.05,-0.201 0.05,-0.158L0.05,-0.134ZM0.09,-0.157C0.09,-0.19 0.099,-0.217 0.117,-0.237C0.134,-0.257 0.157,-0.267 0.185,-0.267C0.213,-0.267 0.236,-0.257 0.254,-0.237C0.271,-0.217 0.28,-0.19 0.28,-0.157L0.28,-0.137C0.28,-0.104 0.271,-0.077 0.254,-0.057C0.236,-0.037 0.213,-0.027 0.185,-0.027C0.157,-0.027 0.134,-0.037 0.117,-0.057C0.099,-0.077 0.09,-0.104 0.09,-0.137L0.09,-0.157Z" style="fill-rule:nonzero;"/>
                            </g>
                            <g transform="matrix(187.5,0,0,187.5,2661.95,1720.84)">
                                <path d="M0.02,-0.471L0.09,-0.471L0.09,-0.114C0.09,-0.073 0.099,-0.043 0.118,-0.022C0.136,-0.001 0.161,0.01 0.194,0.01C0.211,0.01 0.227,0.008 0.24,0.004L0.24,-0.03L0.202,-0.027C0.154,-0.027 0.13,-0.056 0.13,-0.114L0.13,-0.471L0.245,-0.471L0.245,-0.506L0.13,-0.506L0.13,-0.64L0.09,-0.64L0.09,-0.506L0.02,-0.506L0.02,-0.471Z" style="fill-rule:nonzero;"/>
                            </g>
                            <g transform="matrix(187.5,0,0,187.5,2713.51,1720.84)">
                                <path d="M0.07,-0L0.112,-0L0.112,-0.506L0.07,-0.506L0.07,-0ZM0.056,-0.655C0.056,-0.646 0.06,-0.638 0.067,-0.631C0.074,-0.624 0.082,-0.62 0.091,-0.62C0.1,-0.62 0.109,-0.624 0.116,-0.631C0.123,-0.638 0.126,-0.646 0.126,-0.655C0.126,-0.664 0.123,-0.673 0.116,-0.68C0.109,-0.687 0.1,-0.69 0.091,-0.69C0.082,-0.69 0.074,-0.687 0.067,-0.68C0.06,-0.673 0.056,-0.664 0.056,-0.655Z" style="fill-rule:nonzero;"/>
                            </g>
                            <g transform="matrix(187.5,0,0,187.5,2747.63,1720.84)">
                                <path d="M0.055,-0.131C0.055,-0.089 0.067,-0.055 0.092,-0.029C0.117,-0.003 0.148,0.01 0.186,0.01C0.224,0.01 0.256,-0.003 0.281,-0.03C0.306,-0.057 0.319,-0.091 0.319,-0.133L0.319,-0.375C0.319,-0.417 0.307,-0.451 0.282,-0.477C0.257,-0.503 0.226,-0.516 0.188,-0.516C0.15,-0.516 0.118,-0.503 0.093,-0.476C0.068,-0.449 0.055,-0.415 0.055,-0.373L0.055,-0.131ZM0.095,-0.372C0.095,-0.405 0.104,-0.431 0.121,-0.45C0.138,-0.469 0.16,-0.479 0.187,-0.479C0.214,-0.479 0.236,-0.469 0.253,-0.45C0.27,-0.431 0.279,-0.405 0.279,-0.372L0.279,-0.134C0.279,-0.101 0.27,-0.075 0.253,-0.056C0.236,-0.037 0.214,-0.027 0.187,-0.027C0.16,-0.027 0.138,-0.037 0.121,-0.056C0.104,-0.075 0.095,-0.101 0.095,-0.134L0.095,-0.372Z" style="fill-rule:nonzero;"/>
                            </g>
                            <g transform="matrix(187.5,0,0,187.5,2817.76,1720.84)">
                                <path d="M0.325,-0L0.325,-0.383C0.325,-0.423 0.314,-0.455 0.292,-0.48C0.27,-0.504 0.242,-0.516 0.208,-0.516C0.161,-0.516 0.125,-0.497 0.102,-0.458L0.1,-0.506L0.065,-0.506L0.065,-0L0.105,-0L0.105,-0.374C0.105,-0.407 0.114,-0.432 0.132,-0.451C0.15,-0.47 0.172,-0.479 0.199,-0.479C0.226,-0.479 0.247,-0.47 0.262,-0.452C0.277,-0.433 0.285,-0.407 0.285,-0.374L0.285,-0L0.325,-0Z" style="fill-rule:nonzero;"/>
                            </g>
                            <g transform="matrix(187.5,0,0,187.5,2924.07,1720.84)">
                                <path d="M0.319,-0L0.319,-0.379C0.32,-0.41 0.329,-0.435 0.346,-0.453C0.363,-0.47 0.384,-0.479 0.41,-0.479C0.436,-0.479 0.456,-0.47 0.471,-0.452C0.486,-0.433 0.493,-0.407 0.493,-0.374L0.493,-0L0.533,-0L0.533,-0.383C0.533,-0.423 0.523,-0.455 0.502,-0.48C0.481,-0.504 0.453,-0.516 0.419,-0.516C0.394,-0.516 0.372,-0.51 0.353,-0.497C0.333,-0.484 0.318,-0.466 0.308,-0.444C0.289,-0.492 0.254,-0.516 0.205,-0.516C0.16,-0.516 0.125,-0.497 0.102,-0.459L0.1,-0.506L0.065,-0.506L0.065,-0L0.105,-0L0.105,-0.374C0.105,-0.407 0.114,-0.432 0.131,-0.451C0.148,-0.47 0.169,-0.479 0.196,-0.479C0.222,-0.479 0.242,-0.47 0.257,-0.452C0.272,-0.433 0.279,-0.407 0.279,-0.374L0.279,-0L0.319,-0Z" style="fill-rule:nonzero;"/>
                            </g>
                            <g transform="matrix(187.5,0,0,187.5,3035.26,1720.84)">
                                <path d="M0.05,-0.134C0.05,-0.091 0.062,-0.057 0.086,-0.03C0.11,-0.003 0.14,0.01 0.177,0.01C0.224,0.01 0.259,-0.011 0.284,-0.052L0.29,-0L0.32,-0L0.32,-0.38C0.32,-0.421 0.308,-0.454 0.284,-0.479C0.26,-0.504 0.23,-0.516 0.194,-0.516C0.158,-0.516 0.128,-0.503 0.104,-0.478C0.08,-0.452 0.068,-0.419 0.068,-0.378L0.068,-0.361L0.106,-0.361L0.106,-0.377C0.106,-0.408 0.114,-0.433 0.131,-0.452C0.147,-0.47 0.168,-0.479 0.193,-0.479C0.218,-0.479 0.239,-0.47 0.256,-0.452C0.272,-0.433 0.28,-0.408 0.28,-0.377L0.28,-0.251C0.255,-0.287 0.222,-0.305 0.179,-0.305C0.142,-0.305 0.112,-0.291 0.087,-0.264C0.062,-0.236 0.05,-0.201 0.05,-0.158L0.05,-0.134ZM0.09,-0.157C0.09,-0.19 0.099,-0.217 0.117,-0.237C0.134,-0.257 0.157,-0.267 0.185,-0.267C0.213,-0.267 0.236,-0.257 0.254,-0.237C0.271,-0.217 0.28,-0.19 0.28,-0.157L0.28,-0.137C0.28,-0.104 0.271,-0.077 0.254,-0.057C0.236,-0.037 0.213,-0.027 0.185,-0.027C0.157,-0.027 0.134,-0.037 0.117,-0.057C0.099,-0.077 0.09,-0.104 0.09,-0.137L0.09,-0.157Z" style="fill-rule:nonzero;"/>
                            </g>
                            <g transform="matrix(187.5,0,0,187.5,3106.51,1720.84)">
                                <path d="M0.325,-0L0.325,-0.383C0.325,-0.423 0.314,-0.455 0.292,-0.48C0.27,-0.504 0.242,-0.516 0.208,-0.516C0.161,-0.516 0.125,-0.497 0.102,-0.458L0.1,-0.506L0.065,-0.506L0.065,-0L0.105,-0L0.105,-0.374C0.105,-0.407 0.114,-0.432 0.132,-0.451C0.15,-0.47 0.172,-0.479 0.199,-0.479C0.226,-0.479 0.247,-0.47 0.262,-0.452C0.277,-0.433 0.285,-0.407 0.285,-0.374L0.285,-0L0.325,-0Z" style="fill-rule:nonzero;"/>
                            </g>
                            <g transform="matrix(187.5,0,0,187.5,3178.7,1720.84)">
                                <path d="M0.06,-0.506L0.06,-0.123C0.06,-0.083 0.071,-0.051 0.093,-0.027C0.115,-0.002 0.143,0.01 0.177,0.01C0.224,0.01 0.259,-0.009 0.283,-0.047L0.285,-0L0.32,-0L0.32,-0.506L0.28,-0.506L0.28,-0.127C0.279,-0.096 0.27,-0.072 0.252,-0.054C0.234,-0.036 0.212,-0.027 0.186,-0.027C0.159,-0.027 0.138,-0.036 0.123,-0.055C0.108,-0.073 0.1,-0.099 0.1,-0.132L0.1,-0.506L0.06,-0.506Z" style="fill-rule:nonzero;"/>
                            </g>
                            <g transform="matrix(187.5,0,0,187.5,3250.88,1720.84)">
                                <path d="M0.05,-0.134C0.05,-0.091 0.062,-0.057 0.086,-0.03C0.11,-0.003 0.14,0.01 0.177,0.01C0.224,0.01 0.259,-0.011 0.284,-0.052L0.29,-0L0.32,-0L0.32,-0.38C0.32,-0.421 0.308,-0.454 0.284,-0.479C0.26,-0.504 0.23,-0.516 0.194,-0.516C0.158,-0.516 0.128,-0.503 0.104,-0.478C0.08,-0.452 0.068,-0.419 0.068,-0.378L0.068,-0.361L0.106,-0.361L0.106,-0.377C0.106,-0.408 0.114,-0.433 0.131,-0.452C0.147,-0.47 0.168,-0.479 0.193,-0.479C0.218,-0.479 0.239,-0.47 0.256,-0.452C0.272,-0.433 0.28,-0.408 0.28,-0.377L0.28,-0.251C0.255,-0.287 0.222,-0.305 0.179,-0.305C0.142,-0.305 0.112,-0.291 0.087,-0.264C0.062,-0.236 0.05,-0.201 0.05,-0.158L0.05,-0.134ZM0.09,-0.157C0.09,-0.19 0.099,-0.217 0.117,-0.237C0.134,-0.257 0.157,-0.267 0.185,-0.267C0.213,-0.267 0.236,-0.257 0.254,-0.237C0.271,-0.217 0.28,-0.19 0.28,-0.157L0.28,-0.137C0.28,-0.104 0.271,-0.077 0.254,-0.057C0.236,-0.037 0.213,-0.027 0.185,-0.027C0.157,-0.027 0.134,-0.037 0.117,-0.057C0.099,-0.077 0.09,-0.104 0.09,-0.137L0.09,-0.157Z" style="fill-rule:nonzero;"/>
                            </g>
                            <g transform="matrix(187.5,0,0,187.5,3322.13,1720.84)">
                                <rect x="0.07" y="-0.7" width="0.042" height="0.7" style="fill-rule:nonzero;"/>
                            </g>
                            <g transform="matrix(187.5,0,0,187.5,2120.82,1940.22)">
                                <path d="M0.02,-0.471L0.09,-0.471L0.09,-0L0.13,-0L0.13,-0.471L0.24,-0.471L0.24,-0.506L0.13,-0.506L0.13,-0.586C0.13,-0.644 0.154,-0.673 0.202,-0.673C0.214,-0.673 0.227,-0.672 0.24,-0.67L0.24,-0.704L0.234,-0.706C0.231,-0.707 0.225,-0.708 0.218,-0.709C0.21,-0.71 0.202,-0.71 0.194,-0.71C0.161,-0.71 0.136,-0.7 0.118,-0.679C0.099,-0.658 0.09,-0.627 0.09,-0.586L0.09,-0.506L0.02,-0.506L0.02,-0.471Z" style="fill-rule:nonzero;"/>
                            </g>
                            <g transform="matrix(187.5,0,0,187.5,2166.76,1940.22)">
                                <path d="M0.055,-0.131C0.055,-0.089 0.067,-0.055 0.092,-0.029C0.117,-0.003 0.148,0.01 0.186,0.01C0.224,0.01 0.256,-0.003 0.281,-0.03C0.306,-0.057 0.319,-0.091 0.319,-0.133L0.319,-0.375C0.319,-0.417 0.307,-0.451 0.282,-0.477C0.257,-0.503 0.226,-0.516 0.188,-0.516C0.15,-0.516 0.118,-0.503 0.093,-0.476C0.068,-0.449 0.055,-0.415 0.055,-0.373L0.055,-0.131ZM0.095,-0.372C0.095,-0.405 0.104,-0.431 0.121,-0.45C0.138,-0.469 0.16,-0.479 0.187,-0.479C0.214,-0.479 0.236,-0.469 0.253,-0.45C0.27,-0.431 0.279,-0.405 0.279,-0.372L0.279,-0.134C0.279,-0.101 0.27,-0.075 0.253,-0.056C0.236,-0.037 0.214,-0.027 0.187,-0.027C0.16,-0.027 0.138,-0.037 0.121,-0.056C0.104,-0.075 0.095,-0.101 0.095,-0.134L0.095,-0.372Z" style="fill-rule:nonzero;"/>
                            </g>
                            <g transform="matrix(187.5,0,0,187.5,2236.88,1940.22)">
                                <path d="M0.227,-0.516C0.17,-0.516 0.128,-0.493 0.102,-0.448L0.1,-0.506L0.065,-0.506L0.065,-0L0.105,-0L0.105,-0.344C0.105,-0.388 0.115,-0.422 0.136,-0.445C0.157,-0.468 0.184,-0.479 0.219,-0.479L0.227,-0.479L0.227,-0.516Z" style="fill-rule:nonzero;"/>
                            </g>
                            <g transform="matrix(187.5,0,0,187.5,2317.32,1940.22)">
                                <path d="M0.05,-0.134C0.05,-0.091 0.062,-0.057 0.086,-0.03C0.11,-0.003 0.14,0.01 0.177,0.01C0.224,0.01 0.259,-0.011 0.284,-0.052L0.29,-0L0.32,-0L0.32,-0.38C0.32,-0.421 0.308,-0.454 0.284,-0.479C0.26,-0.504 0.23,-0.516 0.194,-0.516C0.158,-0.516 0.128,-0.503 0.104,-0.478C0.08,-0.452 0.068,-0.419 0.068,-0.378L0.068,-0.361L0.106,-0.361L0.106,-0.377C0.106,-0.408 0.114,-0.433 0.131,-0.452C0.147,-0.47 0.168,-0.479 0.193,-0.479C0.218,-0.479 0.239,-0.47 0.256,-0.452C0.272,-0.433 0.28,-0.408 0.28,-0.377L0.28,-0.251C0.255,-0.287 0.222,-0.305 0.179,-0.305C0.142,-0.305 0.112,-0.291 0.087,-0.264C0.062,-0.236 0.05,-0.201 0.05,-0.158L0.05,-0.134ZM0.09,-0.157C0.09,-0.19 0.099,-0.217 0.117,-0.237C0.134,-0.257 0.157,-0.267 0.185,-0.267C0.213,-0.267 0.236,-0.257 0.254,-0.237C0.271,-0.217 0.28,-0.19 0.28,-0.157L0.28,-0.137C0.28,-0.104 0.271,-0.077 0.254,-0.057C0.236,-0.037 0.213,-0.027 0.185,-0.027C0.157,-0.027 0.134,-0.037 0.117,-0.057C0.099,-0.077 0.09,-0.104 0.09,-0.137L0.09,-0.157Z" style="fill-rule:nonzero;"/>
                            </g>
                            <g transform="matrix(187.5,0,0,187.5,2422.7,1940.22)">
                                <path d="M0.075,-0L0.115,-0L0.31,-0.675L0.31,-0.7L0.03,-0.7L0.03,-0.665L0.269,-0.665L0.075,-0Z" style="fill-rule:nonzero;"/>
                            </g>
                            <g transform="matrix(187.5,0,0,187.5,2486.45,1940.22)">
                                <path d="M0.313,-0L0.313,-0.035L0.101,-0.035L0.267,-0.39C0.298,-0.454 0.313,-0.511 0.313,-0.561C0.313,-0.606 0.301,-0.643 0.276,-0.67C0.251,-0.697 0.22,-0.71 0.181,-0.71C0.142,-0.71 0.111,-0.697 0.087,-0.671C0.062,-0.644 0.05,-0.609 0.05,-0.566L0.05,-0.5L0.088,-0.5L0.088,-0.565C0.088,-0.599 0.097,-0.626 0.114,-0.645C0.131,-0.664 0.153,-0.673 0.18,-0.673C0.207,-0.673 0.23,-0.664 0.247,-0.645C0.264,-0.626 0.273,-0.599 0.273,-0.565C0.273,-0.514 0.26,-0.463 0.235,-0.41L0.053,-0.025L0.053,-0L0.313,-0Z" style="fill-rule:nonzero;"/>
                            </g>
                            <g transform="matrix(187.5,0,0,187.5,2588.63,1940.22)">
                                <path d="M0.325,-0L0.325,-0.383C0.325,-0.423 0.314,-0.455 0.292,-0.48C0.27,-0.504 0.242,-0.516 0.208,-0.516C0.164,-0.516 0.13,-0.498 0.105,-0.462L0.105,-0.7L0.065,-0.7L0.065,-0L0.105,-0L0.105,-0.379C0.106,-0.41 0.115,-0.435 0.133,-0.453C0.15,-0.47 0.172,-0.479 0.199,-0.479C0.226,-0.479 0.247,-0.47 0.262,-0.452C0.277,-0.433 0.285,-0.407 0.285,-0.374L0.285,-0L0.325,-0Z" style="fill-rule:nonzero;"/>
                            </g>
                            <g transform="matrix(187.5,0,0,187.5,2660.82,1940.22)">
                                <path d="M0.055,-0.131C0.055,-0.089 0.067,-0.055 0.092,-0.029C0.117,-0.003 0.148,0.01 0.186,0.01C0.224,0.01 0.256,-0.003 0.281,-0.03C0.306,-0.057 0.319,-0.091 0.319,-0.133L0.319,-0.375C0.319,-0.417 0.307,-0.451 0.282,-0.477C0.257,-0.503 0.226,-0.516 0.188,-0.516C0.15,-0.516 0.118,-0.503 0.093,-0.476C0.068,-0.449 0.055,-0.415 0.055,-0.373L0.055,-0.131ZM0.095,-0.372C0.095,-0.405 0.104,-0.431 0.121,-0.45C0.138,-0.469 0.16,-0.479 0.187,-0.479C0.214,-0.479 0.236,-0.469 0.253,-0.45C0.27,-0.431 0.279,-0.405 0.279,-0.372L0.279,-0.134C0.279,-0.101 0.27,-0.075 0.253,-0.056C0.236,-0.037 0.214,-0.027 0.187,-0.027C0.16,-0.027 0.138,-0.037 0.121,-0.056C0.104,-0.075 0.095,-0.101 0.095,-0.134L0.095,-0.372Z" style="fill-rule:nonzero;"/>
                            </g>
                            <g transform="matrix(187.5,0,0,187.5,2730.95,1940.22)">
                                <path d="M0.06,-0.506L0.06,-0.123C0.06,-0.083 0.071,-0.051 0.093,-0.027C0.115,-0.002 0.143,0.01 0.177,0.01C0.224,0.01 0.259,-0.009 0.283,-0.047L0.285,-0L0.32,-0L0.32,-0.506L0.28,-0.506L0.28,-0.127C0.279,-0.096 0.27,-0.072 0.252,-0.054C0.234,-0.036 0.212,-0.027 0.186,-0.027C0.159,-0.027 0.138,-0.036 0.123,-0.055C0.108,-0.073 0.1,-0.099 0.1,-0.132L0.1,-0.506L0.06,-0.506Z" style="fill-rule:nonzero;"/>
                            </g>
                            <g transform="matrix(187.5,0,0,187.5,2803.13,1940.22)">
                                <path d="M0.227,-0.516C0.17,-0.516 0.128,-0.493 0.102,-0.448L0.1,-0.506L0.065,-0.506L0.065,-0L0.105,-0L0.105,-0.344C0.105,-0.388 0.115,-0.422 0.136,-0.445C0.157,-0.468 0.184,-0.479 0.219,-0.479L0.227,-0.479L0.227,-0.516Z" style="fill-rule:nonzero;"/>
                            </g>
                            <g transform="matrix(187.5,0,0,187.5,2883.57,1940.22)">
                                <path d="M0.02,-0.471L0.09,-0.471L0.09,-0L0.13,-0L0.13,-0.471L0.24,-0.471L0.24,-0.506L0.13,-0.506L0.13,-0.586C0.13,-0.644 0.154,-0.673 0.202,-0.673C0.214,-0.673 0.227,-0.672 0.24,-0.67L0.24,-0.704L0.234,-0.706C0.231,-0.707 0.225,-0.708 0.218,-0.709C0.21,-0.71 0.202,-0.71 0.194,-0.71C0.161,-0.71 0.136,-0.7 0.118,-0.679C0.099,-0.658 0.09,-0.627 0.09,-0.586L0.09,-0.506L0.02,-0.506L0.02,-0.471Z" style="fill-rule:nonzero;"/>
                            </g>
                            <g transform="matrix(187.5,0,0,187.5,2928.57,1940.22)">
                                <path d="M0.05,-0.134C0.05,-0.091 0.062,-0.057 0.086,-0.03C0.11,-0.003 0.14,0.01 0.177,0.01C0.224,0.01 0.259,-0.011 0.284,-0.052L0.29,-0L0.32,-0L0.32,-0.38C0.32,-0.421 0.308,-0.454 0.284,-0.479C0.26,-0.504 0.23,-0.516 0.194,-0.516C0.158,-0.516 0.128,-0.503 0.104,-0.478C0.08,-0.452 0.068,-0.419 0.068,-0.378L0.068,-0.361L0.106,-0.361L0.106,-0.377C0.106,-0.408 0.114,-0.433 0.131,-0.452C0.147,-0.47 0.168,-0.479 0.193,-0.479C0.218,-0.479 0.239,-0.47 0.256,-0.452C0.272,-0.433 0.28,-0.408 0.28,-0.377L0.28,-0.251C0.255,-0.287 0.222,-0.305 0.179,-0.305C0.142,-0.305 0.112,-0.291 0.087,-0.264C0.062,-0.236 0.05,-0.201 0.05,-0.158L0.05,-0.134ZM0.09,-0.157C0.09,-0.19 0.099,-0.217 0.117,-0.237C0.134,-0.257 0.157,-0.267 0.185,-0.267C0.213,-0.267 0.236,-0.257 0.254,-0.237C0.271,-0.217 0.28,-0.19 0.28,-0.157L0.28,-0.137C0.28,-0.104 0.271,-0.077 0.254,-0.057C0.236,-0.037 0.213,-0.027 0.185,-0.027C0.157,-0.027 0.134,-0.037 0.117,-0.057C0.099,-0.077 0.09,-0.104 0.09,-0.137L0.09,-0.157Z" style="fill-rule:nonzero;"/>
                            </g>
                            <g transform="matrix(187.5,0,0,187.5,2999.82,1940.22)">
                                <path d="M0.262,-0.124C0.262,-0.094 0.253,-0.07 0.236,-0.053C0.219,-0.036 0.197,-0.027 0.17,-0.027C0.143,-0.027 0.121,-0.036 0.104,-0.053C0.087,-0.07 0.078,-0.094 0.078,-0.124L0.078,-0.135L0.04,-0.135L0.04,-0.121C0.04,-0.082 0.052,-0.05 0.077,-0.026C0.101,-0.002 0.132,0.01 0.169,0.01C0.207,0.01 0.239,-0.002 0.264,-0.027C0.289,-0.052 0.302,-0.084 0.302,-0.123C0.302,-0.158 0.292,-0.189 0.272,-0.214C0.252,-0.239 0.221,-0.261 0.18,-0.281C0.147,-0.296 0.124,-0.313 0.11,-0.33C0.095,-0.347 0.088,-0.368 0.088,-0.392C0.088,-0.417 0.096,-0.438 0.113,-0.455C0.13,-0.471 0.15,-0.479 0.175,-0.479C0.2,-0.479 0.22,-0.471 0.237,-0.455C0.254,-0.438 0.262,-0.417 0.262,-0.392L0.262,-0.381L0.3,-0.381L0.3,-0.395C0.3,-0.43 0.288,-0.459 0.265,-0.482C0.242,-0.505 0.212,-0.516 0.176,-0.516C0.14,-0.516 0.11,-0.504 0.085,-0.481C0.06,-0.458 0.048,-0.428 0.048,-0.393C0.048,-0.332 0.084,-0.284 0.156,-0.249C0.194,-0.231 0.221,-0.212 0.238,-0.193C0.254,-0.173 0.262,-0.15 0.262,-0.124Z" style="fill-rule:nonzero;"/>
                            </g>
                            <g transform="matrix(187.5,0,0,187.5,3063.95,1940.22)">
                                <path d="M0.02,-0.471L0.09,-0.471L0.09,-0.114C0.09,-0.073 0.099,-0.043 0.118,-0.022C0.136,-0.001 0.161,0.01 0.194,0.01C0.211,0.01 0.227,0.008 0.24,0.004L0.24,-0.03L0.202,-0.027C0.154,-0.027 0.13,-0.056 0.13,-0.114L0.13,-0.471L0.245,-0.471L0.245,-0.506L0.13,-0.506L0.13,-0.64L0.09,-0.64L0.09,-0.506L0.02,-0.506L0.02,-0.471Z" style="fill-rule:nonzero;"/>
                            </g>
                        </g>
                    </g>
                </g>
                <g transform="matrix(0.6,0,0,0.6,-45.325,-36.1938)">
                    <g transform="matrix(129.282,0,0,129.282,119.754,164.824)">
                        <path d="M0.561,-0L0.71,-0L0.71,-0.7L0.561,-0.7L0.561,-0.24L0.238,-0.7L0.08,-0.7L0.08,-0L0.229,-0L0.229,-0.472L0.561,-0Z" style="fill-rule:nonzero;"/>
                    </g>
                    <g transform="matrix(129.282,0,0,129.282,221.887,164.824)">
                        <path d="M0.413,-0.13C0.351,-0.13 0.3,-0.151 0.259,-0.193C0.218,-0.235 0.198,-0.287 0.198,-0.35C0.198,-0.412 0.218,-0.464 0.259,-0.506C0.3,-0.548 0.351,-0.569 0.413,-0.569C0.474,-0.569 0.526,-0.548 0.567,-0.506C0.608,-0.464 0.628,-0.412 0.628,-0.35C0.628,-0.287 0.608,-0.235 0.567,-0.193C0.526,-0.151 0.474,-0.13 0.413,-0.13ZM0.415,-0.71C0.311,-0.71 0.223,-0.675 0.152,-0.605C0.081,-0.534 0.045,-0.448 0.045,-0.347C0.045,-0.246 0.08,-0.161 0.15,-0.093C0.219,-0.024 0.306,0.01 0.41,0.01C0.514,0.01 0.602,-0.025 0.673,-0.095C0.744,-0.165 0.78,-0.251 0.78,-0.352C0.78,-0.453 0.745,-0.538 0.676,-0.607C0.606,-0.676 0.519,-0.71 0.415,-0.71Z" style="fill-rule:nonzero;"/>
                    </g>
                    <g transform="matrix(129.282,0,0,129.282,325.96,164.824)">
                        <path d="M0.575,-0.567L0.575,-0.7L0.015,-0.7L0.015,-0.567L0.219,-0.567L0.219,-0L0.371,-0L0.371,-0.567L0.575,-0.567Z" style="fill-rule:nonzero;"/>
                    </g>
                    <g transform="matrix(129.282,0,0,129.282,402.236,164.824)">
                        <path d="M0.538,-0L0.69,-0L0.69,-0.7L0.538,-0.7L0.538,-0.431L0.233,-0.431L0.233,-0.7L0.08,-0.7L0.08,-0L0.233,-0L0.233,-0.295L0.538,-0.295L0.538,-0Z" style="fill-rule:nonzero;"/>
                    </g>
                    <g transform="matrix(129.282,0,0,129.282,501.784,164.824)">
                        <rect x="0.085" y="-0.7" width="0.157" height="0.7" style="fill-rule:nonzero;"/>
                    </g>
                    <g transform="matrix(129.282,0,0,129.282,544.059,164.824)">
                        <path d="M0.561,-0L0.71,-0L0.71,-0.7L0.561,-0.7L0.561,-0.24L0.238,-0.7L0.08,-0.7L0.08,-0L0.229,-0L0.229,-0.472L0.561,-0Z" style="fill-rule:nonzero;"/>
                    </g>
                    <g transform="matrix(129.282,0,0,129.282,646.193,164.824)">
                        <path d="M0.405,-0.38L0.405,-0.27L0.598,-0.27C0.589,-0.226 0.568,-0.191 0.535,-0.166C0.502,-0.14 0.461,-0.127 0.412,-0.127C0.35,-0.127 0.299,-0.148 0.258,-0.191C0.217,-0.233 0.197,-0.286 0.197,-0.349C0.197,-0.412 0.217,-0.465 0.258,-0.507C0.299,-0.549 0.35,-0.57 0.412,-0.57C0.433,-0.57 0.453,-0.567 0.472,-0.562C0.491,-0.557 0.506,-0.551 0.518,-0.544C0.529,-0.537 0.54,-0.53 0.551,-0.521C0.561,-0.512 0.568,-0.505 0.571,-0.502C0.574,-0.499 0.576,-0.496 0.577,-0.494L0.683,-0.602L0.674,-0.613C0.667,-0.62 0.657,-0.629 0.642,-0.64C0.627,-0.651 0.609,-0.661 0.59,-0.672C0.57,-0.683 0.545,-0.692 0.514,-0.699C0.483,-0.706 0.45,-0.71 0.415,-0.71C0.311,-0.71 0.223,-0.675 0.152,-0.605C0.081,-0.535 0.045,-0.449 0.045,-0.348C0.045,-0.247 0.08,-0.162 0.15,-0.093C0.219,-0.024 0.306,0.01 0.41,0.01C0.511,0.01 0.593,-0.024 0.658,-0.091C0.722,-0.158 0.754,-0.242 0.755,-0.341C0.755,-0.354 0.754,-0.367 0.753,-0.38L0.405,-0.38Z" style="fill-rule:nonzero;"/>
                    </g>
                    <g transform="matrix(129.282,0,0,129.282,119.754,315.697)">
                        <path d="M0.233,-0.415L0.233,-0.582L0.361,-0.582C0.392,-0.582 0.416,-0.574 0.434,-0.558C0.452,-0.542 0.461,-0.522 0.461,-0.498C0.461,-0.475 0.452,-0.455 0.434,-0.439C0.416,-0.423 0.392,-0.415 0.361,-0.415L0.233,-0.415ZM0.08,-0.7L0.08,-0L0.412,-0C0.48,-0 0.536,-0.019 0.58,-0.056C0.623,-0.092 0.645,-0.139 0.645,-0.194C0.645,-0.234 0.634,-0.269 0.611,-0.3C0.588,-0.331 0.557,-0.353 0.517,-0.366C0.548,-0.382 0.572,-0.404 0.589,-0.431C0.606,-0.458 0.614,-0.488 0.614,-0.521C0.614,-0.574 0.594,-0.617 0.554,-0.65C0.513,-0.683 0.46,-0.7 0.394,-0.7L0.08,-0.7ZM0.233,-0.305L0.384,-0.305C0.417,-0.305 0.444,-0.296 0.464,-0.279C0.483,-0.261 0.493,-0.239 0.493,-0.212C0.493,-0.185 0.483,-0.163 0.464,-0.145C0.444,-0.126 0.417,-0.117 0.384,-0.117L0.233,-0.117L0.233,-0.305Z" style="fill-rule:nonzero;"/>
                    </g>
                    <g transform="matrix(129.282,0,0,129.282,208.959,315.697)">
                        <path d="M0.52,-0.7L0.52,-0.29C0.52,-0.242 0.507,-0.203 0.48,-0.174C0.453,-0.145 0.417,-0.13 0.373,-0.13C0.329,-0.13 0.293,-0.145 0.266,-0.174C0.239,-0.203 0.225,-0.242 0.225,-0.29L0.225,-0.7L0.07,-0.7L0.07,-0.285C0.07,-0.196 0.097,-0.124 0.152,-0.071C0.206,-0.017 0.278,0.01 0.368,0.01C0.457,0.01 0.53,-0.018 0.586,-0.073C0.642,-0.128 0.67,-0.201 0.67,-0.29L0.67,-0.7L0.52,-0.7Z" style="fill-rule:nonzero;"/>
                    </g>
                    <g transform="matrix(129.282,0,0,129.282,304.628,315.697)">
                        <path d="M0.374,-0.571C0.411,-0.571 0.44,-0.561 0.461,-0.542C0.482,-0.522 0.493,-0.496 0.493,-0.465C0.493,-0.434 0.482,-0.408 0.461,-0.389C0.44,-0.369 0.411,-0.359 0.374,-0.359L0.233,-0.359L0.233,-0.571L0.374,-0.571ZM0.08,-0L0.233,-0L0.233,-0.241L0.341,-0.241L0.498,-0L0.675,-0L0.498,-0.262C0.543,-0.279 0.579,-0.306 0.606,-0.343C0.632,-0.38 0.645,-0.424 0.645,-0.473C0.645,-0.54 0.622,-0.595 0.575,-0.637C0.528,-0.679 0.468,-0.7 0.393,-0.7L0.08,-0.7L0.08,-0Z" style="fill-rule:nonzero;"/>
                    </g>
                    <g transform="matrix(129.282,0,0,129.282,395.126,315.697)">
                        <path d="M0.405,-0.38L0.405,-0.27L0.598,-0.27C0.589,-0.226 0.568,-0.191 0.535,-0.166C0.502,-0.14 0.461,-0.127 0.412,-0.127C0.35,-0.127 0.299,-0.148 0.258,-0.191C0.217,-0.233 0.197,-0.286 0.197,-0.349C0.197,-0.412 0.217,-0.465 0.258,-0.507C0.299,-0.549 0.35,-0.57 0.412,-0.57C0.433,-0.57 0.453,-0.567 0.472,-0.562C0.491,-0.557 0.506,-0.551 0.518,-0.544C0.529,-0.537 0.54,-0.53 0.551,-0.521C0.561,-0.512 0.568,-0.505 0.571,-0.502C0.574,-0.499 0.576,-0.496 0.577,-0.494L0.683,-0.602L0.674,-0.613C0.667,-0.62 0.657,-0.629 0.642,-0.64C0.627,-0.651 0.609,-0.661 0.59,-0.672C0.57,-0.683 0.545,-0.692 0.514,-0.699C0.483,-0.706 0.45,-0.71 0.415,-0.71C0.311,-0.71 0.223,-0.675 0.152,-0.605C0.081,-0.535 0.045,-0.449 0.045,-0.348C0.045,-0.247 0.08,-0.162 0.15,-0.093C0.219,-0.024 0.306,0.01 0.41,0.01C0.511,0.01 0.593,-0.024 0.658,-0.091C0.722,-0.158 0.754,-0.242 0.755,-0.341C0.755,-0.354 0.754,-0.367 0.753,-0.38L0.405,-0.38Z" style="fill-rule:nonzero;"/>
                    </g>
                    <g transform="matrix(129.282,0,0,129.282,498.552,315.697)">
                        <path d="M0.605,-0L0.605,-0.132L0.233,-0.132L0.233,-0.298L0.545,-0.298L0.545,-0.422L0.233,-0.422L0.233,-0.567L0.595,-0.567L0.595,-0.7L0.08,-0.7L0.08,-0L0.605,-0Z" style="fill-rule:nonzero;"/>
                    </g>
                    <g transform="matrix(129.282,0,0,129.282,582.586,315.697)">
                        <path d="M0.374,-0.571C0.411,-0.571 0.44,-0.561 0.461,-0.542C0.482,-0.522 0.493,-0.496 0.493,-0.465C0.493,-0.434 0.482,-0.408 0.461,-0.389C0.44,-0.369 0.411,-0.359 0.374,-0.359L0.233,-0.359L0.233,-0.571L0.374,-0.571ZM0.08,-0L0.233,-0L0.233,-0.241L0.341,-0.241L0.498,-0L0.675,-0L0.498,-0.262C0.543,-0.279 0.579,-0.306 0.606,-0.343C0.632,-0.38 0.645,-0.424 0.645,-0.473C0.645,-0.54 0.622,-0.595 0.575,-0.637C0.528,-0.679 0.468,-0.7 0.393,-0.7L0.08,-0.7L0.08,-0Z" style="fill-rule:nonzero;"/>
                    </g>
                </g>
            </g>
        </g>
    </g>
</svg>
